/* XPM */
static char *result[] = {
/* columns rows colors chars-per-pixel */
"64 64 250 2 ",
"   c #7D081C",
".  c #760935",
"X  c #772339",
"o  c #681255",
"O  c #6A284B",
"+  c #642A53",
"@  c #732F50",
"#  c #5D1664",
"$  c #5B2F6B",
"%  c #68386A",
"&  c #78444F",
"*  c #58497B",
"=  c #70536E",
"-  c #7B6B79",
";  c #8C0001",
":  c #890209",
">  c #920200",
",  c #950B07",
"<  c #9A0C01",
"1  c #9D1401",
"2  c #9E1A01",
"3  c #98120A",
"4  c #860817",
"5  c #940F16",
"6  c #83111D",
"7  c #991B18",
"8  c #A21400",
"9  c #A11901",
"0  c #9E2200",
"q  c #9B2719",
"w  c #AB2500",
"e  c #A92B03",
"r  c #A22309",
"t  c #B32700",
"y  c #B42C00",
"u  c #AC3403",
"i  c #B53401",
"p  c #B83503",
"a  c #B43B01",
"s  c #BB3C00",
"d  c #A22715",
"f  c #A93617",
"g  c #B23514",
"h  c #8E1826",
"j  c #9B2625",
"k  c #933432",
"l  c #A02522",
"z  c #A73825",
"x  c #A93932",
"c  c #C03C00",
"v  c #BC4200",
"b  c #B94704",
"n  c #B75701",
"m  c #B14C12",
"M  c #BA4A18",
"N  c #BD6300",
"B  c #BC6D09",
"V  c #974B39",
"C  c #AA4629",
"Z  c #B55627",
"A  c #AE5135",
"S  c #B36A2B",
"D  c #B76638",
"F  c #BE733E",
"G  c #BC783A",
"H  c #C64800",
"J  c #C95403",
"K  c #D25400",
"L  c #D45B00",
"P  c #D85E01",
"I  c #C95514",
"U  c #C35817",
"Y  c #CB6403",
"T  c #D76703",
"R  c #D36C00",
"E  c #C97302",
"W  c #D67704",
"Q  c #C86717",
"!  c #CE7017",
"~  c #D97616",
"^  c #E26C00",
"/  c #E57806",
"(  c #EE7D00",
")  c #F07E00",
"_  c #E17E17",
"`  c #C1572E",
"'  c #CC6F2D",
"]  c #CB7628",
"[  c #D57C27",
"{  c #C67937",
"}  c #883249",
"|  c #8E484D",
" . c #AF5349",
".. c #B5585C",
"X. c #9A6752",
"o. c #B3694B",
"O. c #BC7845",
"+. c #A26D5A",
"@. c #AA7954",
"#. c #BB7A56",
"$. c #B85E62",
"%. c #8F6D6C",
"&. c #8A7974",
"*. c #BC7066",
"=. c #CB745B",
"-. c #BE893E",
";. c #D88603",
":. c #D49901",
">. c #D4940F",
",. c #DB8918",
"<. c #EE8100",
"1. c #E78901",
"2. c #F38301",
"3. c #F48C02",
"4. c #FB8D00",
"5. c #F2850B",
"6. c #F38C09",
"7. c #E79604",
"8. c #EE9C00",
"9. c #F39705",
"0. c #FD9401",
"q. c #FD9B00",
"w. c #E58818",
"e. c #E49817",
"r. c #F49516",
"t. c #D6A501",
"y. c #DEB617",
"u. c #ECA602",
"i. c #F3A707",
"p. c #FDA300",
"a. c #FDAC00",
"s. c #E7B802",
"d. c #F3B606",
"f. c #FDB300",
"g. c #FDBC00",
"h. c #E8A617",
"j. c #F9A315",
"k. c #E6B915",
"l. c #D68728",
"z. c #CA952A",
"x. c #D69725",
"c. c #CB8E32",
"v. c #C68738",
"b. c #E69324",
"n. c #F49925",
"m. c #FC9F21",
"M. c #D5A527",
"N. c #D0B42D",
"B. c #FCA321",
"V. c #EFB02C",
"C. c #DEC111",
"Z. c #ECC701",
"A. c #F4C705",
"S. c #FDC300",
"D. c #FDCC00",
"F. c #EDD300",
"G. c #EEDB00",
"H. c #FDD401",
"J. c #FEDC00",
"K. c #F3DB09",
"L. c #E6C916",
"P. c #F3D215",
"I. c #F4E704",
"U. c #FDE300",
"Y. c #FDEB00",
"T. c #F3E50A",
"R. c #FCF300",
"E. c #FEFD00",
"W. c #FAF808",
"Q. c #FCFD1B",
"!. c #F8C93A",
"~. c #FCFB22",
"^. c #FBF939",
"/. c #AA8354",
"(. c #B38C53",
"). c #BCAA41",
"_. c #8E8670",
"`. c #BF8060",
"'. c #CD8952",
"]. c #EAAC51",
"[. c #FCB75B",
"{. c #FEBB5D",
"}. c #D08F6F",
"|. c #DDA461",
" X c #FCC35C",
".X c #F1D359",
"XX c #F9EB57",
"oX c #FEFA55",
"OX c #FFFF5C",
"+X c #FBD46A",
"@X c #FEFC6E",
"#X c #4C3187",
"$X c #3B52AC",
"%X c #3A57AC",
"&X c #3D62AC",
"*X c #3469BD",
"=X c #4A4A8A",
"-X c #4D4B91",
";X c #485495",
":X c #4B5F9D",
">X c #726D8A",
",X c #777489",
"<X c #697A95",
"1X c #4D6DA9",
"2X c #5576AA",
"3X c #4579BB",
"4X c #2D6CC8",
"5X c #316AC1",
"6X c #2D71CB",
"7X c #3979C5",
"8X c #357ACB",
"9X c #2B7AD5",
"0X c #2878D6",
"qX c #257BDB",
"wX c #327ED1",
"eX c #1D7CE3",
"rX c #177CEB",
"tX c #217DE0",
"yX c #407BC0",
"uX c #71818E",
"iX c #5C82A4",
"pX c #3580CE",
"aX c #1C83EB",
"sX c #2182E4",
"dX c #CE9285",
"fX c #CFA28E",
"gX c #E7B88A",
"hX c #D39CA1",
"jX c #D8A5A4",
"kX c #DDB4AD",
"lX c #E4BBAC",
"zX c #F5D08C",
"xX c #FED79D",
"cX c #FDF18F",
"vX c #FFFD9B",
"bX c #EDCEAD",
"nX c #FED9A1",
"mX c #E3CABC",
"MX c #FFE3A4",
"NX c #FFFFA3",
"BX c #FBECB6",
"VX c #EDD6CD",
"CX c #F1DACE",
"ZX c #F7E4CE",
"AX c #FEECCE",
"SX c #FFF9CB",
"DX c #F7E8D7",
"FX c #FFF9D6",
"GX c #F5E9E0",
"HX c #FFFBE7",
/* pixels */
"qXqXqXqXqXqX0XqXqX0XqXtXeXeXrXrXrXrX7XuX/.w.4.0.0.0.( L y < ; ;   ; , t P ) 5._ [ o.+.,X2XwXtXrXtXrXtXtXqXqXqXqXqXqX0XqXqX0XqXqX",
"qXqXqX0XqXqXqXqXqXqXqXqXqX0XqXqXtXsXpXuX(.,.0.0.0.4.( P p 1 > ; ; ; 8 c P ( 5.5.[ F +.- 2X7X0XtXtX0X0X0XqXqXqXqXqXqXqXqXqXqXqXqX",
"qXqXqXqXqXqXqXqXqXqXqX8X8X7X3X7XpXiXiX_.-.e.8.q.0.4./ P v e 9 3 7 l f M ! / r.w.l.v./._.<X3X8X8X8X7X8X8X9X0XqXqXqXqXqXqXqXqX0XqX",
"qXqX0XqXqXqXqXtXtXqX9X7XiXuXuXuXuXuXuX/.N.k.f.i.9.w._ Q J v b C A  ...' ' [ w.b.x.z.).(.&.<X2X2X1X2X1XyX8X0XqXtXqXqXqXqXqXqXqXqX",
"qXqXqXqXqXqXqXtXeXqXpXiXuX_./.(././.(.N.y.A.A.k.e.l.[ ! R R ~ l.}.dXfX`.=.{ l.b.y.N.N.)./.&.- >X- >X>X2X3X9XtXtXtXqXqXqX0XqXqXqX",
"qXqXqXqXqXqXqXtXtXsXpXiX_.c.,.w.w.e.e.k.P.U.P.L.M.v.{ [ ;.e.j.].+XbXVXkX}.'.'.M.C.L.T.N.)./.+.+.+.$.%.<X2X7X0XqXqXqXqXqXqXqXqXqX",
"qXqXqXqXqXqXqX9X8X*XiX_.(.e.q.q.0.0.p.g.H.U.K.C.z.v.O.v.x.V.!.+XcXBXBXkX}.`.G z.k.K.K.L.M.c.O.G O.O./._.<X3X7X9X0XqXqXqXqXqXqXqX",
"qX9XqXqXtXqXpX7XiXuX_.(.M.d.g.a.a.p.p.g.H.J.K.k.c.(.O.'.]. X+X@XcXvXvXzX}.'.O.z.k.A.H.A.k.N.M.M.M.M.z.(._.<X1X7X8X0XqXqXqXqXqXqX",
"sX6XeXeXsXsXpX3XuX_.(.M.k.A.H.D.g.a.a.g.S.D.A.M.z.O.(.}.gXzXcXcX@X@XXX.X).'.O.c.e.i.A.A.A.L.L.L.L.L.N.N.(.&.>X2XyX9XtXtXtXqXqXqX",
"0XsX0XeXsXpXyXuX_.c.e.d.A.U.U.J.S.g.f.g.g.g.d.h.l.O.#.dXlXBXBXvX@X^.~.N.z.-.O.' w.9.p.g.H.K.T.W.W.I.P.N.-.#.%.>X2X8X0XqXqXqX0XqX",
"sX0XsX6X4X5X1X_.-.x.a.S.H.Y.Y.J.D.g.a.f.a.a.i.,.] D @.dXlXDXSXvXOX~.T.C.-.S D ' ~ 6.p.f.D.U.Y.R.R.I.T.L.M.c.@.&.<X3X5X9X0X0XqXqX",
"sX0X6X4X&X=X= - z.u.S.H.J.J.J.H.g.f.a.p.p.p.9.W B Z  .dXkXGXFXNXOXQ.I.t.>.Z Z Z ~ 6.p.f.S.H.J.J.U.J.H.d.h.x.v.@.&.<X2XyX8X9XqXtX",
"sXsX5X%X=X% & S >.Z.H.J.J.H.D.S.a.p.p.p.q.q.5.T M f A *.kXCXFXNXOXQ.G.t.B m f m W 6.a.a.g.g.g.g.g.g.f.d.i.e.x.v./.&.,X2X3XwX0XtX",
"sX6X4X=X$ X q N >.F.U.U.H.S.g.a.p.q.0.0.q.0.) K i 9 x $.jXCXFXNXOX~.G.:.B q 0 b R 8.a.a.a.q.q.q.q.p.q.p.i.i.h.x.v.o.%.>X2X8X0XeX",
"aX0X5X=X+   0 n :.F.Y.U.D.g.a.p.q.0.4.0.0.4.( K t 8 j ..hXVXSXNXOX~.G.:.n 0 0 b R 8.f.a.p.q.0.0.0.0.0.p.a.a.i.e.l.O.+.,X2X7XqXeX",
"aXsX5X=X+ 4 2 J ;.Z.J.J.S.a.p.q.0.0.0.0.0.0.( K t < h ..hXCXSXNXOX~.G.:.n 3 , u R 8.g.f.a.p.q.q.0.0.0.p.f.g.f.e.l.{ @.,X2X8XtXrX",
"aXeX4X=X+   0 b W d.D.S.g.p.q.0.0.0.0.0.0.4.( K t < 7 ..hXVXSXNXOX~.F.:.n 2 1 i R 8.g.g.g.a.a.q.0.0.q.p.f.g.a.h.l.{ +.,X2X8XtXaX",
"sX6X5X;X+   2 b W u.g.g.p.q.0.0.4.0.4.0.0.0.( K y 1 l ..hXVXSXNXOX~.G.:.n 0 2 a R 8.a.g.f.a.a.p.q.0.0.q.p.a.i.e.l.O.+.- 2XyX0XtX",
"0X*X&X* + h 0 b W e.i.j.9.6.6.5.6.6.6.6.3.5./ L s w z $.jXCXSXvXOX~.G.t.N u w s Y 1.8.u.8.8.8.1.<.( ( 2.3.8.1.,.] D X.- :X1X*X4X",
"iXiX<X= & k z m Q ,.,.e.w.w.~ w._ ~ w._ w._ ~ Y J H U '.kXCXSXvXOXQ.I.s.E b s v J Y R R R R T Y L L L Y Y R Y Q M C V | = * =X=X",
",X- %.%.X.V A A D ] v.] ] ' ] ] ] ] ] ] ] ' ! ! R W ,.|.bXAXSXNXOXQ.I.Z.7.R K H s s a i i a i i i y y y i i g u u q h k X O O + ",
"+.+.X.+.o.A D D D F { F F F O.O.F F o.O.O.F { [ w.e.h.{.xXAXFXNXOX~.Y.A.a.0.^ K s w 2 1 1 9 2 2 9 1 1 9 9 2 8 8 3 , 3 5 5 4 6 6 ",
"o.A  .D D O.O.F F F { (.#.#.*.`.#.'.`.`.`.`.'.c.M.V. X+XMXFXFXNX@XoX~.P.k.B.r.~ ` f l j j l j d j l l l l l q 5 3 : > > , , 3 3 ",
"z C C Z ' ] { l.l.l.c.'.}.fXfXfXhXfXfXfXfXfXjX|. X+X+XcXAXFXFXSXvX@XOXXX+X{.[.|.=.$...................$.$... .x j : ; > 3 9 q q ",
"7 q f M Q [ w.r.e.e.M.|.gXlXmXmXmXmXmXmXmXmXmXbXMXMXBXBXFXHXHXHXBXNXNXvXMXMXxXbXkXjXhXhXhXhXhXhXhXhXhXhXjXhXdX$.x 5 > , q f C C ",
", 3 9 g L / 6.9.9.i.V. XzXBXDXDXGXGXDXGXDXDXDXDXDXFXFXFXHXHXHXHXHXFXSXAXAXAXAXCXZXCXCXCXCXCXCXCXCXCXCXCXDXCXkXdX .7 3 3 z A D  .",
"< 8 w p K T <.3.p.i.V. XzXBXAXDXAXAXZXDXAXAXAXAXAXAXAXAXAXAXAXAXAXAXAXAXAXAXAXAXAXAXAXAXAXAXAXAXFXAXZXDXDXCXlXdX .z r f C D o.o.",
"y p p c H K T T ;.e.h.].+XzXnXMXMXxXMXxXxXxXxXnXxXnXnXnXxXxXxXxXxXnXnXnXxXxXxXxXnXnXnXMXxXMXxXMXMXnXxXxXlXjXhX=.` U M M Z O.o.@.",
"P L K H s p b M Q ] c.].].[.{. X X X{.{.{.{.{.{.[.[.{.[.[.[.[.[.[.[.{.{.[.[.[.{.{.{.{.{. X X X X X X{.|.=.=...` Q ! ! ! G F o.o.",
") ( ^ L p w 0 q C D { c.b.n.m.m.m.B.m.m.B.B.m.m.m.m.m.m.m.m.m.m.m.m.n.m.m.m.m.m.B.B.B.m.m.m.m.m.B.m.n.' ` f g M W ;.7.,.v.F o.o.",
"0.0.) T H e e z Z D { ] _ / ( ( ( ( ( 2.3.4.4.0.4.0.4.4.0.4.4.0.0.0.0.0.0.0.0.0.0.0.0.4.5.2.) ) ) ( ^ K s u u n W u.i.e.] S D  .",
"q.0.4./ R Y N B S l.l.! T L L K K K L ^ ( ) 4.4.4.4.4.4.4.4.4.4.0.0.q.q.q.q.q.q.q.q.3.( ^ P K K K L K H n n N W 7.a.a.>.] Z C V ",
"0.0.0.8.7.:.t.:.>.e.,.! J v y y t y c K ^ ) 4.4.0.4.4.4.4.4.4.0.q.p.p.p.p.p.p.a.a.p.9./ K c y t y y s J E ;.:.s.d.a.u.;.U f d j ",
"4.0.q.a.d.F.F.A.A.d.7.W b w 8 < < 8 w c T 2.4.0.0.4.4.4.4.0.0.q.p.a.a.f.f.a.a.f.f.a.8.W H w 1 < < 8 e n :.s.F.G.D.d.8.W b r 3 : ",
"5.6.9.d.H.Y.R.Y.H.g.8.R v 2 > > > < 9 H P ) 0.0.0.0.0.0.0.0.8.p.i.a.f.f.f.f.f.g.f.f.8.W n r 3 ; : ; e N t.G.R.R.J.g.8.R s 2 > ; ",
"_ w.e.k.K.W.E.R.J.S.8.R a 1 > > 1 t c K ^ 2.4.q.q.q.q.q.q.q.q.p.a.f.f.f.f.f.f.g.g.f.u.W M f q 4 : ; 0 n t.G.E.R.U.S.8.R a 1 ; ; ",
"{ ' l.V.P.W.W.R.J.g.8.R a 1 < 8 y H P ^ ( 2.4.0.q.p.p.p.p.p.p.a.a.f.f.f.f.f.f.f.f.f.i.,.S Z k 7 4 , 0 n t.I.E.R.J.S.8.R s 2 ; ; ",
"o.{ v.M.L.T.R.Y.J.g.8.R a 9 1 w H ^ ) 2.4.0.0.q.p.a.f.a.f.f.f.a.f.f.f.g.f.f.f.f.g.g.i.e.[ D A x 7 , 0 n :.G.R.R.J.g.8.R a 2 ; ; ",
" .A G z.k.T.Y.Y.J.S.u.W s 9 8 c I w.m.j.i.p.p.a.f.g.g.g.S.g.S.g.g.g.g.g.g.g.S.S.g.g.d.h.x.{ Z z 7 , 0 n :.F.U.Y.H.g.8.R s 1 > ; ",
"k C Z ! t.A.U.U.U.H.d.E s 8 7 x =.]. XV.V.d.g.S.A.D.H.H.H.H.H.J.J.H.H.H.H.H.H.A.D.D.A.k.e.l.' z q < 2 n :.Z.J.J.D.g.3.T a 8 > ; ",
"q q u B ;.d.H.U.Y.J.Z.;.b 1 d x }.gXzX+X^.P.H.H.J.U.U.Y.Y.Y.I.Y.Y.Y.U.U.I.I.J.U.U.I.H.A.j.e.~ I r < 2 b ;.d.D.D.g.a.1.T p 8 > > ",
": < q n W u.S.J.Y.Y.F.:.n 0 l  .dXxXNXcXXXQ.Y.Y.R.R.R.R.R.Y.R.R.R.R.R.R.R.R.R.R.E.R.U.A.d.9._ J y 1 2 b E 8.g.g.a.q.<.L p 8 ; ; ",
"  6 q m Q e.d.H.Y.Y.G.t.N e f ..dXbXBXcXoXQ.E.E.R.R.Y.U.I.G.G.G.F.G.G.I.W.W.E.E.E.E.Y.J.g.q.) K p r q a Y 1.8.9.4.<.T J f q 6   ",
"+ O @ V S l.h.P.T.R.I.s.E n U { [.xXvX@X^.Q.E.E.R.Y.I.F.s.t.:.:.:.t.t.Z.G.W.E.E.E.E.E.J.S.q.2.T M f f g n Y R T T L J C k @ + + ",
"=X=X* = X.G x.k.T.W.I.Z.7.W ~ x.V.XXoX^.~.Q.E.E.Y.J.A.u.;.N n n n n B :.Z.I.E.E.E.E.R.U.g.p.2.~ U Z x C m a s s s u u k & * =X;X",
"4X*X1X>X&.@.v.M.L.T.Y.A.u.3.3.j.P.~.Q.Q.W.W.R.Y.J.S.u.;.n u 2 1 , 0 b B t.G.E.E.E.E.Y.H.g.q.5._ ' D A C d r 2 1 1 3 q & * &X*X*X",
"aX0X7X1X- X.G x.L.G.U.D.g.q.q.f.D.Y.E.E.E.R.U.H.Z.u.1.Y b e 1 < , 2 e N :.s.G.G.I.G.F.A.a.q.6.w.[ { Z C d 3 > > > ;   @ ;X*XpXaX",
"aXsX8X:X= | Z E u.A.H.D.f.q.p.g.H.R.E.E.R.Y.J.s.8.W Y J v i y t e e s n B :.t.t.t.:.:.8.8.0.6.r.w.[ ' Z d , ; ; > ;   + ;X*XsXaX",
"aXqX7X;X& k f N ;.d.S.g.a.q.p.g.J.R.E.E.Y.J.S.7.E b v v H J K L L L K J n n n n n n N W <.4.4.r.r.w.! I g , > ; > > 4 O ;X*XsXaX",
"aX0X*X;X+ X 0 n ;.u.g.f.p.0.q.g.H.Y.Y.Y.J.S.u.W n y w i K ^ ( ) ) ) T L v e 0 2 2 r e H T 2.4.0.0.5./ J y 8 > ; > ; 6 O =X*XpXaX",
"sXqX*X;X$ X q n E e.i.p.q.q.p.g.D.U.U.J.S.u.1.Y s w w s P ) 4.0.0.4.) T H w < < ; > 8 t J T ) 4.0.4.<.P p 3 : : : 6 X * ;X*XqXaX",
"sXqX6X%X* % @ V S ,.e.9.q.q.p.f.D.H.A.d.7.;.Y J v s s K ^ 4.0.q.q.0.2.^ K s w 1 > ; < 8 p H P ( 2.4.5.P g 5 4 4 . O $ =X&X4X0XsX",
"qXqX6X5X%X;X* = X.v.l.w.r.p.a.f.g.g.a.1.R J v v H K P ^ ) 4.0.q.0.0.4.) ^ P H y 9 > > < 8 y H P ( 2.) P g h o o $ * ;X&X*X0XqXsX",
"qXqXqX6X6X*X1X<X%.o.v.l.h.i.f.a.a.p.1.T v w w a K T ( 6.4.4.0.0.0.0.4.4.2.) ^ K y 1 > > > 8 w H ^ ) ( I x h o # #X&X*X6XpXtXqX0X",
"qX0XqXqXeX0X8X2X>X%.@.v.x.h.i.q.0.<.^ H w 1 1 i L <.9.0.9.6.6.3.0.0.0.0.0.0.( P s r , : : : 5 d J T ! ` } o $ #X%X4X0XqXsXqXqX0X",
"qXqXqXsXsXsX9X*X2X,X&./.v.x.,.1.^ P H y 8 < 1 i T 3.p.q.r.w.w.r.9.q.p.p.p.q.5./ U f q 5 4 4 5 5 g I Z V } % #X$X*X0XqXsXsXqXqXqX",
"qXqXqXtXtXtX9X8X*XiX<X_./.v.] ! J p t 8 < > 1 s W 8.i.i.w.l.l.x.e.i.a.a.p.q.4._ ' Z x j h 6 h h h h } } * ;X$X*X4XeXqXeXtXqXqXqX",
"9XqX0XqXtXtX9X0X9X8X3X<X&.@.D Z m 0 < > > > 1 b R 9.i.e.l.{ { l.e.j.a.a.q.0.5.w.' ` A } h o o h h } @ % -X%X4X6X0XqXqXqXqXqX0XqX",
"qXqX9XtX9XqX0XtXqXqX8X2X,X%.X.| k 6     : ; 1 s Y 1.w.,.] D D ] ,.w.8.3.2.( / ! '  ...| @ o o o # # # #X$X4X0XsXeXqXqXqX0XqXqXqX",
"qXqXqXtX9XqXqXtXeXqX9X3X2X>X= %.= + O . 6 : < w b L Y B Z C C m B Y T R T L I U A | } } #X% #X#X#X#X#X$X5X6XqXsXqXqXqXqXqXqXqXqX",
"qXqXqXqXqXqXqXtXtXtX9X8XyX2X1X:X;X;X* + X 4 > 8 w i a f d d q f f a s s s i u f h } } % #X$X$X$X$X$X$X$X6X0XqXsX0XsXqXqXqX0XqXqX",
"qXqXqX9X0XqXqXqXqXtX9X9X8X8XyX8X7X*X;X* X 6 > < < 2 2 2 3 3 3 1 2 1 2 9 1 1 3 5 h h # #X-X$X5X8X5X5X4X4X6X0XqXqXsX0XqXqXqXqXqXqX",
"qXqXqXqX9XtX9X0X0XqXqX0XtXtXtXtXsX0X*X=X+ 6 > > > ; > > > > ; > ; ; ; > > ; : 4 6 o o #X$XyX9XtXqX0XeXeX0XsXsX0X0X0X0X0XsX0X0XqX",
"qXqXqXqXqXqXtXtX0XqXqXqXtXtXtXtXaXaX7X;X+   > > ; ; ; ; ; ; ; ; ; ; ; ; ; : : 4 4 o # #X$X4XtXrXeXtXtXeX0XsX0X0X0XsXsX0X0XqXqXqX"
};
