/* XPM */
static char *result[] = {
/* columns rows colors chars-per-pixel */
"64 64 256 2 ",
"   c black",
".  c #010101",
"X  c #020202",
"o  c gray1",
"O  c #040404",
"+  c gray2",
"@  c #060606",
"#  c #070707",
"$  c gray3",
"%  c #090909",
"&  c gray4",
"*  c #0B0B0B",
"=  c #0C0C0C",
"-  c gray5",
";  c #0E0E0E",
":  c gray6",
">  c #101010",
",  c #111111",
"<  c gray7",
"1  c #131313",
"2  c gray8",
"3  c #151515",
"4  c #161616",
"5  c gray9",
"6  c #181818",
"7  c #191919",
"8  c gray10",
"9  c #1B1B1B",
"0  c gray11",
"q  c #1D1D1D",
"w  c #1E1E1E",
"e  c gray12",
"r  c #202020",
"t  c gray13",
"y  c #222222",
"u  c #232323",
"i  c gray14",
"p  c #252525",
"a  c gray15",
"s  c #272727",
"d  c #282828",
"f  c gray16",
"g  c #2A2A2A",
"h  c gray17",
"j  c #2C2C2C",
"k  c #2D2D2D",
"l  c gray18",
"z  c #2F2F2F",
"x  c gray19",
"c  c #313131",
"v  c #323232",
"b  c gray20",
"n  c #343434",
"m  c #353535",
"M  c gray21",
"N  c #373737",
"B  c gray22",
"V  c #393939",
"C  c #3A3A3A",
"Z  c gray23",
"A  c #3C3C3C",
"S  c gray24",
"D  c #3E3E3E",
"F  c #3F3F3F",
"G  c gray25",
"H  c #414141",
"J  c gray26",
"K  c #434343",
"L  c #444444",
"P  c gray27",
"I  c #464646",
"U  c gray28",
"Y  c #484848",
"T  c #494949",
"R  c gray29",
"E  c #4B4B4B",
"W  c #4C4C4C",
"Q  c gray30",
"!  c #4E4E4E",
"~  c gray31",
"^  c #505050",
"/  c #515151",
"(  c gray32",
")  c #535353",
"_  c gray33",
"`  c #555555",
"'  c #565656",
"]  c gray34",
"[  c #585858",
"{  c gray35",
"}  c #5A5A5A",
"|  c #5B5B5B",
" . c gray36",
".. c #5D5D5D",
"X. c gray37",
"o. c #5F5F5F",
"O. c #606060",
"+. c gray38",
"@. c #626262",
"#. c gray39",
"$. c #646464",
"%. c #656565",
"&. c gray40",
"*. c #676767",
"=. c #686868",
"-. c DimGray",
";. c #6A6A6A",
":. c gray42",
">. c #6C6C6C",
",. c #6D6D6D",
"<. c gray43",
"1. c #6F6F6F",
"2. c gray44",
"3. c #717171",
"4. c #727272",
"5. c gray45",
"6. c #747474",
"7. c gray46",
"8. c #767676",
"9. c #777777",
"0. c gray47",
"q. c #797979",
"w. c gray48",
"e. c #7B7B7B",
"r. c #7C7C7C",
"t. c gray49",
"y. c #7E7E7E",
"u. c gray50",
"i. c #808080",
"p. c #818181",
"a. c gray51",
"s. c #838383",
"d. c #848484",
"f. c gray52",
"g. c #868686",
"h. c gray53",
"j. c #888888",
"k. c #898989",
"l. c gray54",
"z. c #8B8B8B",
"x. c gray55",
"c. c #8D8D8D",
"v. c #8E8E8E",
"b. c gray56",
"n. c #909090",
"m. c gray57",
"M. c #929292",
"N. c #939393",
"B. c gray58",
"V. c #959595",
"C. c gray59",
"Z. c #979797",
"A. c #989898",
"S. c gray60",
"D. c #9A9A9A",
"F. c #9B9B9B",
"G. c gray61",
"H. c #9D9D9D",
"J. c gray62",
"K. c #9F9F9F",
"L. c #A0A0A0",
"P. c gray63",
"I. c #A2A2A2",
"U. c gray64",
"Y. c #A4A4A4",
"T. c #A5A5A5",
"R. c gray65",
"E. c #A7A7A7",
"W. c gray66",
"Q. c #A9A9A9",
"!. c #AAAAAA",
"~. c gray67",
"^. c #ACACAC",
"/. c gray68",
"(. c #AEAEAE",
"). c #AFAFAF",
"_. c gray69",
"`. c #B1B1B1",
"'. c #B2B2B2",
"]. c gray70",
"[. c #B4B4B4",
"{. c gray71",
"}. c #B6B6B6",
"|. c #B7B7B7",
" X c gray72",
".X c #B9B9B9",
"XX c gray73",
"oX c #BBBBBB",
"OX c #BCBCBC",
"+X c gray74",
"@X c gray",
"#X c gray75",
"$X c #C0C0C0",
"%X c #C1C1C1",
"&X c gray76",
"*X c #C3C3C3",
"=X c gray77",
"-X c #C5C5C5",
";X c #C6C6C6",
":X c gray78",
">X c #C8C8C8",
",X c gray79",
"<X c #CACACA",
"1X c #CBCBCB",
"2X c gray80",
"3X c #CDCDCD",
"4X c #CECECE",
"5X c gray81",
"6X c #D0D0D0",
"7X c gray82",
"8X c #D2D2D2",
"9X c LightGray",
"0X c gray83",
"qX c #D5D5D5",
"wX c gray84",
"eX c #D7D7D7",
"rX c #D8D8D8",
"tX c gray85",
"yX c #DADADA",
"uX c gray86",
"iX c gainsboro",
"pX c #DDDDDD",
"aX c gray87",
"sX c #DFDFDF",
"dX c gray88",
"fX c #E1E1E1",
"gX c #E2E2E2",
"hX c gray89",
"jX c #E4E4E4",
"kX c gray90",
"lX c #E6E6E6",
"zX c #E7E7E7",
"xX c gray91",
"cX c #E9E9E9",
"vX c #EAEAEA",
"bX c gray92",
"nX c #ECECEC",
"mX c gray93",
"MX c #EEEEEE",
"NX c #EFEFEF",
"BX c gray94",
"VX c #F1F1F1",
"CX c gray95",
"ZX c #F3F3F3",
"AX c #F4F4F4",
"SX c gray96",
"DX c #F6F6F6",
"FX c gray97",
"GX c #F8F8F8",
"HX c #F9F9F9",
"JX c gray98",
"KX c #FBFBFB",
"LX c gray99",
"PX c #FDFDFD",
"IX c #FEFEFE",
"UX c white",
/* pixels */
"OXOXOXOXOXOX+X$X%X#X{.P.z.e.e.k.J.`.OX%X%XOX'.L.x.y.y.x.L.'.OX#X@XOXOXOXOXOX+X#X%X#X{.I.c.u.y.x.L.'.OX#X@XOXOXOXOXOXOXOXOXOXOXOX",
"OXOXOXOXOXOXOX@X@XoX'.L.x.y.y.x.L.'.OX$X$XOX'.L.x.y.y.x.L.'.OX#X@XOXOXOXOXOXOX@X@XoX'.K.x.y.y.x.L.'.OX#X@XOXOXOXOXOXOXOXOXOXOXOX",
"OXOXOXOX+XOXoXXX X].~.H.v.f.g.N.Y.].OX$X$XOX'.L.x.y.y.x.L.'.OX#X@XOXOXOX+XOXoXXX X].Q.S.j.r.y.x.L.'.OX#X@X+XOXOXOXOXOXOXOXOXOXOX",
"OXOXOX+X@X+XXX[.^.T.J.Z.M.n.B.J.!.}.OX$X$XOX'.K.z.t.t.z.L.].+X$X#X+XOX+X@X+XXX[./.Y.D.c.i.q.t.x.P.].+X%X$X@X@X+X+XOXOXOXOXOXOXOX",
"OXOX+X@X#X@X X^.K.B.n.M.Z.J.Y.~.'. XOX#X#XOX'.K.l.r.r.z.L.[.@X$X#X+X+X@X#X@X X/.L.B.k.u.0.7.r.c.I.[.@X%X%X#X@X@X+XOXOXOXOXOXOXOX",
"OXOXOX+X@XoX].Y.N.h.g.b.H.~.].|.XXoXOX@X#XOX'.L.x.y.y.x.L.'.oX@X@XOXOX+X@XoX].T.V.h.t.9.6.8.y.v.P.'.oX@X+XOXOXOXOXOXOXOXOXOXOXOX",
"+XOXoXXX X].~.H.b.f.h.N.Y.].oX@X+XOXOX@X@XOX].Y.N.g.f.v.H.~.]. XXXoXoXXX X].~.K.m.f.y.e.e.y.f.m.K.~.'.[.].'.].}..XoXOX+X+XOXOXOX",
"#X@XXX[./.T.K.Z.m.b.N.J.~. X@X#X@X+XOX+X@XOX}.~.J.V.m.M.Z.H.Y.^.[.XXXX[.^.Y.H.Z.M.v.x.x.x.v.m.V.S.H.L.L.K.L.Y.~.].XX@X#X#X@X@X@X",
"%X@X X/.L.V.m.M.Z.H.Y.~.].XX+X@X+XOXOX+X+XOX.X].^.T.K.Z.m.b.N.K./.|.|./.K.N.b.m.Z.H.L.I.I.P.K.D.B.b.x.l.k.x.N.J.^. X@X$X$X#X#X#X",
"#XoX].Y.B.h.f.v.H.~.]. XXXoXOX+XOXOXOXOXOXOXoXXX X].~.H.b.f.h.B.R.].].R.B.h.f.b.H.~.'.{.{.'.~.K.m.f.y.e.e.y.g.V.T.].oX@X+XOXOXOX",
"{.'.Q.D.k.t.y.x.L.'.OX@X@XOXOXOXOXOXOXOXOXOXOX@X@XoX].Y.N.h.g.n.K.~.~.K.n.g.h.N.Y.].OX#X#XOX].T.V.g.y.e.e.y.f.m.K.~.'.[.].'.'.'.",
"I.K.S.c.u.9.e.x.I.{.#X&X$X+XOX+X+X@X@X@X@X@X@X#X$X@X X~.J.N.b.N.S.J.J.S.N.b.N.J.~. X@X&X&X@X X^.J.N.x.k.l.x.b.B.D.K.P.I.P.L.L.L.",
"c.x.j.i.0.6.e.x.I.{.#X&X$X+XOX+X+X@X#X#X#X#X#X#X#X@XXX].~.Y.H.A.N.m.m.N.A.H.Y.~.].XX@X$X$X@XXX].~.Y.L.K.L.L.H.S.V.m.v.c.x.x.x.x.",
"u.y.r.q.7.8.y.v.P.'.OX#X@XOXOXOXOXOXOXOXOXOXOXOXOXOXoXXX X].~.H.b.f.f.b.H.~.]. XXXoXOX+X+XOXoX.X}.].'.].[.'.~.K.m.f.y.r.t.y.y.y.",
"y.y.y.t.r.y.f.m.J.~.]. XXXoXoX.X}.].'.`.`.'.].}..XoX+X@X#XOX'.L.x.y.y.x.L.'.oX@X@XOXOXOXOXOXOXOXOXOXOX@X@XOX'.P.v.y.8.7.q.r.y.u.",
"x.x.x.x.c.v.m.B.A.J.Y.^.[.XXXX[.^.Y.L.J.J.L.Y.~.].XX@X&X*X$X{.P.l.e.e.l.L.[.@X$X#X+XOXOXOXOXOX+X@X@X#X%X*X$X{.I.x.e.6.0.i.j.x.c.",
"L.L.L.P.I.P.J.A.M.b.N.K./.|.|.(.L.N.x.k.k.x.N.J.^. X#X*X=X$X{.P.l.e.e.k.K.].+X$X#X+XOXOXOXOXOX+X+X@X#X%X&X$X{.I.x.e.9.u.c.S.K.I.",
"'.'.'.].[.'.~.J.b.f.h.B.R.].].E.C.h.y.w.w.y.g.V.T.].OX$X$XOX'.L.x.y.y.x.L.'.OX#X@XOXOXOXOXOXOXOXOXOX+X@X#XOX'.L.x.y.t.k.D.Q.'.{.",
"OXOXOX+X@XoX].Y.N.h.g.n.K.!.~.P.M.f.y.e.e.y.f.m.K.~.'.{.{.'.~.H.b.f.g.N.Y.].OX@X@XOXOXOXOXOXOXOX+XOXoXXX X].~.H.v.f.h.B.Y.].oX#X",
"#X#X#X$X$X@X X^.K.B.n.N.S.H.H.S.B.b.x.z.z.x.v.N.A.H.L.I.I.P.K.S.B.m.V.J.~.}.OX@X+XOXOXOXOXOXOX+X@X+XXX].~.Y.H.Z.M.m.V.L./. X@X%X",
"@X@X@X#X#X@XXX[./.R.K.S.N.b.b.M.A.H.L.P.P.L.H.A.N.b.x.x.x.v.m.V.D.K.T.^.]..XOX+X+XOXOXOXOXOX+X@X#X@X X~.J.N.b.m.Z.K.T./.[.XX@X#X",
"OXOXOX+X+XOXoXXX|.].!.H.b.f.f.b.J.~.'.{.{.'.~.K.m.f.y.e.e.y.f.m.K.~.]. XXXoXOXOXOXOXOXOXOXOXOX+X@XoX].Y.N.h.f.b.H.~.]. XXXoXOX+X",
"OXOXOXOXOXOXoXXX|.].~.H.b.f.h.N.Y.].OX#X#XOX].T.V.g.t.8.6.8.y.v.P.'.OX#X@X+XOXOXOXOXOX+X+XOXoXXX X].~.H.b.f.h.N.Y.].oX@X+XOXOXOX",
"OXOXOX+X+XOX.X[.(.E.P.S.M.b.N.J.~. X@X&X&X@X X/.K.N.j.y.8.6.e.x.I.{.$X&X%X#X@X@X@X@X@X#X#X@XXX].~.Y.H.C.m.b.N.J.^. X@X#X@X+XOXOX",
"OXOXOX+X@XOX}.^.L.C.M.B.A.J.Y.~.].XX@X$X$X@XXX[.^.Y.S.z.y.8.e.x.I.{.$X*X%X#X#X@X@X#X#X$X$X@X X~.J.N.b.m.C.H.Y.^.].XX+X@X+XOXOXOX",
"OXOXOX@X@XOX].Y.N.h.f.b.H.~.]. XXXoXOX+X+XOXoXXX X].Q.S.j.t.y.x.L.'.OX@X@XOXOXOXOXOXOX+X@XoX].Y.N.h.f.b.H.~.]. XXXoXOX+XOXOXOXOX",
"OXOX+X@X#XOX'.L.x.y.y.x.L.'.oX@X@XOXOXOXOXOXOX@X@XOX].Y.N.h.f.b.H.~.'.[.].'.'.'.'.'.'.].[.'.~.H.b.g.h.N.Y.].oX@X+XOXOXOXOXOXOXOX",
"@X@X@X$X%X+X].L.z.r.r.z.L.[.@X$X#X+XOXOXOXOX+X#X%X$XXX).P.Z.N.B.S.H.L.L.L.L.L.L.L.L.L.L.L.L.H.A.N.n.B.K.^. X@X#X@X+XOX+X+X@X@X@X",
"#X#X#X$X%X@X[.P.z.t.t.z.L.].+X$X#X+XOXOXOXOX+X@X$X$X+X|._.W.P.D.B.b.x.z.z.x.x.x.x.x.x.z.z.x.b.N.S.K.R./.[.XX+X@X+XOXOX+X@X@X#X#X",
"OXOXOX+X@XoX'.K.z.y.y.x.L.'.OX#X@XOXOXOXOXOXOXOXOXOXoXXX|.].~.K.m.f.y.r.t.y.y.y.y.y.y.t.r.y.f.m.J.~.].|.XXoXOX+XOXOXOXOXOXOXOXOX",
"'.'.'.[.[.'.Q.S.j.r.y.x.L.'.OX#X@X+XOX+X+XOXoX.X}.].'.].].'.~.K.m.f.y.r.t.y.y.y.y.y.y.t.r.y.f.m.K.~.].|.XXoXOX+X+XOXoX X}.].'.`.",
"L.L.L.P.P.L.S.c.i.q.t.x.P.].+X%X$X@X@X#X#X@XXX].~.Y.P.P.U.U.P.F.V.b.x.z.z.x.x.x.x.x.x.z.z.x.b.B.D.P.E.(.[..XOX@X#X@XXX'.!.Y.L.J.",
"x.x.x.x.c.x.j.i.0.7.r.c.I.[.@X%X%X#X#X$X$X@X X^.J.N.c.z.c.n.M.C.D.J.L.L.L.L.L.L.L.L.L.L.L.L.H.S.B.N.C.L.~.}.OX$X%X@X|.~.J.N.x.k.",
"y.y.y.y.y.y.r.q.7.8.y.v.P.'.oX@X+XOXOX+X@XoX].T.V.g.y.e.e.y.f.m.K.~.'.[.].'.'.'.'.'.'.].[.'.~.H.b.f.h.N.Y.].OX$X$XOX].Y.B.g.y.e.",
"y.y.y.y.y.y.y.t.r.y.f.m.K.~.'.[.].'.'.].[.'.~.K.m.f.t.9.6.8.y.v.P.'.OX@X@XOXOXOXOXOXOX+X@XoX'.L.x.y.u.x.L.'.oXOX.X].~.J.n.f.y.e.",
"x.x.x.x.x.x.x.x.c.v.m.C.F.K.P.I.P.L.L.L.L.L.H.S.B.v.j.u.0.7.r.c.U.}.$X*X%X#X#X@X@X#X#X%X%X@X[.L.z.r.r.x.P.].XX}.(.Y.H.Z.M.v.x.z.",
"L.L.L.L.L.L.L.P.I.P.K.F.C.m.v.c.x.x.x.z.z.x.b.B.D.H.S.v.p.q.t.c.U.}.$X&X%X#X@X@X@X@X@X$X%X+X].L.z.t.t.c.I.[.|.(.L.N.b.M.Z.H.L.P.",
"'.'.'.'.'.'.'.].[.'.~.K.m.f.y.r.t.y.y.t.r.y.f.N.P.~.Q.F.k.t.y.x.L.'.OX#X@X+XOXOXOXOX+X@X#XOX'.L.x.y.y.c.I.`.].R.V.h.g.n.J.~.'.{.",
"OXOXOXOXOXOXOX+X@XoX'.P.v.y.8.7.q.r.y.t.r.y.h.Z.W.].`.I.c.y.r.j.S.Q.]. XXXoXOX+X+XOX+X@X#XOX'.L.x.y.t.k.F.Q.~.L.m.g.h.B.T.].oX#X",
"#X#X#X#X#X#X#X%X%X@X[.I.c.r.7.0.i.j.z.z.z.x.N.L.).|.[.U.v.t.q.u.x.S.Y.^.[.XX@X#X#X@X@X$X%X+X].P.x.t.q.p.b.F.J.D.N.b.N.J.^. X@X%X",
"@X@X@X@X@X@X@X$X%X+X].P.x.t.q.i.c.S.K.P.L.L.Y./.}..X].I.c.r.7.9.y.j.N.K./. X@X$X$X#X#X%X%X@X[.I.c.r.8.q.p.l.n.V.S.J.Y.^.[.XX@X$X",
"OXOXOXOXOXOX+X@X#XOX'.L.x.y.r.j.S.Q.'.[.].'.[. XoXoX].I.b.y.8.6.8.t.g.V.T.].oX@X+XOXOX+X@XoX'.P.v.y.8.6.9.r.f.m.K.~.]. XXXoXOX+X",
"OXOXOXOXOXOX+X@X#XOX'.L.x.y.y.z.K.'.oX@X@XOXOX+X@XOX[.T.B.g.y.w.e.y.f.m.K.~.'.[.].'.'.].[.'.~.K.m.f.r.9.6.8.y.v.P.'.oX@X@XOXOXOX",
"@X@X@X@X@X@X@X$X%X+X].L.z.t.t.z.P.[.@X%X%X#X@X#X#XOX}.~.K.B.v.x.x.v.n.B.S.H.L.L.L.L.L.L.L.L.J.D.C.m.l.p.q.8.r.c.I.[.@X$X#X+XOXOX",
"#X#X#X#X#X#X#X%X%X@X[.L.z.r.r.z.L.].@X%X$X@X@X@X@XOX X'.~.T.I.I.I.I.K.D.B.b.x.z.z.x.x.z.z.x.b.V.F.J.F.b.p.q.t.x.P.].+X$X#X+XOXOX",
"OXOXOXOXOXOXOX+X@XoX'.L.x.y.y.x.L.'.OX#X@X+XOXOXOXOXoX X}.[.'.].].`.~.K.m.f.y.r.t.y.y.t.r.y.f.N.P.~.Q.F.k.t.y.x.L.'.OX#X@XOXOXOX",
"'.'.'.'.'.'.'.].[.'.~.H.b.f.h.N.Y.].OX@X@XOXOXOXOXOXOXOXOXOXoX.X|.].~.K.m.f.y.r.t.y.y.r.r.y.h.Z.W.].`.I.c.y.y.x.L.'.OX#X@X+XOXOX",
"L.L.L.L.L.L.L.L.L.L.H.S.B.N.C.L.^.}.OX@X+XOXOXOXOXOXOX@X#X@XoX}.).W.P.D.B.b.x.z.z.x.x.l.l.x.N.L.).|.[.I.c.t.t.z.L.].+X%X$X@X@X@X",
"x.x.x.x.x.x.x.z.z.x.b.B.D.P.E.(.[..XOX+X+XOXOXOXOXOXOX@X#X+X X/.L.C.N.B.S.H.L.L.L.L.L.K.K.L.Y./.}..X].P.x.r.r.z.L.[.@X%X%X#X#X#X",
"y.y.y.y.y.y.y.t.r.y.f.m.K.~.].|.XXoXOXOXOXOXOXOXOXOXOX@X@XOX[.Y.N.h.f.b.H.~.'.[.].'.'.'.'.'.[. XoXoX'.L.x.u.y.x.L.'.oX@X+XOXOXOX",
"y.y.y.y.y.y.y.t.r.y.f.m.J.~.].|.XXoXOX+X+XOXOXOXOXOX+X@X#XOX'.L.x.y.y.x.L.'.oX@X+XOXOXOXOXOXOX@X@XOX[.Y.N.h.f.b.H.~.'.[.].'.'.'.",
"x.x.x.x.x.x.x.z.z.x.b.N.S.K.R./.[.XX@X#X#X@X@X@X@X@X@X#X#XOX'.K.l.r.r.z.L.[.@X%X%X#X#X#X#X#X#X$X$X@X X/.L.C.N.B.S.H.L.L.L.L.L.L.",
"L.L.L.L.L.L.L.L.L.L.H.A.N.n.B.K.^. X@X$X$X#X#X#X#X#X#X$X$XOX'.K.l.r.t.z.L.].+X%X$X@X@X@X@X@X@X#X#X@XoX}.).W.P.D.B.b.x.z.z.x.x.x.",
"'.'.'.'.'.'.'.].[.'.~.H.b.g.h.N.Y.].oX@X+XOXOXOXOXOXOX@X@XOX'.L.x.y.y.x.L.'.OX#X@X+XOXOXOXOXOXOXOXOXoX.X|.].~.K.m.f.y.r.t.y.y.y.",
"OXOXOXOXOXOXOX+X@XoX].Y.N.h.g.b.H.~.'.[.].'.'.'.'.'.[. XoXoX'.L.x.y.y.x.L.'.OX#X@X+XOX+X+XOXoX.X}.].'.].].`.~.K.m.f.y.r.t.y.y.y.",
"#X#X#X#X#X#X#X$X$X@X X^.K.B.n.N.A.H.L.L.L.L.L.K.K.L.Y./.}..X].P.x.t.t.z.L.].+X%X$X@X@X#X#X@XXX].~.Y.L.L.P.I.K.D.B.b.x.z.z.x.x.x.",
"@X@X@X@X@X@X@X#X#X@XXX[./.R.K.S.N.b.x.z.z.x.x.l.l.x.N.L.).|.[.I.x.r.r.z.L.[.@X%X%X#X#X$X$X@X X^.J.N.x.l.z.c.n.B.S.H.L.L.L.L.L.L.",
"OXOXOXOXOXOXOX+X+XOXoXXX|.].~.J.m.f.y.r.t.y.y.r.r.y.h.C.W.].`.I.v.u.y.x.L.'.oX@X+XOXOX+X@XoX].T.V.g.y.e.e.y.f.m.K.~.'.[.].'.'.'.",
"OXOXOXOXOXOXOXOXOXOXoXXX|.].~.K.m.f.u.t.t.y.y.t.t.u.g.N.P.~.~.K.m.f.f.b.J.~.'.[.].'.'.].[.'.~.K.m.f.y.e.e.y.h.V.T.].oX@X+XOXOXOX",
"OXOXOXOXOXOXOX+X+XOX.X]./.R.L.D.B.n.c.x.x.c.c.c.x.c.n.V.D.J.J.F.C.M.M.V.D.J.L.P.P.P.P.P.P.L.J.S.B.n.c.z.z.c.B.K.^. X@X$X$X#X@X@X",
"OXOXOXOXOXOXOX+X@XOX}.~.K.V.M.B.S.J.P.P.P.P.P.P.P.P.J.S.B.n.n.V.F.L.L.G.C.n.v.c.c.c.c.c.c.v.n.V.D.J.L.P.L.P.T.~.].XX@X#X#X@X@X@X",
"OXOXOXOXOXOXOX@X@XOX].Y.N.h.f.b.H.~.'.[.].'.'.].[.'.~.H.b.f.f.m.L.~.~.P.M.f.y.r.r.y.y.r.r.y.f.m.K.~.'.].].'.].}..XoXOX+X+XOXOXOX",
"OXOXOXOXOXOXOX@X#XOX'.L.x.y.y.x.L.'.oX@X+XOXOX+X@XoX'.L.x.y.u.v.I.`.'.Y.n.y.7.4.5.6.6.5.4.7.y.v.I.'.oX@X+XOXOXOXOXOXOXOXOXOXOXOX",
"OXOXOXOXOXOXOX@X#XOX`.J.k.e.e.z.P.{.$X*X&X$X$X&X*X$X{.P.l.e.r.c.U.[.{.R.b.e.2.,.<.2.2.<.,.2.e.c.U.{.$X*X&X$X#X#X+X+XOXOXOXOXOXOX"
};
