/* XPM */
static char *result[] = {
/* columns rows colors chars-per-pixel */
"64 64 256 2 ",
"   c black",
".  c #010101",
"X  c #020202",
"o  c gray1",
"O  c #040404",
"+  c gray2",
"@  c #060606",
"#  c #070707",
"$  c gray3",
"%  c #090909",
"&  c gray4",
"*  c #0B0B0B",
"=  c #0C0C0C",
"-  c gray5",
";  c #0E0E0E",
":  c gray6",
">  c #101010",
",  c #111111",
"<  c gray7",
"1  c #131313",
"2  c gray8",
"3  c #151515",
"4  c #161616",
"5  c gray9",
"6  c #181818",
"7  c #191919",
"8  c gray10",
"9  c #1B1B1B",
"0  c gray11",
"q  c #1D1D1D",
"w  c #1E1E1E",
"e  c gray12",
"r  c #202020",
"t  c gray13",
"y  c #222222",
"u  c #232323",
"i  c gray14",
"p  c #252525",
"a  c gray15",
"s  c #272727",
"d  c #282828",
"f  c gray16",
"g  c #2A2A2A",
"h  c gray17",
"j  c #2C2C2C",
"k  c #2D2D2D",
"l  c gray18",
"z  c #2F2F2F",
"x  c gray19",
"c  c #313131",
"v  c #323232",
"b  c gray20",
"n  c #343434",
"m  c #353535",
"M  c gray21",
"N  c #373737",
"B  c gray22",
"V  c #393939",
"C  c #3A3A3A",
"Z  c gray23",
"A  c #3C3C3C",
"S  c gray24",
"D  c #3E3E3E",
"F  c #3F3F3F",
"G  c gray25",
"H  c #414141",
"J  c gray26",
"K  c #434343",
"L  c #444444",
"P  c gray27",
"I  c #464646",
"U  c gray28",
"Y  c #484848",
"T  c #494949",
"R  c gray29",
"E  c #4B4B4B",
"W  c #4C4C4C",
"Q  c gray30",
"!  c #4E4E4E",
"~  c gray31",
"^  c #505050",
"/  c #515151",
"(  c gray32",
")  c #535353",
"_  c gray33",
"`  c #555555",
"'  c #565656",
"]  c gray34",
"[  c #585858",
"{  c gray35",
"}  c #5A5A5A",
"|  c #5B5B5B",
" . c gray36",
".. c #5D5D5D",
"X. c gray37",
"o. c #5F5F5F",
"O. c #606060",
"+. c gray38",
"@. c #626262",
"#. c gray39",
"$. c #646464",
"%. c #656565",
"&. c gray40",
"*. c #676767",
"=. c #686868",
"-. c DimGray",
";. c #6A6A6A",
":. c gray42",
">. c #6C6C6C",
",. c #6D6D6D",
"<. c gray43",
"1. c #6F6F6F",
"2. c gray44",
"3. c #717171",
"4. c #727272",
"5. c gray45",
"6. c #747474",
"7. c gray46",
"8. c #767676",
"9. c #777777",
"0. c gray47",
"q. c #797979",
"w. c gray48",
"e. c #7B7B7B",
"r. c #7C7C7C",
"t. c gray49",
"y. c #7E7E7E",
"u. c gray50",
"i. c #808080",
"p. c #818181",
"a. c gray51",
"s. c #838383",
"d. c #848484",
"f. c gray52",
"g. c #868686",
"h. c gray53",
"j. c #888888",
"k. c #898989",
"l. c gray54",
"z. c #8B8B8B",
"x. c gray55",
"c. c #8D8D8D",
"v. c #8E8E8E",
"b. c gray56",
"n. c #909090",
"m. c gray57",
"M. c #929292",
"N. c #939393",
"B. c gray58",
"V. c #959595",
"C. c gray59",
"Z. c #979797",
"A. c #989898",
"S. c gray60",
"D. c #9A9A9A",
"F. c #9B9B9B",
"G. c gray61",
"H. c #9D9D9D",
"J. c gray62",
"K. c #9F9F9F",
"L. c #A0A0A0",
"P. c gray63",
"I. c #A2A2A2",
"U. c gray64",
"Y. c #A4A4A4",
"T. c #A5A5A5",
"R. c gray65",
"E. c #A7A7A7",
"W. c gray66",
"Q. c #A9A9A9",
"!. c #AAAAAA",
"~. c gray67",
"^. c #ACACAC",
"/. c gray68",
"(. c #AEAEAE",
"). c #AFAFAF",
"_. c gray69",
"`. c #B1B1B1",
"'. c #B2B2B2",
"]. c gray70",
"[. c #B4B4B4",
"{. c gray71",
"}. c #B6B6B6",
"|. c #B7B7B7",
" X c gray72",
".X c #B9B9B9",
"XX c gray73",
"oX c #BBBBBB",
"OX c #BCBCBC",
"+X c gray74",
"@X c gray",
"#X c gray75",
"$X c #C0C0C0",
"%X c #C1C1C1",
"&X c gray76",
"*X c #C3C3C3",
"=X c gray77",
"-X c #C5C5C5",
";X c #C6C6C6",
":X c gray78",
">X c #C8C8C8",
",X c gray79",
"<X c #CACACA",
"1X c #CBCBCB",
"2X c gray80",
"3X c #CDCDCD",
"4X c #CECECE",
"5X c gray81",
"6X c #D0D0D0",
"7X c gray82",
"8X c #D2D2D2",
"9X c LightGray",
"0X c gray83",
"qX c #D5D5D5",
"wX c gray84",
"eX c #D7D7D7",
"rX c #D8D8D8",
"tX c gray85",
"yX c #DADADA",
"uX c gray86",
"iX c gainsboro",
"pX c #DDDDDD",
"aX c gray87",
"sX c #DFDFDF",
"dX c gray88",
"fX c #E1E1E1",
"gX c #E2E2E2",
"hX c gray89",
"jX c #E4E4E4",
"kX c gray90",
"lX c #E6E6E6",
"zX c #E7E7E7",
"xX c gray91",
"cX c #E9E9E9",
"vX c #EAEAEA",
"bX c gray92",
"nX c #ECECEC",
"mX c gray93",
"MX c #EEEEEE",
"NX c #EFEFEF",
"BX c gray94",
"VX c #F1F1F1",
"CX c gray95",
"ZX c #F3F3F3",
"AX c #F4F4F4",
"SX c gray96",
"DX c #F6F6F6",
"FX c gray97",
"GX c #F8F8F8",
"HX c #F9F9F9",
"JX c gray98",
"KX c #FBFBFB",
"LX c gray99",
"PX c #FDFDFD",
"IX c #FEFEFE",
"UX c white",
/* pixels */
"                                                                                                                                ",
". . . . . . .           . . . . . . . . . . . . . . . . . . . . . . . . . . . . . . . . . . . . . . . .           . . . . . . . ",
"9 8 7 5 3 < ; % + X O % > 4 8 9 8 8 7 7 7 7 7 7 7 7 7 7 7 7 7 7 7 7 7 7 7 7 7 7 7 7 7 7 7 7 8 8 9 8 4 > % O X + % ; < 3 5 7 8 9 ",
"T U L F B x a 7 - @ % 6 g Z L I P K J J J J J J J J J J J J J J J J J J J J J J J J J J J J K P I L Z g 6 % @ - 7 a x B F L U T ",
"t.w.7.>.O.( H h 4 * > f T &.8.w.0.7.6.6.6.6.6.6.6.6.6.6.6.6.6.6.6.6.6.6.6.6.6.6.6.6.6.6.6.6.7.0.w.8.&.T f > * 4 h H ( O.>.7.w.t.",
"Y.P.S.v.y.:.' V q ; 4 B $.z.P.E.R.U.I.I.I.I.I.I.I.I.I.I.I.I.I.I.I.I.I.I.I.I.I.I.I.I.I.I.I.I.U.R.E.P.z.$.B 4 ; q V ' :.y.v.S.P.Y.",
"Y.L.S.v.y.:.` B 0 ; 6 S <.S.'.OX+XoXoXOXOXoXoXoXoXoXoXoXoXoXoXoXoXoXoXoXoXoXoXoXoXoXoXOXOXoXoX+XOX'.S.<.S 6 ; 0 B ` :.y.v.S.L.Y.",
"e.q.5.;.o./ G f 2 * 5 Z ;.B.(.oX$X&X=X-X-X-X-X-X-X-X-X-X-X-X-X-X-X-X-X-X-X-X-X-X-X-X-X-X-X=X&X$XoX(.B.;.Z 5 * 2 f G / o.;.5.q.e.",
"P K G Z m k u 3 % @ 2 m ..s.H./.|.@X*X-X-X=X*X*X*X*X*X*X*X*X*X*X*X*X*X*X*X*X*X*X*X*X=X-X-X*X@X|./.H.s...m 2 @ % 3 u k m Z G K P ",
"0 9 8 6 3 < ; # . o , j Q ,.g.S.Q.{.OX#X@X+XOXOXOXOXOXOXOXOXOXOXOXOXOXOXOXOXOXOXOXOX+X@X#XOX{.Q.S.g.,.Q j , o . # ; < 3 6 8 9 0 ",
"9 9 7 5 3 < ; # X o - y S [ 1.f.S.Q.'.}.{.].].].].].].].].].].].].].].].].].].].].].].{.}.'.Q.S.f.1.[ S y - o X # ; < 3 5 7 9 9 ",
"J G S B v g t 4 * + % 4 f D ) >.d.A.Y.W.E.T.T.T.T.T.T.T.T.T.T.T.T.T.T.T.T.T.T.T.T.T.T.E.W.Y.A.d.>.) D f 4 % + * 4 t g v B S G J ",
"9.6.1.&.| Q S g 5 & + & 2 u N / ,.d.M.C.V.N.M.M.M.M.M.M.M.M.M.M.M.M.M.M.M.M.M.M.M.M.N.V.C.M.d.,./ N u 2 & + & 5 g S Q | &.1.6.9.",
"T.P.D.v.u.>.] S y - X   o - w B ` <.t.p.i.y.t.t.t.t.t.t.t.t.t.t.t.t.t.t.t.t.t.t.t.t.y.i.p.t.<.` B w - o   X - y S ] >.u.v.D.P.T.",
"[.`.Q.J.b.e.$.U f :         - i F ' #.*.*.$.$.$.$.$.$.$.$.$.$.$.$.$.$.$.$.$.$.$.$.$.$.*.*.#.' F i -         : f U $.e.b.J.Q.`.[.",
"Q.R.P.S.v.y.=.E h >         . < a B J P L J J J J J J J J J J J J J J J J J J J J J J L P J B a < .         > h E =.y.v.S.P.R.Q.",
"M.m.v.z.f.w.*.E h >           @ < 0 y u u y y y y y y y y y y y y y y y y y y y y y y u u y 0 < @           > h E *.w.f.z.v.m.M.",
"i.u.y.y.r.7.%.T g > .       o @ * ; > , , > > > > > > > > > > > > > > > > > > > > > > , , > ; * @ o       . > g T %.7.r.y.y.u.i.",
"u.y.y.y.r.7.$.Y f > O + - 4 8 9 9 8 8 8 8 8 8 8 8 8 8 8 8 8 8 8 8 8 8 8 8 8 8 8 8 8 8 8 8 8 8 9 9 8 4 - + O > f Y $.7.r.y.y.y.u.",
"b.v.z.j.a.9.$.U s > & 4 g S I U P J H H H H H H H H H H H H H H H H H H H H H H H H H H H H J P U I S g 4 & > s U $.9.a.j.z.v.b.",
"T.I.H.V.l.w.$.P p > , f R -.0.r.q.7.6.6.6.6.6.6.6.6.6.6.6.6.6.6.6.6.6.6.6.6.6.6.6.6.6.6.6.6.7.q.r.0.-.R f , > p P $.w.l.V.H.I.T.",
"{.`.!.K.n.r.$.K u > 4 N $.x.P.W.R.U.I.I.I.I.I.I.I.I.I.I.I.I.I.I.I.I.I.I.I.I.I.I.I.I.I.I.I.I.U.R.W.P.x.$.N 4 > u K $.r.n.K.!.`.{.",
"{.`.!.K.n.r.$.K u > 7 S ,.S.'.OX+XoXoXOXOXoXoXoXoXoXoXoXoXoXoXoXoXoXoXoXoXoXoXoXoXoXoXOXOXoXoX+XOX'.S.,.S 7 > u K $.r.n.K.!.'.}.",
"T.I.H.C.x.r.&.P i , 6 C -.B.(.oX$X&X=X-X-X-X-X-X-X-X-X-X-X-X-X-X-X-X-X-X-X-X-X-X-X-X-X-X-X=X&X$XoX(.B.-.C 6 > u K $.w.x.A.P.E.!.",
"b.v.z.k.d.w.*.U a , 3 v | s.H./.|.@X*X-X-X=X*X*X*X*X*X*X*X*X*X*X*X*X*X*X*X*X*X*X*X*X=X-X-X*X@X|./.H.s.| v 3 > i L $.0.d.x.n.B.C.",
"u.y.t.t.r.6.#.P a > , d E ,.g.S.Q.{.OX#X@X+XOXOXOXOXOXOXOXOXOXOXOXOXOXOXOXOXOXOXOXOX+X@X#XOX{.Q.S.g.,.E d , > a I $.7.r.t.t.t.y.",
"i.y.e.0.3.*.' A r ; ; e C ] 1.f.S.Q.'.}.{.].].].].].].].].].].].].].].].].].].].].].].{.}.'.Q.S.f.1.] C e ; > s U $.3.4.,.*.$.#.",
"M.c.d.8.$.^ S d 3 & & 3 d D ) >.d.A.Y.W.E.T.T.T.T.T.T.T.T.T.T.T.T.T.T.T.T.T.T.T.T.T.T.E.W.Y.A.d.>.) S s 1 & > f T $.,.&.[ E L H ",
"Q.I.M.9.] N y 1 % + + * 3 u N / ,.d.M.C.V.N.M.M.M.M.M.M.M.M.M.M.M.M.M.M.M.M.M.M.M.M.N.V.C.M.d.,./ N u 1 $ @ > h E $.=.} L x p r ",
"oX`.G.q.~ s : O . X X X + ; w B ` <.t.p.i.y.t.t.t.t.t.t.t.t.t.t.t.t.t.t.t.t.t.t.t.t.y.i.p.t.<.` B w - o   X > k Q $.&.( M w , & ",
"oX`.H.q.~ s : + X .         - i F ' #.*.*.$.$.$.$.$.$.$.$.$.$.$.$.$.$.$.$.$.$.$.$.$.$.*.*.#.' F i -         > k Q $.&.( N e , * ",
"(.R.C.e.{ B y 2 * +         . < a B J P L J J J J J J J J J J J J J J J J J J J J J J L P J B a < .         > k W $.-.| U n g p ",
"S.B.l.e.*./ S g 6 %           @ < 0 y u u y y y y y y y y y y y y y y y y y y y y y y u u y 0 < @           > j E $.<.=. ./ E Y ",
"u.t.w.9.3.*.] D i - .       o @ * ; > , , > > > > > > > > > > > > > > > > > > > > > > , , > ; * @ o       . > h R $.3.4.>.&.#.@.",
"#.$.*.,.4.3.$.T g > O + - 4 8 9 9 8 8 8 8 8 8 8 8 8 8 8 8 8 8 8 8 8 8 8 8 8 8 8 8 8 8 8 8 8 8 9 9 8 4 - + O > g T $.3.4.>.&.#.@.",
"H L W { =.2.*.W h , & 4 g S I U P J H H H H H H H H H H H H H H H H H H H H H H H H H H H H J P U I S g 4 & > f T $.<.=. ./ E Y ",
"r p x P  .:.&.E f , , f R -.0.r.q.7.6.6.6.6.6.6.6.6.6.6.6.6.6.6.6.6.6.6.6.6.6.6.6.6.6.6.6.6.7.q.r.0.-.R f , , d T #.-.| U n g p ",
"& , w M ( &.$.T d , 4 N $.x.P.W.R.U.I.I.I.I.I.I.I.I.I.I.I.I.I.I.I.I.I.I.I.I.I.I.I.I.I.I.I.I.U.R.W.P.x.$.N 4 , s T #.&.( N e , * ",
"& , w M ( &.#.Y s , 7 S ,.S.'.OX+XoXoXOXOXoXoXoXoXoXoXoXoXoXoXoXoXoXoXoXoXoXoXoXoXoXoXOXOXoXoX+XOX'.S.,.S 7 , s Y #.&.( M w , & ",
"r p x L } =.#.Y s , 6 C -.B.(.oX$X&X=X-X-X-X-X-X-X-X-X-X-X-X-X-X-X-X-X-X-X-X-X-X-X-X-X-X-X=X&X$XoX(.B.-.C 6 , s Y #.=.} L x p r ",
"H L E [ &.,.#.U a , 3 v | s.H./.|.@X*X-X-X=X*X*X*X*X*X*X*X*X*X*X*X*X*X*X*X*X*X*X*X*X=X-X-X*X@X|./.H.s.| v 3 , a U #.,.&.[ E L H ",
"#.$.*.,.4.3.$.U a > , d E ,.g.S.Q.{.OX#X@X+XOXOXOXOXOXOXOXOXOXOXOXOXOXOXOXOXOXOXOXOX+X@X#XOX{.Q.S.g.,.E d , > a U $.3.4.,.*.$.#.",
"y.y.t.y.r.7.$.U s > ; e C ] 1.f.S.Q.'.}.{.].].].].].].].].].].].].].].].].].].].].].].{.}.'.Q.S.f.1.] C e ; > s U $.7.r.y.t.y.y.",
"S.Z.B.b.j.e.*.Y d > & 1 s S ) >.d.A.Y.W.E.T.T.T.T.T.T.T.T.T.T.T.T.T.T.T.T.T.T.T.T.T.T.E.W.Y.A.d.>.) S s 1 & > d Y *.e.j.b.B.Z.S.",
"(.~.T.G.n.u.=.T f > @ $ 1 u N / ,.d.M.C.V.N.M.M.M.M.M.M.M.M.M.M.M.M.M.M.M.M.M.M.M.M.N.V.C.M.d.,./ N u 1 $ @ > f T =.u.n.G.T.~.(.",
"{.`.!.K.b.e.$.U d : X   o - w B ` <.t.p.i.y.t.t.t.t.t.t.t.t.t.t.t.t.t.t.t.t.t.t.t.t.y.i.p.t.<.` B w - o   X : d U $.e.b.K.!.`.{.",
"T.P.D.v.u.>.] S u -         - i F ' #.*.*.$.$.$.$.$.$.$.$.$.$.$.$.$.$.$.$.$.$.$.$.$.$.*.*.#.' F i -         - u S ] >.u.v.D.P.T.",
"9.6.1.&.| Q S h 7 %         . < a B J P L J J J J J J J J J J J J J J J J J J J J J J L P J B a < .         % 7 h S Q | &.1.6.9.",
"J G S B v g t 6 ; +           @ < 0 y u u y y y y y y y y y y y y y y y y y y y y y y u u y 0 < @           + ; 6 t g v B S G J ",
"9 9 7 5 3 < ; & @ X         o @ * ; > , , > > > > > > > > > > > > > > > > > > > > > > , , > ; * @ o         X @ & ; < 3 5 7 9 9 ",
"9 9 7 5 3 < ; % + X O % > 4 8 9 9 8 8 8 8 8 8 8 8 8 8 8 8 8 8 8 8 8 8 8 8 8 8 8 8 8 8 8 8 8 8 9 9 8 4 > % O X + % ; < 3 5 7 9 9 ",
"J G S B v g t 4 * + & 7 j S I U P J H H H H H H H H H H H H H H H H H H H H H H H H H H H H J P U I S j 7 & + * 4 t g v B S G J ",
"9.6.1.&.| Q S d 2 & , g E -.0.r.q.7.6.6.6.6.6.6.6.6.6.6.6.6.6.6.6.6.6.6.6.6.6.6.6.6.6.6.6.6.7.q.r.0.-.E g , & 2 d S Q | &.1.6.9.",
"T.P.D.v.u.>.' V q ; 4 B $.x.P.W.R.U.I.I.I.I.I.I.I.I.I.I.I.I.I.I.I.I.I.I.I.I.I.I.I.I.I.I.I.I.U.R.W.P.x.$.B 4 ; q V ' >.u.v.D.P.T.",
"{.`.!.K.n.r.$.K u > 7 S ,.S.'.OX+XoXoXOXOXoXoXoXoXoXoXoXoXoXoXoXoXoXoXoXoXoXoXoXoXoXoXOXOXoXoX+XOX'.S.,.S 7 > u K $.r.n.K.!.`.{.",
"(.~.T.H.M.p.;.Y a , 6 C =.B.(.oX$X&X=X-X-X-X-X-X-X-X-X-X-X-X-X-X-X-X-X-X-X-X-X-X-X-X-X-X-X=X&X$XoX(.B.=.C 6 , a Y ;.p.M.H.T.~.(.",
"S.Z.B.m.l.y.;.T s , 3 v | s.H./.|.@X*X-X-X=X*X*X*X*X*X*X*X*X*X*X*X*X*X*X*X*X*X*X*X*X=X-X-X*X@X|./.H.s.| v 3 , s T ;.y.l.m.B.Z.S.",
"y.y.t.t.r.7.$.I a > , d E ,.g.S.Q.{.OX#X@X+XOXOXOXOXOXOXOXOXOXOXOXOXOXOXOXOXOXOXOXOX+X@X#XOX{.Q.S.g.,.E d , > a I $.7.r.t.t.y.y.",
"$.$.%.*.=.#.' S t ; ; e C ] <.d.A.W.'.{.[.'.'.'.'.'.'.'.'.'.'.'.'.'.'.'.'.'.'.'.'.'.'.[.{.'.W.A.d.<.] C e ; ; t S ' #.=.*.%.$.$.",
"P P I Y T U D j 6 & % 2 s A / -.p.B.L.Y.U.P.L.L.L.L.L.L.L.L.L.L.L.L.L.L.L.L.L.L.L.L.P.U.Y.L.B.p.-./ A s 2 % & 6 j D U T Y I P P ",
"s s d f g f u 7 ; @ + & 2 y m ! -.i.c.m.n.v.c.c.c.c.c.c.c.c.c.c.c.c.c.c.c.c.c.c.c.c.v.n.m.c.i.-.! m y 2 & + @ ; 7 u f g f d s s ",
": : > > > > ; & + X X X + ; w B ' 1.t.a.p.y.y.y.y.y.y.y.y.y.y.y.y.y.y.y.y.y.y.y.y.y.y.p.a.t.1.' B w ; + X X X + & ; > > > > : : ",
". . . . . . .             . > h R %.6.q.9.7.6.6.6.6.6.6.6.6.6.6.6.6.6.6.6.6.6.6.6.6.7.9.q.6.%.R h > .             . . . . . . . ",
"                            & p L O.1.6.5.3.2.2.2.2.2.2.2.2.2.2.2.2.2.2.2.2.2.2.2.2.3.5.6.1.O.L p &                             "
};
