/* XPM */
static char *result[] = {
/* columns rows colors chars-per-pixel */
"64 72 253 2 ",
"   c #1D1E1D",
".  c #1A1B16",
"X  c #361917",
"o  c #2A1B1A",
"O  c #1B211C",
"+  c #162118",
"@  c #291E2A",
"#  c #1E2021",
"$  c #17203F",
"%  c #2F3237",
"&  c #211F30",
"*  c #680807",
"=  c #7D0000",
"-  c #700F0D",
";  c #77191A",
":  c #5D1D25",
">  c #00005A",
",  c #020565",
"<  c #020A77",
"1  c #01167C",
"2  c #1B1C7C",
"3  c #0F0F76",
"4  c #2C0577",
"5  c #322B79",
"6  c #1E2957",
"7  c #541954",
"8  c #451B46",
"9  c #4B3370",
"0  c #661D58",
"q  c #3E4245",
"w  c #394564",
"e  c #4A4E4E",
"r  c #534D73",
"t  c #75526D",
"y  c #746F73",
"u  c #3F413E",
"i  c #810101",
"p  c #860609",
"a  c #861919",
"s  c #921817",
"d  c #8C110C",
"f  c #A41A17",
"g  c #95002A",
"h  c #960029",
"j  c #9E003B",
"k  c #960132",
"l  c #871928",
"z  c #A1003E",
"x  c #87242A",
"c  c #932F31",
"v  c #A82B2B",
"b  c #CA2B2C",
"n  c #EB312A",
"m  c #CB231E",
"M  c #A10141",
"N  c #A5154F",
"B  c #B2046B",
"V  c #9B305B",
"C  c #E62C51",
"Z  c #97655C",
"A  c #91576A",
"S  c #A95076",
"D  c #946776",
"F  c #8D6368",
"G  c #AC7570",
"H  c #A55852",
"J  c #E74D4B",
"K  c #C86B4F",
"L  c #D0577B",
"P  c #D06D75",
"I  c #DB4C56",
"U  c #B68577",
"Y  c #CC875D",
"T  c #CB8963",
"R  c #D29470",
"E  c #DDA57D",
"W  c #E6AB7C",
"Q  c #E8B07F",
"!  c #E39C76",
"~  c #030386",
"^  c #011A85",
"/  c #051C94",
"(  c #0B0E8C",
")  c #300D8C",
"_  c #02259B",
"`  c #18219C",
"'  c #07228B",
"]  c #273495",
"[  c #2D2E8D",
"{  c #0117AD",
"}  c #291CA3",
"|  c #3918A9",
" . c #3619B1",
".. c #0126A7",
"X. c #022BB7",
"o. c #0534B7",
"O. c #1B3CBC",
"+. c #192AA4",
"@. c #2A2BB2",
"#. c #421BAE",
"$. c #5319B5",
"%. c #5317B6",
"&. c #461BB3",
"*. c #7109B1",
"=. c #5624A1",
"-. c #3A468E",
";. c #1742BE",
":. c #1B41BF",
">. c #2947B7",
",. c #2E46AC",
"<. c #4F4F8D",
"1. c #696A88",
"2. c #6F6E93",
"3. c #4F53AB",
"4. c #6C71AC",
"5. c #6C5694",
"6. c #012BC9",
"7. c #0131CC",
"8. c #0436C8",
"9. c #0033D6",
"0. c #0034DA",
"q. c #063BD9",
"w. c #183AC4",
"e. c #293DC3",
"r. c #342ED8",
"t. c #003BE2",
"y. c #0039E5",
"u. c #3C28E2",
"i. c #3A3AF1",
"p. c #2F1DC1",
"a. c #7313C2",
"s. c #4735CB",
"d. c #5531CF",
"f. c #533DCE",
"g. c #5731D1",
"h. c #4B32D0",
"j. c #702ACD",
"k. c #4B34EC",
"l. c #6D27F3",
"z. c #1D43C3",
"x. c #0944DD",
"c. c #1A4ADA",
"v. c #1B53D8",
"b. c #2555DA",
"n. c #2D4FCA",
"m. c #3567DA",
"M. c #2C64DC",
"N. c #0347E7",
"B. c #0853E7",
"V. c #004DF2",
"C. c #0153F5",
"Z. c #0A5AF3",
"A. c #0054F9",
"S. c #0759F4",
"D. c #1653E5",
"F. c #334FF0",
"G. c #1D63E7",
"H. c #0964F5",
"J. c #1971EF",
"K. c #2566E8",
"L. c #257DEB",
"P. c #2C73ED",
"I. c #4E52D0",
"U. c #6F47D2",
"Y. c #526BCE",
"T. c #6870CC",
"R. c #5559EB",
"E. c #6464E1",
"W. c #7171E3",
"Q. c #5769EA",
"!. c #8F108F",
"~. c #A112B1",
"^. c #C90194",
"/. c #CB008F",
"(. c #D925AF",
"). c #997B94",
"_. c #92748D",
"`. c #9F65A3",
"'. c #D96989",
"]. c #9A0DD4",
"[. c #8D10CD",
"{. c #8327D9",
"}. c #9819E5",
"|. c #B112EA",
" X c #AD27E4",
".X c #C808C9",
"XX c #D103D7",
"oX c #E803CA",
"OX c #C807E7",
"+X c #CB0EF1",
"@X c #C40CF7",
"#X c #C612FB",
"$X c #D70CF2",
"%X c magenta",
"&X c #EA18EE",
"*X c #F826F7",
"=X c #CA31D6",
"-X c #BB7AD4",
";X c #8F57DF",
":X c #E34AE6",
">X c #7E88A5",
",X c #2A84EA",
"<X c #318AE8",
"1X c #1F82EA",
"2X c #5281DF",
"3X c #728BD0",
"4X c #6682E3",
"5X c #81869B",
"6X c #998796",
"7X c #B48F92",
"8X c #8889A5",
"9X c #9999B8",
"0X c #928CAE",
"qX c #AC92A9",
"wX c #B6A6B4",
"eX c #99A1BC",
"rX c #CC9884",
"tX c #D2A68C",
"yX c #ECB485",
"uX c #F3B987",
"iX c #E5B28D",
"pX c #CBB2AF",
"aX c #E29AAC",
"sX c #BDC2BD",
"dX c #F5C494",
"fX c #EEC597",
"gX c #F7D5A8",
"hX c #EECFAE",
"jX c #8F95CE",
"kX c #9DABD9",
"lX c #A7A8C9",
"zX c #B5B5CB",
"xX c #B8BAD6",
"cX c #ADB0CD",
"vX c #B6B7E1",
"bX c #AAB2E2",
"nX c #B98CD5",
"mX c #CDB4D6",
"MX c #E8A0E1",
"NX c #BEC4CE",
"BX c #BAC8E2",
"VX c #C7C8CC",
"CX c #C6C8D7",
"ZX c #D5D7DD",
"AX c #D5CCCE",
"SX c #D9DCE3",
"DX c #CBCEE6",
"FX c #E4E4E2",
"GX c #E5E8EA",
"HX c #F4F8F3",
"JX c #EDEEEC",
"KX c #E4DED8",
"LX c None",
/* pixels */
"LXLXLXLXLXLXLXLXLXLXLXLXLXLXLXLXLXLXLXLXLXLX%X%X%X#XF.A.C.C.A.A.A.C.A.V.0.9.9.0.0.0.0.0.9.9.9.r.@XLXLXLXLXLXLXLXLXLXLXLXLXLXLXLX",
"LXLXLXLXLXLXLXLXLXLXLXLXLXLXLXLXLXLXLXLXLX#X#X#X#X}.F.Z.H.H.Z.Z.B.V.V.V.t.0.0.9.8.6.8.8.r.u.u.l.LXLXLXLXLXLXLXLXLXLXLXLXLXLXLXLX",
"LXLXLXLXLXLXLXLXLXLXLXLXLXLXLXLXLXLXl.F.F.i.k.F.k.F.F.K.M.M.M.b.N.q.t.q.0.q.0.7.......@.}.@XLXLXLXLXLXLXLXLXLXLXLXLXLXLXLXLXLXLX",
"LXLXLXLXLXLXLXLXLXLXLXLXLXLXLXLXLX XF.H.H.H.H.H.A.Z.K.m.m.m.m.b.x.9.0.9.7.6.6.X. .| | *.LXLXLXLXLXLXLXLXLXLXLXLXLXLXLXLXLXLXLXLX",
"LXLXLXLXLXLXLXLXLXLXLXLXLXLXl.F.R.Q.,X1XL.,X,XJ.H.A.H.G.K.m.v.q.0.0.0.7.X._ _ } [.OXLXLXLXLXLXLXLXLXLXLXLXLXLXLXLXLXLXLXLXLXLXLX",
"LXLXLXLXLXLXLX[.} } }.LXLX XF.J.1X<X<X,X,XL.1XJ.B.N.x.x.z.v.q.7.7.6.7.X._ / } a.$XLXLXLXLXLXLXLXLXLXLXLXLXLXLXLXLXLXLXLXLXLXLXLX",
"LXLXLXLXLXLXa.} / ..i.F.Q.Q.P.1X,X<X<X,XH.H.H.B.o....._ _ o.8.8......._ ' } [.LXLXLXLXLXLXLXLXLXLXLXLXLXLXLXLXLXLXLXLXLXLXLXLXLX",
"LXLXLXLXLX[.} ' _ o.C.J.1X<X<X<X<X,X,XG.x.N.x.x.,.-.-.-.-.] o.X._ ' ^ / } a.LXLXLXLXLXLXLXLXLXLXLXLXLXLXLXLXLXLXLXLXLXLXLXLXLXLX",
"LXLXLXLXLX} ' _ x.B.J.,X,X<X<X<X<XL.v.8.o.....] 5XE 7XU D t ] _ _ ' ' } [.LXLXLXLXLXLXLXLXLXLXLXLXLXLXLXLXLXLXLXLXLXLXLXLXLXLXLX",
"LXLXLXLX| ' ..8.B.J.L.<X<X<X<X,XL.K.N.w.] -.-.1.rXuXQ R G t ] _ / / } *.LXLXLXLXLXLXLXLXLXLXLXLXLXLXLXLXLXLXLXLXLXLXLXLXLXLXLXLX",
"LXLXLXLX| _ 8.B.J.,X,X<X<X,X<X,XJ.C.y.n.6XU rXrXyXQ R G r ] o.X._ } ].LXLXLXLXLXLXLXLXLXLXLXLXLXLXLXLXLXLXLXLXLXLXLXLXLXLXLXLXLX",
"LXLXLX|.@.;.N.H.L.,X,XL.L.L.L.J.Z.V.y.b.0XwXwXtXE ! Y F 5 ..7.7... .}.#XLX@X@X|.@XLXLXLXLXLXLXLXLXLXLXLXLXLXLXLXLXLXLXLXLXLXLXLX",
"LXLXLX#Xk.V.V.H.L.,XJ.Z.Z.H.Z.S.A.A.V.D.K.Y.n.4.U Y Y Z [ ..6.9.7.6.u.u.u.u.k.u.k.u.u.l.LXLXLXLXLXLXLXLXLXLXLXLXLXLXLXLXLXLXLXLX",
"LXLXLX#XF.A.A.Z.J.J.S.A.C.Z.J.K.Z.A.Z.Z.A.V.y.O.5.D D t ] ..6.9.0.0.0.0.9.9.q.9.0.7.7.p.}.OXOXOX|.LXLXLXLXLXLXLXLXLXLXLXLXLXLXLX",
"LXLXLX#Xk.A.A.A.Z.H.A.A.A.J.3X4XK.A.K.K.C.V.y.9.e.>.>.>.8.6.9.0.0.0.0.0.9.9.q.0.0.7.....} | #.| | | | LXLXLXLXLXLXLXLXLXLXLXLXLX",
"LXLXLX}.F.A.A.A.A.A.A.A.V.J.3X3XG.B.D.b.Z.V.N.q.t.t.t.q.q.t.t.0.q.0.q.c.q.q.8.6.6.X./ ^ 1 1 ^ ^ } | | LXLXLXLXLXLXLXLXLXLXLXLXLX",
"LXLX*.p.B.A.A.A.A.A.A.V.N.q.b.c.N.y.N.D.V.C.V.V.C.B.v.D.B.V.V.N.q.z.M.M.M.n.o...../ 3 , , , , 4 [.OXLXLXLXLXLXLXLXLXLXLXLXLXLXLX",
"LXLX .o.N.A.A.A.V.V.V.N.y.q.c.M.b.c.t.y.V.C.A.C.Z.K.2X2XK.Z.V.V.q.x.v.n.n.>.' 1 ^ 1 , , 4 4 ) *.LXLXLXLXLXLXLXLXLXLXLXLXLXLXLXLX",
"LXLXu.x.V.A.A.A.N.t.q.x.0.D.4XjXjXY.c.y.V.A.A.Z.G.2XkXbX2XG.N.q.0.8.o.+.;.' 3 , , , > 4 ~.OXLXLXLXLXLXLXLXLXLXLXLXLXLXLXLXLXLXLX",
"LXLXg.D.B.V.V.N.q.9.7.x.b.W.bXDXmXjXY.D.V.V.C.Z.J.2XkXkX2Xb.q.9.7.X.' 1 1 1 , , 4 ) 4 *.LXLXLXLXLXLXLXLXLXLXLXLXLXLXLXLXLXLXLXLX",
"LXLX;XY.v.t.t.q.x.8...>.jXDXFXGXGXCXkXY.c.N.V.C.Z.K.Q.2XK.B.q.6..._ < , , , > 4 ~.XXLXLXLXLXLXLXLXLXLXLXLXLXLXLXLXLXLXLXLXLXLXLX",
"LXLXnX>X>.X.7.9.;._ 1 -.BXHXHXHXHXFXzX0Xb.y.V.A.A.Z.G.G.S.V.t.6._ ~ , > > , 4 *.LXLXLXLXLXLXLXLXLXLXLXLXLXLXLXLXLXLXLXLXLXLXLXLX",
"LXLXnX>Xw 2 o.o.2 $ & r NXHXHXHXHXFXzX3Xb.y.V.A.A.C.S.S.A.V.y.6.{ < , > > 4 [.LXLXLXLXLXLXLXLXLXLXLXLXLXLXLXLXLXLXLXLXLXLXLXLXLX",
"LXLX-X>Xu $ _ ..$ + + e sXHXHXHXHXSXmXT.b.y.V.A.A.A.A.A.A.V.N.6.{ ( ~ 3 4 *.LXLXLXLXLXLXLXLXLXLXLXLXLXLXLXLXLXLXLXLXLXLXLXLXLXLX",
"LXLX-X5Xu $ 1 1 $ + + e sXHXHXHXHXFXzX3Xn.y.V.A.A.A.A.C.A.C.V.N.6.X.X.p.].LXLXLXLXLXLXLXLXLXLXLXLXLXLXLXLXLXLXLXLXLXLXLXLXLXLXLX",
"LXLXnX5Xq % -.-.% + + e sXHXHXHXHXSXlXT.c.q.V.A.A.A.A.A.A.A.A.C.y.y.N.u.}.@X@X|.|.@XOXOXOX|.LXLXLXLXLXLXLXLXLXLXLXLXLXLXLXLXLXLX",
"%XLX-X6Xu u 9XeXq + + e NXHXHXHXHXZX3Xm.x.0.C.A.A.C.A.A.C.A.A.V.V.V.C.N.u.u.k.u.u.r. .@.| | } LXLXLXLXLXLXLXLXLXLXLXLXLXLXLXLXLX",
"XX].`.1.e y wXpXy e q U VXHXHXJXGXBXjXY.Y.n.n.v.N.V.V.V.V.V.V.V.V.V.V.V.x.x.e.e.>.,.] 5 5 [ } LXLXLXLXLXLXLXLXLXLXLXLXLXLXLXLXLX",
") 4 5 9 2.6X7XtXsXsXsXVXGXHXHXGXNXwXwXtX7X7XU 5.z.y.q.t.t.t.0.y.y.y.q.N.v.Y.1.D D F F F Z `.~.LXLXLXLXLXLXLXLXLXLXLXLXLXLXLXLXLX",
"< < > 2 3.).U R hXJXJXJXGXGXKXKXsXwXfXdXdXyX! G 3.z.q.9.6.6.6.6.6.9.9.q.v.,.y H K Y T T Y '.LXLXLXLXLXLXLXLXLXLXLXLXLXLXLXLXLXLX",
"X.{ < > 3 9 R yXfXhXZXDXDXAXhXfXiXfXhXgXgXfXuXR G 5.z.7.{ ( { { 6.0.0.6.{ ( ) 9 P W W W W ! P '.L LXLXLXLXLXLXLXLXLXLXLXLXLXLXLX",
"k.p.| 4 6 r rXdXdXhXVXVXCXAXiXdXfXfXgXgXgXgXdXW Y A @.X.~ ~ ) ,.I.m.m.>.=.5 [ <.).tXW Q yXW T Y Y P LXLXLXLXLXLXLXLXLXLXLXLXLXLX",
"#X+X+X~.V G fXgXgXgXKXhXKXhXgXgXgXgXgXgXdXuXuXE G 0 ` ~ ~ ` `.zXbXbXbXeX7XG ).7XqXqXR R Q yXQ ! Y K G LXLXLXLXLXLXLXLXLXLXLXLXLX",
"%XLXLXLX(.rXiXdXfXgXdXgXgXgXgXgXgXgXgXhXuXyXiXU t 9 3 ~ ` 4.kXZXVXVXKXKXhXtXR rXwXwX7XR E Q yXQ R Y Z L LXLXLXLXLXLXLXLXLXLXLXLX",
"LXLXLXLXLX:X'.R R R iXuXdXdXuXuXfXdXuXuXuXiXG t 5 3 ~ [ 0XcXzXeX8XqXVXFXKXpX6X_.lXxXAXpXR R W uXiXR Z S LXLXLXLXLXLXLXLXLXLXLXLX",
"LXLXLXLXLXLXLXL '.P ! W W W W W iXyXW W E U t 7 ( ~ ~ @.lXSXVXeX5X0XVXFXGXNX8X>XlXmXSXhXrXR W yXtXR S LXLXLXLXLXLXLXLXLXLXLXLXLX",
"LXLXLXLXLXLXLXLXLX(.'.T R Y T Y Y K T T Z t 5 3 ~ ~ ~ [ nXDXZXCXVXmXZXFXFXZXzXlXlXzXZXKXiXQ yXtXG S LXLXLXLXLXLXLXLXLXLXLXLXLXLX",
"LXLXLXLXLXLXLXLXLXLXL K K K K K K K G G A r 5 ( ( 2 ( -.9XDXSXKXFXFXFXKXFXSXDXxXlXcXCXAXiXW W R y !.LXLXLXLXLXLXLXLXLXLXLXLXLXLX",
"LXLXLXLXLXLXLXLXLXoXC n n n n n n J 7X6X1.r r -.-.9 <.5.jXDXFXFXFXFXFXFXFXZXDXxXlXcXxXmXtXY R G <.j.LXLXLXLXj j LXLXLXLXLXLXLXLX",
"LXLXLXLXLXLXLXLXLX(.C n n n n n J P qX0X1.1.1.2.y 1.5.4.jXbXvXvXvXxXvXvXvXvXbXkX9X9XzXpX).Z Z t -.s.}..Xk = = = = h LXLXLXLXLXLX",
"LXLXLXLXLXLXLXXX*.; b n n n n J tXaXzX0X1.2.6X8X1.<.3.I.I.Q.E.E.E.E.E.E.E.E.W.T.2.).cXlX5.9 9 9 [ +.f.=.; p = = = p h LXLXLXLXLX",
"LXLXLXLXLXLXXX~.% : v n n n LXI AXSXzX0X2.4.0X3X4.3.I.k.I.I.I.R.E.R.I.E.R.E.T.T.4.4.jXjX-.^ ( 2 2 [ +.[ t c c c c ; = h LXLXLXLX",
"LXLXLXLXLXLXV 8 & X x m n C LX:XMXSXcX9X0X).T.I.I.s.I.I._._.).jXkXLXLXLXLXLXjXjXT.I.W.Y.] [ 2 ' 2 2 ` <.).pXpXpX6XA ; i h LXLXLX",
"LXLXLXLXLXLX7   + X ; f m LXLXLXMXMXzXcXkXjXR.u.n.k.k.{.LXLXLXLXLXLXLXLXLXLXLXLXLX;X;Xj.=.[ [ [ 2 [ [ 5.jXBXNXNXNXqXA a = LXLXLX",
"LXLXLXLXLX.X7 # O X - d v LXLXLX*X:XmXCXcXjXI.n.e.h.|.LXLXLXLXLXLXLXLXLXLXLXLXLXLXLX$X XU.I.I.n.[ -.5.T.Y.Y.4.9XNXVXqXF ; z LXLX",
"LXLXLXLXLX.X7 O O X * i d V LXLXLX*X:XmXjXT.I.h.h.{.LXLXLXLXLXLXLXLXLXLXLXLXLXOXLXLXLXLXLX;X;XU.@.<.-X;Xn.o.[ 1.zXSXcX).x h LXoX",
"LXLXLXLXLX.X7 # O X - i d z LXLXLXLX*X:XU.n.n.h.}.LXLXLXLXLXLXLX%.%.%.%.%.%.$.%.%.[.LXLXLXLXLX#XU.U.=X X@.^ < <.wXSXxX).x p g z ",
"LXLXLXLXLX.X7 O O o * - x N LXLXLXLXLXOXs.z.O.h. XLXLXLXLXLX#.} #.$.$.$.$.$.$.| }  .].OXLXLXLXLXLXLXLXOX| 1 2 <.cXZXcX).x i = = ",
"LXLXLXLXLX.X7 O #   o 8 F `.LXLXLXLXLX#Xg.w.O.e.s.LXLXLX[.| +.#.].OXOXOXOXOX+X].#.+.#.$.$.[.LXLXLXLXLXOX) 2 2.lXmXBXcX_.x i i = ",
"LXLXLXLXLX.X7 # O     q >XnX:XLXLXLX*X=Xf.z.;.z.;.g.LXLX$.` ` $.OX%XLXLXLXLXLXLX[.$.$.#.` &.].LXLXLXLXLX=.<.lXvXvXxXlX).x p i i ",
"LXLXLXLXLXLX7 + O     e ).lXnX`.N V MXnXI.O.>.w.O.d.LXLX$._ ` $.LXLXLXLXLXLXLXLXLXLXOX].&.}  .[.LXLXLX*X-X9XxXvXcXlXlX).x i i i ",
"LXLXLXLXLXLXV 8 @     % 1.0XeX).a c pXBX3Xn.z.>.O.s. X|.a.$.$.LXLXLXLXLXLXLXLXLXLXLX%XOX$.` ` &.].XX.X=X-XzXxXxXlX9X0XD x = i = ",
"LXLXLXLXLXLXXX~.8 O # @ % r 8X6Xx c pXSXxX3X>.O.w.z.s.j.|.OXLXLXLXLXLXLXLXLXLXLXLXLXLXOX%.` ` } &.=.9 0 c D qXkXlXqXA c d i i = ",
"LXLXLXLXLXLXLXXX7 O O   . q 5X).x x U pXmXkXY.O.w.>.;.s.|.LXLXLXLXLXLXLXLXLXLXLXLXLXLXOX%.} } ` ` ) 7 0 l c G 7X).).v s i = i i ",
"LXLXLXLXLXLXLX.X7 #     . q 5X).x p x S wXkXm.O.e.z.z.e.s.{.LXLXLXLXLXLXLXLXLXLXLXLXLX$X%.+.} ` ` &.[.^.N v C J J C v s i = = i ",
"LXLXLXLXLXLXLX.X7 O       e 5X).c i = c qXbX3X>.>.w.O.z.;.s.}.$XLXLXLXLXLXLXLXLXLXLX$X].&.+.` ` ` $.$XoXS v I b n m f s x x p = ",
"LXLXLXLXLXLXLX.X7 + O     e 8X).x = = c qXvXjXT.n.O.w.z.w.e.s.d.g.{.LXLXLXLXLXLXLX$X{.s.O.@.+.` ` %.$X*X`.6X7XG v f d x D A a = ",
"LXLXLXLXLXLXLXLXB 8 @ O   % 1.D x i = x _.wXlX0X3.>.>.>.z.>.:.;.;.s.}.+X$X+X+X+X$X}.s.z.:.O.@.} &.*..X(.nXlXlX0XA c x V D _.N z ",
"LXLXLXLXLXLXLXLXOX~.8 O O & % u - i = p l H 6XjX2.-.,.:.;.:.:.:.z.e.s.g.d.d.d.d.g.s.e.z.>.>.O.h.}..XB V aXDXcX9XqX6X).D c V ^.oX",
"LXLXLXLXLXLXLXLXLX.X7 + O   o X * i i i i x _.`.`.5.d.g.g.s.e.z.:.:.:.;.;.;.;.;.;.;.O.;.w.z.s.j..X/.h c pXSXmXlXlXeX0XA ; j LXLX",
"LXLXLXLXLXLXLXLXLXOX7 # O #   X * i i i i ; t _. X$X+X+X+X}.s.;.;.:.;.;.;.;.;.;.z.;.;.z.w.h. X.XB h p c pXSXSXCXcX6XA a - z LXLX",
"LXLXLXLXLXLXLXLXLX.X7 + O # # X * i i i = ; 5.~.&XLXLXLXLX$X{.d.d.d.d.f.d.d.d.g.g.g.g.g.g.j..X/.k = i c rXhXmXpX7XA ; i h LXLXLX",
"LXLXLXLXLXLXLXLXLXLX8 + O # # X * i i = = k (.LXLXLXLXLXLXLXLXLX+X+X+X+X+X+X+X+X#X$X+X#X#X.XB h p i d v C J H H c ; p h /.LXLXLX",
"LXLXLXLXLXLXLXLXLXLXB 8 @ # # X * i i p g B LXLXLXLXLXLXLXLXLXLXLXLXLXLXLXLXLXLXLXLXLXoXoX^.h = i p s v m m f d = p h B LXLXLXLX",
"LXLXLXLXLXLXLXLXLXLXXX~.8 O   X * = = g ^.LXLXLXLXLXLXLXLXLXLXLXLXLXLXLXLXLXLXLXLXj j z z k p = = p s v f f d i = h /.LXLXLXLXLX",
"LXLXLXLXLXLXLXLXLXLXLX.X7 O . X * p g B LXLXLXLXLXLXLXLXLXLXLXLXLXLXLXLXLXoXoX^.g = = = = = p p p d d s a d i p g LXLXLXLXLXLXLX",
"LXLXLXLXLXLXLXLXLXLXLX.X7 + + o * g /.LXLXLXLXLXLXLXLXLXLXLXLXk k j j j j M j k p = = = = p d s s s d p p = = g LXLXLXLXLXLXLXLX",
"LXLXLXLXLXLXLXLXLXLXLXLXV 7 7 7 k LXLXLXLXLXLXLXLXLXLXLXLXLXB j j g p = = = = = = i i i = p s s s d = p g j j LXLXLXLXLXLXLXLXLX",
"LXLXLXLXLXLXLXLXLXLXLXLXLX.X.XLXLXLXLXLXLXLXLXLXLXLXLXLXLXLXLXLXLX^.k = = = = = i = = i i i i p d = = g ^.LXLXLXLXLXLXLXLXLXLXLX",
"LXLXLXLXLXLXLXLXLXLXLXLXLXLXLXLXLXLXLXLXLXLXLXLXLXLXLXLXLXLXLXLXLX^.k i = i i i i i i i i p k M j j LXLXLXLXLXLXLXLXLXLXLXLXLXLX",
"LXLXLXLXLXLXLXLXLXLXLXLXLXLXLXLXLXLXLXLXLXLXLXLXLXLXLXLXB j z M M k p = i i = i i i i i = k /.LXLXLXLXLXLXLXLXLXLXLXLXLXLXLXLXLX",
"LXLXLXLXLXLXLXLXLXLXLXLXLXLXLXLXLXLXLXLXLXLXLXLXLXLXLXoXj = = = = = i i = i i i = i = = = M oXLXLXLXLXLXLXLXLXLXLXLXLXLXLXLXLXLX"
};
