/* XPM */
static char *result[] = {
/* columns rows colors chars-per-pixel */
"64 72 255 2 ",
"   c #1A1B16",
".  c #1E283C",
"X  c #7D0000",
"o  c #7E0901",
"O  c #780F15",
"+  c #74222B",
"@  c #00005A",
"#  c #020565",
"$  c #020A77",
"%  c #02157A",
"&  c #151676",
"*  c #2D0978",
"=  c #21285F",
"-  c #56335E",
";  c #3C434D",
":  c #4C514F",
">  c #595577",
",  c #6E556E",
"<  c #746E73",
"1  c #6E475E",
"2  c #3F413E",
"3  c #810101",
"4  c #85000A",
"5  c #890B0A",
"6  c #990A07",
"7  c #8D1413",
"8  c #941818",
"9  c #961012",
"0  c #A41C19",
"q  c #A10E0D",
"w  c #95002A",
"e  c #98012C",
"r  c #9E003C",
"t  c #9B0236",
"y  c #8A1E28",
"u  c #A70A3D",
"i  c #88262B",
"p  c #932E30",
"a  c #A62323",
"s  c #D11E1B",
"d  c #CA231B",
"f  c #CF2C2B",
"g  c #ED2F29",
"h  c #EF251F",
"j  c #F2483B",
"k  c #ED4436",
"l  c #D64E3F",
"z  c #A00040",
"x  c #AB1A46",
"c  c #AC2A52",
"v  c #B80071",
"b  c #A12A60",
"n  c #8C4D54",
"m  c #B04F4B",
"M  c #B36F5A",
"N  c #944A69",
"B  c #986A6F",
"V  c #AB756F",
"C  c #A55D5C",
"Z  c #CF5149",
"A  c #ED524C",
"S  c #D17D59",
"D  c #D67079",
"F  c #E2636F",
"G  c #BE3D40",
"H  c #B78779",
"J  c #CE8B5D",
"K  c #D79B77",
"L  c #CE9168",
"P  c #EC9A74",
"I  c #E6AB7B",
"U  c #E8B07B",
"Y  c #DDA577",
"T  c #021984",
"R  c #041B95",
"E  c #1A1D9D",
"W  c #171D9C",
"Q  c #0D1289",
"!  c #390283",
"~  c #2C0F96",
"^  c #01218C",
"/  c #01259B",
"(  c #1B219E",
")  c #16249C",
"_  c #1C2289",
"`  c #30318D",
"'  c #0218AB",
"]  c #2A1CA3",
"[  c #3819A8",
"{  c #361DB5",
"}  c #0126A7",
"|  c #012AB7",
" . c #0534B7",
".. c #193DBC",
"X. c #1630A7",
"o. c #2C31AF",
"O. c #491AB1",
"+. c #5518B6",
"@. c #5516B8",
"#. c #441BAF",
"$. c #6E0DB7",
"%. c #4D2CB9",
"&. c #6F39BB",
"*. c #603894",
"=. c #39458C",
"-. c #1840BE",
";. c #2946B6",
":. c #354AAF",
">. c #4E5493",
",. c #6B598A",
"<. c #67688C",
"1. c #797796",
"2. c #6A6A95",
"3. c #4B47B0",
"4. c #6F73B6",
"5. c #5F5C9E",
"6. c #002DCB",
"7. c #0129C6",
"8. c #0131CC",
"9. c #0436C8",
"0. c #0033D6",
"q. c #0034DA",
"w. c #063CDA",
"e. c #173AC5",
"r. c #322ECF",
"t. c #003BE2",
"y. c #0039E5",
"u. c #3C28E2",
"i. c #3A3BE2",
"p. c #3D3FFA",
"a. c #2F1DC1",
"s. c #4734CB",
"d. c #5732CD",
"f. c #5632D2",
"g. c #4A31CC",
"h. c #4C38E7",
"j. c #6732E7",
"k. c #6F33EF",
"l. c #7012C0",
"z. c #1D44C4",
"x. c #0944DC",
"c. c #1C4BDB",
"v. c #1C55DE",
"b. c #184DCC",
"n. c #2344C3",
"m. c #3756C7",
"M. c #3844DD",
"N. c #2555DA",
"B. c #2751CE",
"V. c #3567DA",
"C. c #2B64DC",
"Z. c #0347E7",
"A. c #0853E7",
"S. c #004DF2",
"D. c #0153F5",
"F. c #0A5AF3",
"G. c #0054F9",
"H. c #0759F4",
"J. c #1A5AE0",
"K. c #3A41E1",
"L. c #334FF0",
"P. c #1D63E7",
"I. c #1B73EC",
"U. c #0964F5",
"Y. c #166DF2",
"T. c #2566E8",
"R. c #257DEB",
"E. c #2C73ED",
"W. c #445DC5",
"Q. c #5154DB",
"!. c #5671CD",
"~. c #6977CC",
"^. c #4E51F1",
"/. c #7A46E6",
"(. c #536DED",
"). c #9200BA",
"_. c #B314B7",
"`. c #C80091",
"'. c #C7008C",
"]. c #E83ABB",
"[. c #9A7D91",
"{. c #8E758C",
"}. c #A168A0",
"|. c #D27B8A",
" X c #D159AE",
".X c #8F0ECF",
"XX c #A613D7",
"oX c #8124DC",
"OX c #9818E5",
"+X c #AE1CF0",
"@X c #972EF1",
"#X c #B529E9",
"$X c #C90CD0",
"%X c #C907E9",
"&X c #C90EF1",
"*X c #C514FD",
"=X c #D60CF4",
"-X c magenta",
";X c #D72DE3",
":X c #BD7DD4",
">X c #AF74CE",
",X c #844BE7",
"<X c #8B62D2",
"1X c #F271F3",
"2X c #7D85A5",
"3X c #2A84EA",
"4X c #318AE8",
"5X c #1F82EA",
"6X c #5281DF",
"7X c #748BD1",
"8X c #6682E3",
"9X c #8D8796",
"0X c #BA938C",
"qX c #8888A8",
"wX c #989BB7",
"eX c #9091B0",
"rX c #B397B2",
"tX c #B4A6B4",
"yX c #BCA19F",
"uX c #CFA68E",
"iX c #ECB48B",
"pX c #CEB1B3",
"aX c #E5B5B4",
"sX c #DD8E9C",
"dX c #BDC2BD",
"fX c #F5C695",
"gX c #EEC495",
"hX c #F7D6A8",
"jX c #EED0B0",
"kX c #CFC0B7",
"lX c #898DCB",
"zX c #8F99CE",
"xX c #9BA7D5",
"cX c #A9A8C8",
"vX c #B9B9D7",
"bX c #B1B1CF",
"nX c #ACB9E3",
"mX c #C3B5CE",
"MX c #DBA2D9",
"NX c #BEC4D2",
"BX c #BDC2E3",
"VX c #C9C8CB",
"CX c #C5C6D9",
"ZX c #D4CFD5",
"AX c #C8CBE4",
"SX c #D9DBE2",
"DX c #CBD5EB",
"FX c #DDE3E7",
"GX c #E2E3E2",
"HX c #E4E9E9",
"JX c #F2F6F2",
"KX c #F5F9F4",
"LX c #EDEEEC",
"PX c #E7DADC",
"IX c None",
/* pixels */
"IXIXIXIXIXIXIXIXIXIXIXIXIXIXIXIXu.0.0.q.q.q.q.q.q.q.0.w.S.G.G.D.G.G.G.G.G.h.*X-X-X-XIXIXIXIXIXIXIXIXIXIXIXIXIXIXIXIXIXIXIXIXIXIX",
"IXIXIXIXIXIXIXIXIXIXIXIXIXIXIXIXIXu.u.r.9.8.8.8.0.q.q.q.Z.S.S.D.F.F.J.F.U.L.@X*X*X+X*X*XIXIXIXIXIXIXIXIXIXIXIXIXIXIXIXIXIXIXIXIX",
"IXIXIXIXIXIXIXIXIXIXIXIXIXIXIXIXIXIXIXOX{ / / } 8.q.q.q.t.t.w.Z.N.C.C.E.T.L.L.h.p.p.h.L.p.k.=XIXIXIXIXIXIXIXIXIXIXIXIXIXIXIXIXIX",
"IXIXIXIXIXIXIXIXIXIXIXIXIXIXIXIXIXIXIXIXIX[ [ {  .8.8.8.0.0.0.w.N.V.V.V.V.T.G.G.U.U.U.U.U.L.@X*X*XIXIXIXIXIXIXIXIXIXIXIXIXIXIXIX",
"IXIXIXIXIXIXIXIXIXIXIXIXIXIXIXIXIXIXIXIXIXIX%X.X{ / / | 8.q.q.q.x.b.C.V.Y.H.G.U.I.R.I.I.3X3X(.^.^.k.=XIXIX=X$.l.%XIXIXIXIXIXIXIX",
"IXIXIXIXIXIXIXIXIXIXIXIXIXIXIXIXIXIXIXIXIXIXIXIX$.] R / | 8.8.6.0.x.B.B.x.x.x.A.I.3X3X3X3X4X4X3XU.L.@X=X*XOX] ( .X=XIXIXIXIXIXIX",
"IXIXIXIXIXIXIXIXIXIXIXIXIXIXIXIXIXIXIXIXIXIXIXIXIX.X] ^ / / } } 8.8. . .} } }  .A.U.U.Y.3X4X4X3X5XR.(.(.^.i.} R ] $.=XIXIXIXIXIX",
"IXIXIXIXIXIXIXIXIXIXIXIXIXIXIXIXIXIXIXIXIXIXIXIXIXIX$.] R ^ ^ / |  .` = =.=.=.:.9.Z.x.A.P.R.3X4X4X4X4X5XY.A.9./ ^ ] .XIXIXIXIXIX",
"IXIXIXIXIXIXIXIXIXIXIXIXIXIXIXIXIXIXIXIXIXIXIXIXIXIXIX.X] T T / / ) , V H 0X0X{.;.' } | 9.J.R.4X4X4X3X3X3XI.A.9.} R ] $.IXIXIXIX",
"IXIXIXIXIXIXIXIXIXIXIXIXIXIXIXIXIXIXIXIXIXIXIXIXIXIXIXIXl.] / R / ` , V P U fXK <.> =.=.e.t.P.3X4X4X4X4X3X3XY.A. ./ ^ [ IXIXIXIX",
"IXIXIXIXIXIXIXIXIXIXIXIXIXIXIXIXIXIXIXIXIXIXIXIXIXIXIXIXIXXX] / |  .` > V K iXiXuX0X0X{.m.q.D.Y.3X4X4X4X4X3X3XY.A.x./ [ %XIXIXIX",
"IXIXIXIXIXIXIXIXIXIXIXIXIXIXIXIXIXIXIXIXIXIXIXIXIXIXIXIXIXOX{ } 8.8.} _ n J P iXyXyXyXeXN.y.S.F.Y.R.R.R.R.3X4XR.Y.Z. .{ +XIXIXIX",
"IXIXIXIXIXIXIXIXIXIXIXIXIXIXIXIXIXIXIXIXIXu.u.h.u.u.u.h.h.u.7.6.0.7.} = B S J V 5.m.V.V.F.S.G.G.H.F.U.U.U.Y.R.R.U.D.Z.i.&XIXIXIX",
"IXIXIXIXIXIXIXIXIXIXIXIXIXIXIXIXIXIXIXOXr.6.8.0.q.q.q.6.0.0.0.q.q.8.| ` ,.B B ,.n.y.S.D.F.F.G.F.Y.T.F.G.G.F.I.E.F.G.G.p.*XIXIXIX",
"IXIXIXIXIXIXIXIXIXIXIXIXIX[ [ [ [ [ [ ] } } 8.0.0.0.0.q.0.0.q.q.q.0.6.9...;.:.e.0.y.S.F.T.T.D.T.8X7XT.G.G.G.F.F.G.G.G.p.*XIXIXIX",
"IXIXIXIXIXIXIXIXIXIXIXIXIX] [ ] Q % T T T R | 8.8.9.w.w.x.w.w.q.q.x.t.w.w.w.y.y.w.Z.S.F.N.v.S.T.7X8XT.S.G.G.G.G.G.G.D.L.OX=XIXIX",
"IXIXIXIXIXIXIXIXIXIXIXIXIXIXIX.X* # # # # $ R } }  .B.C.C.v.x.q.Z.S.S.A.v.v.A.S.S.S.G.D.Z.w.t.Z.J.v.Z.y.S.G.G.D.G.G.G.Z.o.l.IXIX",
"IXIXIXIXIXIXIXIXIXIXIXIXIXIXIXIXIX! ! * # # % T % ) ;.m.m.b.w.t.Z.D.H.P.6X6XT.F.G.G.G.S.y.w.c.N.C.c.w.w.Z.S.D.S.D.G.G.x. .{ IXIX",
"IXIXIXIXIXIXIXIXIXIXIXIXIXIXIXIXIXIXIX).* @ # # # % / X.X.-.9.w.y.Z.P.6XnXxX6XP.F.G.G.S.y.c.!.lXxX8Xc.q.q.t.w.Z.S.G.G.S.w.u.IXIX",
"IXIXIXIXIXIXIXIXIXIXIXIXIXIXIXIXIXIXIXIXIX! ! * # @ % T % ^ } 9.0.w.P.6XxXnX(.P.D.D.D.S.c.!.zXVXAXBX(.N.w.6.0.t.Z.S.S.D.v.j.IXIX",
"IXIXIXIXIXIXIXIXIXIXIXIXIXIXIXIXIXIXIXIXIXIX%X).* @ @ # # $ R ' 6.t.A.T.(.!.E.F.G.S.y.v.!.cXCXGXLXFXDXzX;.} 9.x.t.t.y.v.!.<XIXIX",
"IXIXIXIXIXIXIXIXIXIXIXIXIXIXIXIXIXIXIXIXIXIXIXIX$.* # @ @ # T R 7.w.S.H.P.P.H.G.G.S.y.N.7XvXGXJXJXKXKXNX=.% / -.0.8.| B.2XrXIXIX",
"IXIXIXIXIXIXIXIXIXIXIXIXIXIXIXIXIXIXIXIXIXIXIXIXIX).* @ @ # $ ' 7.t.S.G.F.F.D.G.G.S.y.N.2XvXGXJXJXKXKXVX> . . %  . .% ; eX:XIXIX",
"IXIXIXIXIXIXIXIXIXIXIXIXIXIXIXIXIXIXIXIXIXIXIXIXIXIX$.! $ Q R ' 6.Z.S.G.G.G.G.G.G.S.y.B.7XbXGXJXJXJXKXmX:     . } / . ; {.:XIXIX",
"IXIXIXIXIXIXIXIXIXIXIXIXIXIXIXIXIXIXIXIXIXIXIXIXIXIXIX.Xa.7.7.8.Z.S.D.G.G.G.G.D.G.S.y.B.7XbXFXJXJXKXKXdX:     . ^ % . 2 2X>XIXIX",
"IXIXIXIXIXIXIXIXIXIXIXIXIXIXIXIXIXIXIXIXIXIXIXIXIXIXIX+Xi.y.t.t.S.G.G.G.D.G.G.G.G.S.y.c.~.cXFXJXJXKXKXdX:     . =.=.. 2 2XrXIXIX",
"IXIXIXIXIXIXIXIXIXIXIXIXIXIXIXIXIXIX[ [ [ { u.h.u.u.u.u.Z.D.S.S.G.G.G.G.G.G.G.G.G.S.q.w.V.7XFXJXJXJXJXdX:     : wXeX2 2 9X:XIX-X",
"IXIXIXIXIXIXIXIXIXIXIXIXIXIXIXIXIX[ [ ] Q R ' 7.w.x.Z.Z.Z.S.S.S.S.S.S.S.S.S.S.A.v.m.m.W.!.7XNXHXLXJXJXZX< : : < kXdX< : <.<XXX$X",
"IXIXIXIXIXIXIXIXIXIXIXIXIXIXIXIXIXIXIXXX~ Q Q ' z.C.N.N.x.x.q.t.q.y.y.y.t.t.y.n.<.V 0XyXyXyXtXBXFXJXJXHXZXmXdXpXuXuX9X2.- & ! ! ",
"IXIXIXIXIXIXIXIXIXIXIXIXIXIXIXIXIXIXIXIX$.` ` ` ;.B.B.B.0.q.q.6.7.7.7.6.0.0.e.5.V K iXfXfXgXtXpXPXGXHXHXLXLXLXjXK V 9X5.% # $ % ",
"IXIXIXIXIXIXIXIXIXIXIXIXIXIXIXIXsXsXsXsX0X0X0X{.` Q R } 7.q.q.7.' Q W ' q.n.,.V K U hXhXhXhXiXuXaXjXZXAXAXZXjXfXU H > # @ $ /  .",
"IXIXIXIXIXIXIXIXIXIXIXIXIXIXD L I I iXP P U iX0X,.` ~ ` m.V.V.M.o.] * * [ *.C S U fXhXhXhXhXfXfXfXgXkXZXCXZXiXfXfX0X1 * * #.a.h.",
"IXIXIXIXIXIXIXIXIXIXIX&.}.D K P L J J L J L yXtX0XH 0X0XcXnXBXnXbXrXm x c Z g A P fXfXfXhXhXhXhXhXhXhXjXjXjXjXhXhXgXM N XX%X%X&X",
"IXIXIXIXIXIXIXIXIXIXIX&.C J U I J C M M H 0XtXtXuXuXgXhXPXSXVXVXZXaXD A g g h A F I P P iXfXfXhXhXhXhXhXhXhXhXgXjXuXD  XIXIXIX-X",
"IXIXIXIXIXIXIXIXIXIXIXIXD S I uXB 1 1 V pXmXNXcX9X9XkXPXGXVXeX9XwXmXaXiXJ Z g g j j j A j A fXiXgXgXfXfXiXiXK L L |.].IXIXIXIXIX",
"IXIXIXIXIXIXIXIXIXIXIXIXIX|.P K H n n V kXSXAXcXqXqXVXGXGXVXeX9XwXNXDXkX0Xm Z g g g g h g j P P P P I iXK K D D D IXIXIXIXIXIXIX",
"IXIXIXIXIXIXIXIXIXIXIXIXIXIXD J L L M H VXSXvXcXcXbXZXFXGXSXVXmXZXZXAXbXB n n c m Z k g h g j A j A J J J D ].IXIXIXIXIXIXIXIXIX",
"IXIXIXIXIXIXIXIXIXIXIXIXIXIX}.V Y K J H kXAXtXcXvXAXSXGXGXPXGXGXFXFXCXtX{.1 1 1 B M l f h s s s s f m m D IXIXIXIXIXIXIXIXIXIXIX",
"IXIXIXIXIXIXIXIXIXIXIXIXIXIX&.5.V J C B bXmXbXcXvXAXSXGXGXGXPXPXGXSXDXcX2X> < , < , N n 8 6 6 6 6 6 7 x IXIXIXIXIXIXIXIXIXIXIXIX",
"IXIXIXIXIXIXIXIXIXIXIXIXIXOXs.=., n 1 <.tXvXzXwXbXNXZXSXSXSXSXSXSXZXCXwX1.> > <.<.2.<.> + O o o 3 X o e `.IXIXIXIXIXIXIXIXIXIXIX",
"IXIXIXIXIXIXIXIXIXd.d.f.f.s.] ` - ` - 5.xXbXqX1.wXbXBXAXAXAXAXAXAXAXbXwX2.> <.<.2XqX<.> , - 5 3 3 X X 4 w v IXIXIXIXIXIXIXIXIXIX",
"IXIXIXIXIXIXIXIXIXr.X.X.X.X.` & _ _ & ` 4.eX<.5.eXcXvXnXxXxXxXxXxXzXlX4.5.<.<.2XqXqX2X2X2., O 3 3 3 3 X X e `.IXIXIXIXIXIXIXIXIX",
"IXIXIXIXIXIXIXIXIXIX~ $ # % & ` & _ _ ` =.=.` >.qXbXmXbX~.W.W.W.W.W.3.m.:.3.2XeX1.1.9XeXeX{.i o X 3 3 X X 4 w v IXIXIXIXIXIXIXIX",
"IXIXIXIXIXIXIXIXIXIXIX! ! * & & & & & & _ _ _ ` 4.lXxX7XW.e.e...-.-.-.-.e.B.~.2X5.<.2XwXcX9Xb e 4 3 3 X X X X e IXIXIXIXIXIXIXIX",
"IXIXIXIXIXIXIXIXIXIXIXIXIX).* # # # # & ( o...o.:.m.W.W.n...-.-.-.-.z.-.-.;.W.3.;.:.5.qXwX>XIX`.e X 3 3 3 X X 4 e IXIXIXIXIXIXIX",
"IXIXIXIXIXIXIXIXIXIXIXIXIXIXIX! ! ! & R ..e.n.n.z.-.z.e.s.f.d.d.d.d.d.d.f.s.e.-.-.;.>.5.>XIXIXIXz X X 3 3 X 3 X X IXIXIXIXIXIXIX",
"IXIXIXIXIXIXIXIXr r r IXIXIXIXIXIX.X%.X...n.-.;.-.-.-.s.OX=X&X&X&X&X&X&X&XOXs.z.-.;.;.3.#XIXIXIXr X X 3 X 3 X X X r IXIXIXIXIXIX",
"IXIXIXIXIXIXw o X X X u IXIXIXIXIX+Xf.n.n.e.n.e.s.d.d.oX=XIXIXIXIXIXIXIXIXIXoXs.;.-.-.d.%XIXIXIXr X X 3 4 5 3 X X r IXIXIXIXIXIX",
"IXIXIXIXIXe 4 X X X X i }.:X:X>X,Xj.s.M.M.n.z.s.OX&XIXIXIXIXIXIXIXIXIXIXIXIXIXXX+.X.-.f.=XIXIXIXr 3 3 3 8 7 4 X X z IXIXIXIXIXIX",
"IXIXIXIXr X X X X 3 3 i [.cXlX~.Q.i.K.h.j.j.f.oXIXIXIXIXIXIXIXIXIXIXIXIXIXIXIXXXO.X.X.d.=XIXIXIXb p 9 9 8 8 5 X X IXIXIXIXIXIXIX",
"IXIXIXIXr X X 3 3 3 X i [.zX~.Q.M.M.M.j.+X=XIXIXIXIXIXIXIXIXIXIXIXIXIXIXIXIX.X#.] ( ( +.%XIXIXIXMXsXl s a 8 5 X X IXIXIXIXIXIXIX",
"IXIXIXIXe X X 3 3 3 X i [.lXQ.u.M.h.j.@X=XIXIXIXIXIX%X&X%XIXIXIXIXIXIXIXIXIX+.) ( ( E +.%XIXIX1XMXjXA s 0 7 o 4 w IXIXIXIXIXIXIX",
"IXIXIXe 4 X X 3 3 3 3 i [.lXQ.h.h.f.+XIXIXIXIXIX.XO.+.+.+..XIXIXIXIXIXIX-X%X+.( ( E W @.=XIX1XPXFXaXA g q X X w `.IXIXIXIXIXIXIX",
"IXIXIXX X 3 3 3 3 3 3 i [.lXQ.i.i.j.IXIXIXIXIXIXO.) ) ) ) { XX%X%X%X%X%X%XXXO.E ( o.3.&.$X;XMXLXHXaXZ s 6 X X r IXIXIXIXIXIXIXIX",
"IXIXr X X 3 3 3 3 3 3 i 9XlXQ.^.M.k.IXIXIXIXIXIX+.) ( ( ( ] O.+.+.@.+.+.+.O.] ) E 3.lXrXF F aXFXHXpXm 9 4 X X z IXIXIXIXIXIXIXIX",
"IXIXz X X 3 X 3 X 3 3 p [.lXQ.i.i.k.IXIXIXIXIXIXl.O.] ( ( ( ( ( ( ( ( ( ( ( ( ( %.4.CXaXA A aXFXSXpXm 5 3 4 w IXIXIXIXIXIXIXIXIX",
"IXIXz X X 3 X 3 3 3 X i [.7X(.i.i.j.IXIXIXIXIXIXIXXX#.) ) ( ( ( ( ( ( ( ( ( E %.lXCXSXaXA A aXFXSXrXp 3 X e `.IXIXIXIXIXIXIXIXIX",
"IXIXz X X 3 3 3 3 3 3 i B }.Q.i.i.j.+XIXIXIXIXIXIXIXIX+.+.O.] ) ( ( ) ] ` 3.:.4.vXSXSXaXA A aXSXDXrXN y o r IXIXIXIXIXIXIXIXIXIX",
"IXIXz X X 3 3 3 3 3 X 7 p N 3.h.K.^.j.@XIXIXIXIXIXIXIXIX%XXX#.) ( ( E o.4.eXzXcXBXAXBXpXA A aXSXAXvXcXV y e IXIXIXIXIXIXIXIXIXIX",
"IXIXr X X 3 X 3 X 3 3 3 8 p *.d.s.M.M.f.+XIXIXIXIXIXIXIXIXIX.X+.@.@.@.&.~.xXvXBXBXvXMX|.A A MXSXAXBXAXtXb IXIXIXIXIXIXIXIXIXIXIX",
"IXIXIXX X X 3 3 X 3 X 5 8 a G b Q.i.i.h.j.k./.IXIXIXIXIXIXIXIXIX%X=X=X+X,X~.cXvXBXmXF k g A pXAXAXBXAXMX;XIXIXIXIXIXIXIXIXIXIXIX",
"IXIXIXe 4 X X 3 3 3 3 3 8 a IXIXIXk.j.j.Q.K.Q./.+X=XIXIXIXIXIXIXIXIX=X;X@X<X}.[.rX|.A h g G |.rXvXvXrX>XIXIXIXIXIXIXIXIXIXIXIXIX",
"IXIXIXIXw X X 3 3 3 3 5 8 a IXIXIXIXIX+Xh.K.K.Q.j././.,X,X,X,X,X,X,X,X,X*X$Xb i p m f h u a p C tXtXn IXIXIXIXIXIXIXIXIXIXIXIXIX",
"IXIXIXIXIXe 4 X X 3 4 4 9 a f IXIXIXIXIXOXj.j.j.j.k./.,X,X,X,X,X,X,XIXIXIXIXr X 5 0 f f 0 7 3 8 [.}.c IXIXIXIXIXIXIXIXIXIXIXIXIX",
"IXIXIXIXIXIXe X X X X 3 3 9 0 a x IXIXIXIXIXIXIXIXIXIXIXIXIXIXIXIXIXIXIXIXIXt X o 9 0 0 7 3 X 5 y c IXIXIXIXIXIXIXIXIXIXIXIXIXIX",
"IXIXIXIXIXIXIXw 4 X X X o 4 7 8 8 0 d IXIXIXIXIXIXIXIXIXIXIXIXIXIXIXIXIXIXIXIXw 4 3 7 7 5 X X 4 w IXIXIXIXIXIXIXIXIXIXIXIXIXIXIX",
"IXIXIXIXIXIXIXIXe X X X X 3 3 5 3 7 0 f IXIXIXIXIXIXIXIXIXIXIXIXIXIXIXIXIXIXIX`.w X o 3 X X X e '.IXIXIXIXIXIXIXIXIXIXIXIXIXIXIX",
"IXIXIXIXIXIXIXIXIXIXr e 4 X X X X o 7 8 d IXIXIXIXIXIXIXIXIXIXIXIXIXIXIXIXIXIXIXv e 4 X X 3 w v IXIXIXIXIXIXIXIXIXIXIXIXIXIXIXIX",
"IXIXIXIXIXIXIXIXIXIXIXIXe X X X X X 5 5 6 6 6 9 x IXIXIXIXIXIXIXIXIXIXIXIXIXIXIXIX`.e X X w `.IXIXIXIXIXIXIXIXIXIXIXIXIXIXIXIXIX",
"IXIXIXIXIXIXIXIXIXIXIXIXIXr r z z t 4 X X X X 4 7 8 d IXIXIXIXIXIXIXIXIXIXIXIXIXIXIXIXr t IXIXIXIXIXIXIXIXIXIXIXIXIXIXIXIXIXIXIX",
"IXIXIXIXIXIXIXIXIXIXIXIXIXIXIXIXIXIXw X X X X 3 3 5 6 6 6 6 6 q w z r r r r IXIXIXIXIXIXIXIXIXIXIXIXIXIXIXIXIXIXIXIXIXIXIXIXIXIX",
"IXIXIXIXIXIXIXIXIXIXIXIXIXIXIXIXIXIXz X X X 3 3 3 3 X X X X X X X X X X X X X t IXIXIXIXIXIXIXIXIXIXIXIXIXIXIXIXIXIXIXIXIXIXIXIX"
};
