/* XPM */
static char *result[] = {
/* columns rows colors chars-per-pixel */
"64 72 253 2 ",
"   c #1D1E1D",
".  c #1A1B16",
"X  c #361917",
"o  c #2A1B1A",
"O  c #1B211C",
"+  c #162118",
"@  c #291E2A",
"#  c #1E2021",
"$  c #17203F",
"%  c #2F3237",
"&  c #211F30",
"*  c #680807",
"=  c #7D0000",
"-  c #700F0D",
";  c #77191A",
":  c #5D1D25",
">  c #00005A",
",  c #020565",
"<  c #020A77",
"1  c #01167C",
"2  c #1B1C7C",
"3  c #0F0F76",
"4  c #2C0577",
"5  c #322B79",
"6  c #1E2957",
"7  c #541954",
"8  c #451B46",
"9  c #4B3370",
"0  c #661D58",
"q  c #3E4245",
"w  c #394564",
"e  c #4A4E4E",
"r  c #534D73",
"t  c #75526D",
"y  c #746F73",
"u  c #3F413E",
"i  c #810101",
"p  c #860609",
"a  c #861919",
"s  c #921817",
"d  c #8C110C",
"f  c #A41A17",
"g  c #95002A",
"h  c #960029",
"j  c #9E003B",
"k  c #960132",
"l  c #871928",
"z  c #A1003E",
"x  c #87242A",
"c  c #932F31",
"v  c #A82B2B",
"b  c #CA2B2C",
"n  c #EB312A",
"m  c #CB231E",
"M  c #A10141",
"N  c #A5154F",
"B  c #B2046B",
"V  c #9B305B",
"C  c #E62C51",
"Z  c #97655C",
"A  c #91576A",
"S  c #A95076",
"D  c #946776",
"F  c #8D6368",
"G  c #AC7570",
"H  c #A55852",
"J  c #E74D4B",
"K  c #C86B4F",
"L  c #D0577B",
"P  c #D06D75",
"I  c #DB4C56",
"U  c #B68577",
"Y  c #CC875D",
"T  c #CB8963",
"R  c #D29470",
"E  c #DDA57D",
"W  c #E6AB7C",
"Q  c #E8B07F",
"!  c #E39C76",
"~  c #030386",
"^  c #011A85",
"/  c #051C94",
"(  c #0B0E8C",
")  c #300D8C",
"_  c #02259B",
"`  c #18219C",
"'  c #07228B",
"]  c #273495",
"[  c #2D2E8D",
"{  c #0117AD",
"}  c #291CA3",
"|  c #3918A9",
" . c #3619B1",
".. c #0126A7",
"X. c #022BB7",
"o. c #0534B7",
"O. c #1B3CBC",
"+. c #192AA4",
"@. c #2A2BB2",
"#. c #421BAE",
"$. c #5319B5",
"%. c #5317B6",
"&. c #461BB3",
"*. c #7109B1",
"=. c #5624A1",
"-. c #3A468E",
";. c #1742BE",
":. c #1B41BF",
">. c #2947B7",
",. c #2E46AC",
"<. c #4F4F8D",
"1. c #696A88",
"2. c #6F6E93",
"3. c #4F53AB",
"4. c #6C71AC",
"5. c #6C5694",
"6. c #012BC9",
"7. c #0131CC",
"8. c #0436C8",
"9. c #0033D6",
"0. c #0034DA",
"q. c #063BD9",
"w. c #183AC4",
"e. c #293DC3",
"r. c #342ED8",
"t. c #003BE2",
"y. c #0039E5",
"u. c #3C28E2",
"i. c #3A3AF1",
"p. c #2F1DC1",
"a. c #7313C2",
"s. c #4735CB",
"d. c #5531CF",
"f. c #533DCE",
"g. c #5731D1",
"h. c #4B32D0",
"j. c #702ACD",
"k. c #4B34EC",
"l. c #6D27F3",
"z. c #1D43C3",
"x. c #0944DD",
"c. c #1A4ADA",
"v. c #1B53D8",
"b. c #2555DA",
"n. c #2D4FCA",
"m. c #3567DA",
"M. c #2C64DC",
"N. c #0347E7",
"B. c #0853E7",
"V. c #004DF2",
"C. c #0153F5",
"Z. c #0A5AF3",
"A. c #0054F9",
"S. c #0759F4",
"D. c #1653E5",
"F. c #334FF0",
"G. c #1D63E7",
"H. c #0964F5",
"J. c #1971EF",
"K. c #2566E8",
"L. c #257DEB",
"P. c #2C73ED",
"I. c #4E52D0",
"U. c #6F47D2",
"Y. c #526BCE",
"T. c #6870CC",
"R. c #5559EB",
"E. c #6464E1",
"W. c #7171E3",
"Q. c #5769EA",
"!. c #8F108F",
"~. c #A112B1",
"^. c #C90194",
"/. c #CB008F",
"(. c #D925AF",
"). c #997B94",
"_. c #92748D",
"`. c #9F65A3",
"'. c #D96989",
"]. c #9A0DD4",
"[. c #8D10CD",
"{. c #8327D9",
"}. c #9819E5",
"|. c #B112EA",
" X c #AD27E4",
".X c #C808C9",
"XX c #D103D7",
"oX c #E803CA",
"OX c #C807E7",
"+X c #CB0EF1",
"@X c #C40CF7",
"#X c #C612FB",
"$X c #D70CF2",
"%X c magenta",
"&X c #EA18EE",
"*X c #F826F7",
"=X c #CA31D6",
"-X c #BB7AD4",
";X c #8F57DF",
":X c #E34AE6",
">X c #7E88A5",
",X c #2A84EA",
"<X c #318AE8",
"1X c #1F82EA",
"2X c #5281DF",
"3X c #728BD0",
"4X c #6682E3",
"5X c #81869B",
"6X c #998796",
"7X c #B48F92",
"8X c #8889A5",
"9X c #9999B8",
"0X c #928CAE",
"qX c #AC92A9",
"wX c #B6A6B4",
"eX c #99A1BC",
"rX c #CC9884",
"tX c #D2A68C",
"yX c #ECB485",
"uX c #F3B987",
"iX c #E5B28D",
"pX c #CBB2AF",
"aX c #E29AAC",
"sX c #BDC2BD",
"dX c #F5C494",
"fX c #EEC597",
"gX c #F7D5A8",
"hX c #EECFAE",
"jX c #8F95CE",
"kX c #9DABD9",
"lX c #A7A8C9",
"zX c #B5B5CB",
"xX c #B8BAD6",
"cX c #ADB0CD",
"vX c #B6B7E1",
"bX c #AAB2E2",
"nX c #B98CD5",
"mX c #CDB4D6",
"MX c #E8A0E1",
"NX c #BEC4CE",
"BX c #BAC8E2",
"VX c #C7C8CC",
"CX c #C6C8D7",
"ZX c #D5D7DD",
"AX c #D5CCCE",
"SX c #D9DCE3",
"DX c #CBCEE6",
"FX c #E4E4E2",
"GX c #E5E8EA",
"HX c #F4F8F3",
"JX c #EDEEEC",
"KX c #E4DED8",
"LX c None",
/* pixels */
"LXLXLXLXLXLXLXLXLXLXLXLXLXLXLX|.u.9.9.9.0.0.0.0.0.9.9.t.V.A.A.C.A.A.C.C.A.R.|.%X%X%XLXLXLXLXLXLXLXLXLXLXLXLXLXLXLXLXLXLXLXLXLXLX",
"LXLXLXLXLXLXLXLXLXLXLXLXLXLXLXLXl.u.u.r.6.8.8.7.9.9.0.0.N.C.V.C.Z.Z.H.H.Z.F.}.#X#X#X#XLXLXLXLXLXLXLXLXLXLXLXLXLXLXLXLXLXLXLXLXLX",
"LXLXLXLXLXLXLXLXLXLXLXLXLXLXLXLXLXLX|.}. ..._ ..7.0.0.0.0.t.q.x.b.M.M.M.K.F.F.k.i.F.i.i.i.l.LXLXLXLXLXLXLXLXLXLXLXLXLXLXLXLXLXLX",
"LXLXLXLXLXLXLXLXLXLXLXLXLXLXLXLXLXLXLXLX*. .| @.X.8.7.7.9.0.0.x.b.m.m.m.m.J.S.A.H.H.H.H.H.F. XLXLXLXLXLXLXLXLXLXLXLXLXLXLXLXLXLX",
"LXLXLXLXLXLXLXLXLXLXLXLXLXLXLXLXLXLXLXLXLXLXOX[. ..._ X.7.0.0.0.z.v.m.m.G.S.A.H.J.,X1XL.1X,XQ.R.R.l.LXLXLXLXLXLXLXLXLXLXLXLXLXLX",
"LXLXLXLXLXLXLXLXLXLXLXLXLXLXLXLXLXLXLXLXLXLXLX$X*.} / _ X.6.6.6.7.x.v.v.B.x.x.B.K.L.,X,X,X<X<X1XH.F. XLXLX}.+.} [.LXLXLXLXLXLXLX",
"LXLXLXLXLXLXLXLXLXLXLXLXLXLXLXLXLXLXLXLXLXLXLXLXLX[.} ' _ .._ X.7.7.o._ _ ....o.B.H.H.J.,X<X<X,X1X,XQ.Q.R.i...' } a.LXLXLXLXLXLX",
"LXLXLXLXLXLXLXLXLXLXLXLXLXLXLXLXLXLXLXLXLXLXLXLXLXLXa.} ' ' ^ ..X.o.] 5 -.-.-.,.x.t.N.B.G.L.<X<X<X<X<X1XH.S.o._ ' } [.LXLXLXLXLX",
"LXLXLXLXLXLXLXLXLXLXLXLXLXLXLXLXLXLXLXLXLXLXLXLXLXLXLX[.} ^ ^ / _ ] t Z U rX7X_.,._ ..X.8.D.L.<X<X<X<X,XL.J.B.8.../ } LXLXLXLXLX",
"LXLXLXLXLXLXLXLXLXLXLXLXLXLXLXLXLXLXLXLXLXLXLXLXLXLXLXLXa.} _ / ..] t G ! Q Q tX1.-.-.] w.q.G.,X,X<X<X<X,X,XJ.B.o._ ' | LXLXLXLX",
"LXLXLXLXLXLXLXLXLXLXLXLXLXLXLXLXLXLXLXLXLXLXLXLXLXLXLXLXLX].} _ X.o.] r G R Q yXE 7XrX5Xn.y.C.J.,X<X,X<X<X<X,XJ.B.x._ | LXLXLXLX",
"LXLXLXLXLXLXLXLXLXLXLXLXLXLXLXLXLXLXLXLXLXLXLX@X@X@X@XLX+X}. .X.7.6...[ Z Y W yXtX7XpX0Xb.y.V.S.J.L.L.L.L.,X<X1XH.N.o. .+XLXLXLX",
"LXLXLXLXLXLXLXLXLXLXLXLXLXLXLXLXLXLXLXLXl.u.u.u.u.u.u.k.k.r.6.6.9.6...[ Z K Y G 3.m.Y.K.V.V.A.A.A.Z.H.H.Z.J.L.L.H.C.V.i.|.LXLXLX",
"LXLXLXLXLXLXLXLXLXLXLXLXLXLXLXOXOXOXOX}.p.8.9.0.0.0.9.9.9.9.9.9.0.7...] y D D 5.O.0.V.C.Z.Z.A.S.K.J.Z.A.A.Z.J.P.H.A.A.k.#XLXLXLX",
"LXLXLXLXLXLXLXLXLXLXLXLXLX} | | | #.#.} ....6.0.9.q.9.9.9.9.0.0.9.9.7.8.e.>.>.O.8.y.V.Z.K.K.S.K.4X3XK.A.A.C.H.Z.A.A.A.F.#XLXLXLX",
"LXLXLXLXLXLXLXLXLXLXLXLXLX| | } ^ ^ 1 ^ 1 _ X.8.6.8.q.q.c.x.0.0.q.y.t.q.q.t.y.y.y.N.V.Z.b.G.N.K.3X4XK.V.A.A.A.C.A.A.A.F.}.LXLXLX",
"LXLXLXLXLXLXLXLXLXLXLXLXLXLXOX[.) > , , , 3 / .._ o.n.M.M.v.q.0.N.V.V.B.G.b.V.V.V.V.C.V.N.x.N.x.G.c.N.y.V.A.A.A.A.A.A.N.@.a.LXLX",
"LXLXLXLXLXLXLXLXLXLXLXLXLXLXLXLX*.) 4 4 , , < ^ 1 ` >.M.M.>.x.q.N.V.S.L.Q.2XK.Z.A.A.A.V.y.q.c.b.b.b.q.t.N.V.V.V.A.A.A.N.o. .LXLX",
"LXLXLXLXLXLXLXLXLXLXLXLXLXLXLXLXLXLXXX[.4 > , , , 1 _ +._ ;.8.0.t.x.G.2XkXbX2XJ.Z.C.A.V.y.c.T.3XkX4Xb.0.t.t.t.N.V.A.A.N.q.h.LXLX",
"LXLXLXLXLXLXLXLXLXLXLXLXLXLXLXLXLXLXLXLX*.) ) 4 , > 1 ^ 1 ' X.8.9.q.G.2XkXkXY.G.Z.A.V.B.D.Y.jXVXDXbXW.b.8.6.9.x.N.V.A.V.c.k.LXLX",
"LXLXLXLXLXLXLXLXLXLXLXLXLXLXLXLXLXLXLXLXLXLXXX[.4 > > , , < / ..7.q.B.K.Q.2XP.S.C.V.y.D.T.jXCXGXGXGXDXjX>.X.8.q.t.q.N.v.Y.;XLXLX",
"LXLXLXLXLXLXLXLXLXLXLXLXLXLXLXLXLXLXLXLXLXLXLXLX*.4 > > > , 1 { 6.t.V.A.b.G.S.A.A.V.y.b.3XNXFXHXHXHXHXNX-.1 _ ;.7.8.X.,.0XnXLXLX",
"LXLXLXLXLXLXLXLXLXLXLXLXLXLXLXLXLXLXLXLXLXLXLXLXLX[.4 > > , ~ / 6.t.V.A.Z.Z.C.A.C.V.y.b.3XwXSXHXHXHXHXVXr % $ 2 o.X.3 w 8X-XLXLX",
"LXLXLXLXLXLXLXLXLXLXLXLXLXLXLXLXLXLXLXLXLXLXLXLXLXLX*.) 3 ~ ~ { 6.N.V.A.A.A.A.A.C.V.y.b.3XzXFXHXJXHXHXNXe + + $ ....$ u 5XnXLXLX",
"LXLXLXLXLXLXLXLXLXLXLXLXLXLXLXLXLXLXLXLXLXLXLXLXLXLXLX].p.X.6.9.N.V.A.A.C.C.A.A.A.N.y.n.3XzXFXHXHXHXHXsXe . O $ 1 ' $ u >XnXLXLX",
"LXLXLXLXLXLXLXLXLXLXLXLXLXLXLXLXLXLX|.OXOX|.@X|.#X#X@X}.i.y.0.y.V.A.A.C.A.A.A.A.A.V.t.c.T.lXFXHXHXHXHXsXe . . % -.-.% u >XqXLXLX",
"LXLXLXLXLXLXLXLXLXLXLXLXLXLXLXLXLX| | | }  .r.u.u.u.k.u.N.C.V.V.A.A.A.A.A.A.A.A.C.V.0.x.m.3XSXHXHXHXHXsXe + + e eX8Xu u >X-XLX%X",
"LXLXLXLXLXLXLXLXLXLXLXLXLXLXLXLXLX} [ 5 5 ] @.>.>.>.x.y.N.V.V.V.V.V.V.V.V.V.V.B.b.m.n.Y.Y.3XBXGXGXHXHXNXU e e y sXpXy e 1.`.].XX",
"LXLXLXLXLXLXLXLXLXLXLXLXLXLXLXLXLX~.`.Z Z A D D D 2.Y.v.x.0.y.y.y.y.t.0.t.y.y.z.1.G 7X7X7XpXzXCXGXHXHXFXAXzXsXpXtXU 6X1.-.5 4 ) ",
"LXLXLXLXLXLXLXLXLXLXLXLXLXLXLXLXLXLXP T Y Y T K Z t 3.c.9.0.0.6.6.X.6.6.9.8.z.3.G ! yXdXdXiXwXzXZXFXGXGXGXJXJXhXE U 6X5.3 > , 3 ",
"LXLXLXLXLXLXLXLXLXLXLXLXLXLXLXL '.'.! W W W ! G <.) ( { 6.9.9.6.{ ~ { { 6.n.5.G R Q gXgXgXgXiXiXiXhXAXDXDXZXhXdXyXU r 3 , , { X.",
"LXLXLXLXLXLXLXLXLXLXLXLXLXLXP K Y R Q yXW W tX7X5.4 5 [ n.m.m.I.@.} ~ ( { @.A Y W dXgXgXgXgXfXdXfXfXAXCXVXAXfXdXdX7Xr 4 4 | h.u.",
"LXLXLXLXLXLXLXLXLXLXLXLXLXP K Y R Q uXQ R R qXqX).).G 6XcXbXbXBXzX0X] ~ ~ ) r G E uXdXfXgXgXgXgXgXhXhXhXhXhXhXgXgXfXT S ~.OX@X@X",
"LXLXLXLXLXLXLXLXLXLXLXLXS K U R yXyXyX! R 7XwXwXrXrXiXhXKXKXVXVXZXcX3.} ( ( 7 t T ! yXdXgXgXgXgXgXgXgXgXgXgXhXfXfXiXrX(.LXLXLX%X",
"LXLXLXLXLXLXLXLXLXLXLXLXS Z R yXuXQ R R pXAXxXlX).6XpXKXKXVX6X8XeXzXcX>X[ ~ 3 5 t G W uXdXuXfXfXfXdXdXdXuXiX! R R rX(.LXLXLXLXLX",
"LXLXLXLXLXLXLXLXLXLXLXLXLXS U E yXQ Y E AXZXCXlX>X6XVXFXFXVX0X5XeXmXZXcX] ~ ~ ~ 5 t U E W W W W W W E yXyX! P '.S LXLXLXLXLXLXLX",
"LXLXLXLXLXLXLXLXLXLXLXLXLXLXS U E yXQ iXhXSXxXlXlXzXZXSXFXKXVXVXVXZXDXjX| ~ ~ ~ 3 5 t H K T Y Y T T T Y T P (.LXLXLXLXLXLXLXLXLX",
"LXLXLXLXLXLXLXLXLXLXLXLXLXLX!.y R W yXiXAXCXcXlXxXDXSXFXFXFXFXFXFXKXDXjX<.( ( ( ( [ 9 A G T K K K K K K K L LXLXLXLXLXLXLXLXLXLX",
"LXLXLXLXLXLXLXLXj j LXLXLXLXd.<.G Y T rXmXCXlXlXmXDXSXFXFXFXFXFXFXFXDXlX5.<.r <.r r r 1.0X7XJ n n n n n n C oXLXLXLXLXLXLXLXLXLX",
"LXLXLXLXLXLXh * = = = k .X}.s.-.t Z H ).wXxXjX0XkXbXvXxXvXvXvXvXvXvXkXjX4.1.r 1.2.1.1.2.0XqXP n n n n n n C (.LXLXLXLXLXLXLXLXLX",
"LXLXLXLXLXh p = p = i - =.h.} [ 5 r 5 5.lXcX8X2.T.W.E.E.E.E.E.E.E.E.E.R.I.3.<.2.8X8X1.2.0XcXpXaXn n n n n b l =.XXLXLXLXLXLXLXLX",
"LXLXLXLXh = ; c c c c A [ +.] 2 2 ( ) -.jXjX4.3.4.E.E.R.R.E.I.R.I.I.U.I.r.I.3.4.0XT.2._.0XzXSXAX'.LXn n n v : 8 ~.XXLXLXLXLXLXLX",
"LXLXLXh i a F 6XwXpXpXqX<.[ 2 2 2 2 2 [ E.E.T.T.jXjXLXLXLXLXLXkXjX0XD _.T.s.I.I.I.E.0X9X9XcXSXMX:XLXC n m a X & 8 V LXLXLXLXLXLX",
"LXLXLX= a A qXxXNXNXBXjX3.[ 2 [ [ ] [ 3.j.;X;XLXLXLXLXLXLXLXLXLXLXLXLXLX{.k.r.r.i.I.jXlXcXBXMXMXLXLXLXm f ; X O + 7 LXLXLXLXLXLX",
"LXLXM x A qXVXNX9X>Xm.Y.4.4.[ [ @.I.I.U. X$XLXLXLXLXLXLXLXLXLXLXLXLXLXLXLX Xh.c.n.I.jXwXNXmX:X*XLXLXLXm d - X O O 7 .XLXLXLXLXLX",
"oXLXk ; _.xXZXzX1.5 ..n.;X`.3.s.U.;X;XLXLXLXLXLXOXLXLXLXLXLXLXLXLXLXLXLXLXLX{.h.r.I.T.lXMXMX*XLXLXLXN d p * X O O 7 .XLXLXLXLXLX",
"M g p x ).NXZXwX<.1 _  .=X=XU.U. XLXLXLXLXLX[.$.$.%.$.$.$.$.$.$.LXLXLXLXLXLXLX|.g.z.n.U.:X*XLXLXLXLXz i = * X O O 7 .XLXLXLXLXLX",
"= = = x _.cXZXzX<.2 1 | @XLXLXLXLXLXLXLX+X]. .} | $.$.$.$.$.$.#.} #.LXLXLXLXLX}.h.z.;.d.|.LXLXLXLXLXN a - * o # O 7 XXLXLXLXLXLX",
"= = i x _.cXCXmXkX4.2 4 XXLXLXLXLXLX[.$.$.#.} | ].OXOXOXOX+XOX].#.} #.[.LXLXLXs.e.O.O.d.$XLXLXLXLXLX`._.u X o     7 .XLXLXLXLXLX",
"= = = x _.lXxXvXCXjX<.=.LXLXLXLXLX].| +.#.$.&.[.LXLXLXLXLXLX%XOX$.` ' $.LXLXd.;.z.O.O.I.=X*XLXLXLX:XnX8Xq     . O 7 .XLXLXLXLXLX",
"i i i x ).lXlXlXmXNXkX-X&XLXLXLX[.| } $.].OXLXLXLXLXLXLXLXLXLXLX$.` ` $.LXLXg.z.:.O.O.I.bXaXV N `.nXlX_.e   o O O 0 LXLXLXLXLXLX",
"i = i x D 0X9XlXbXxXwX-X=XXXOX].#.` ` %.$X%XLXLXLXLXLXLXLXLXLXLXLX$.$.a.|.}.s.w.>.z.n.W.DXpXc x ).jX8X1.% # # @ 8 0 LXLXLXLXLXLX",
"= i = d c A 8XlXlXqXG c 0 9 #.&.} +.` %.OXLXLXLXLXLXLXLXLXLXLXLXLXLXOX|.j.s.e.>.w.n.3XxXSXpXc x ).8Xr % @ O O 8 ~.XXLXLXLXLXLXLX",
"i i i p s v '.7X7X).c x : 7 ) ` ` ` ` %.OXLXLXLXLXLXLXLXLXLXLXLXLXLXLX Xs.;.z.w.w.Y.kXCXmXP x x ).5Xq . O O O 7 XXLXLXLXLXLXLXLX",
"= = = i s v I J J b v z ^.~.#.` ` } ` %.$XLXLXLXLXLXLXLXLXLXLXLXLXLX{.s.e.:.e.O.w.I.kXwXA x p x ).5Xq   o O O 7 .XLXLXLXLXLXLXLX",
"= p x x l f m m C I H B &X$X%.` ` } +.$.}.$XLXLXLXLXLXLXLXLXLXLX+X}.s.:.w.>.w.n.>.T.bXqXc = = c ).5Xq @ # O + 7 .XLXLXLXLXLXLXLX",
"= ; D D x d f v G 7X6X`.*X$X%.` ` } O.@.s.{.$XLXLXLXLXLXLXLX{.d.d.s.e.:.w.w.:.n.T.jXvXwXc = = x ).8Xe O #     0 .XLXLXLXLXLXLXLX",
"z N _._.V c c S 0XlXzXnX(..Xa.&.@.+.O.O.z.s. X+X+X+X+X+X+X}.s.;.:.:.:.:.:.>.>.3.0XlXwXD x = = x D 1.% O   & 8 0 LXLXLXLXLXLXLXLX",
"oX^.N c D 6X).0X9XlXCXwXV B .X|.h.O.z.z.;.e.s.d.g.d.d.d.g.s.e.:.:.>.w.z.O.O.<.2.0X0XA x p i i - u % @ O   8 ~.oXLXLXLXLXLXLXLXLX",
"LXLXz ; F 6X9XlXcXmXSXpXc h /..Xj.h.e.w.z.:.;.;.;.:.;.;.;.:.:.:.:.e.s.g.d.d.`.4.)._.l = = = i * X   # #   7 XXLXLXLXLXLXLXLXLXLX",
"LXLXj = a A 6XxXCXSXSXpXc p h B .X}.I.w.;.;.z.z.;.;.;.;.;.;.;.;.:.s.}.+XOX+X$X=X_.t ; = i i i * X .     O 7 .XLXLXLXLXLXLXLXLXLX",
"LXLXLXg i a A 6XpXhXpXrXv = = h ^..Xj.g.g.g.g.g.d.d.d.d.d.d.d.d.d.{.$XLXLXLXLX&X Xt ; = i i i * X @ #   + 7 .XLXLXLXLXLXLXLXLXLX",
"LXLXLX^.g i a c V H I J v d = p g B .X$X#X+X+X+X+X+X+X+X+X+X+X+XLXLXLXLXLXLXLXLXLX^.k = i i i * X # # O + 8 LXLXLXLXLXLXLXLXLXLX",
"LXLXLXLXB g p i d f m m v s d = = g ^.oXoXLXLXLXLXLXLXLXLXLXLXLXLXLXLXLXLXLXLXLXLXLXB h p i i * X # # @ 8 !.LXLXLXLXLXLXLXLXLXLX",
"LXLXLXLXLX/.h = = d f v f s = = = p g M M z z LXLXLXLXLXLXLXLXLXLXLXLXLXLXLXLXLXLXLXLX^.g = i * X   # 8 ~.XXLXLXLXLXLXLXLXLXLXLX",
"LXLXLXLXLXLXLXg p = d s s a d d p p = = = = = h /.oXoXLXLXLXLXLXLXLXLXLXLXLXLXLXLXLXLXLXB h p * X O + 7 .XLXLXLXLXLXLXLXLXLXLXLX",
"LXLXLXLXLXLXLXLXg = = d p d s s s d p = = = = p g j M j j j j k k LXLXLXLXLXLXLXLXLXLXLXLX^.g * X . + 8 .XLXLXLXLXLXLXLXLXLXLXLX",
"LXLXLXLXLXLXLXLXLXj j h p i d s s d p = i = i = = = = = = p g j j B LXLXLXLXLXLXLXLXLXLXLXLXLXk 7 7 8 B LXLXLXLXLXLXLXLXLXLXLXLX",
"LXLXLXLXLXLXLXLXLXLXLX^.g = = p p p i i i i i i i = = = = g ^.LXLXLXLXLXLXLXLXLXLXLXLXLXLXLXLXLXLX.X.XLXLXLXLXLXLXLXLXLXLXLXLXLX",
"LXLXLXLXLXLXLXLXLXLXLXLXLXLXj M z g p = = i i = i i i = = k ^.LXLXLXLXLXLXLXLXLXLXLXLXLXLXLXLXLXLXLXLXLXLXLXLXLXLXLXLXLXLXLXLXLX",
"LXLXLXLXLXLXLXLXLXLXLXLXLXLXLXLXLX^.g = i i = i = i = i i p k M j j j B LXLXLXLXLXLXLXLXLXLXLXLXLXLXLXLXLXLXLXLXLXLXLXLXLXLXLXLX",
"LXLXLXLXLXLXLXLXLXLXLXLXLXLXLXLXLXoXj = = i i i i i i i i i = = = = = k oXLXLXLXLXLXLXLXLXLXLXLXLXLXLXLXLXLXLXLXLXLXLXLXLXLXLXLX"
};
