/* XPM */
static char *result[] = {
/* columns rows colors chars-per-pixel */
"64 72 255 2 ",
"   c #1A1B16",
".  c #1E283C",
"X  c #7D0000",
"o  c #7E0901",
"O  c #780F15",
"+  c #74222B",
"@  c #00005A",
"#  c #020565",
"$  c #020A77",
"%  c #02157A",
"&  c #151676",
"*  c #2D0978",
"=  c #21285F",
"-  c #56335E",
";  c #3C434D",
":  c #4C514F",
">  c #595577",
",  c #6E556E",
"<  c #746E73",
"1  c #6E475E",
"2  c #3F413E",
"3  c #810101",
"4  c #85000A",
"5  c #890B0A",
"6  c #990A07",
"7  c #8D1413",
"8  c #941818",
"9  c #961012",
"0  c #A41C19",
"q  c #A10E0D",
"w  c #95002A",
"e  c #98012C",
"r  c #9E003C",
"t  c #9B0236",
"y  c #8A1E28",
"u  c #A70A3D",
"i  c #88262B",
"p  c #932E30",
"a  c #A62323",
"s  c #D11E1B",
"d  c #CA231B",
"f  c #CF2C2B",
"g  c #ED2F29",
"h  c #EF251F",
"j  c #F2483B",
"k  c #ED4436",
"l  c #D64E3F",
"z  c #A00040",
"x  c #AB1A46",
"c  c #AC2A52",
"v  c #B80071",
"b  c #A12A60",
"n  c #8C4D54",
"m  c #B04F4B",
"M  c #B36F5A",
"N  c #944A69",
"B  c #986A6F",
"V  c #AB756F",
"C  c #A55D5C",
"Z  c #CF5149",
"A  c #ED524C",
"S  c #D17D59",
"D  c #D67079",
"F  c #E2636F",
"G  c #BE3D40",
"H  c #B78779",
"J  c #CE8B5D",
"K  c #D79B77",
"L  c #CE9168",
"P  c #EC9A74",
"I  c #E6AB7B",
"U  c #E8B07B",
"Y  c #DDA577",
"T  c #021984",
"R  c #041B95",
"E  c #1A1D9D",
"W  c #171D9C",
"Q  c #0D1289",
"!  c #390283",
"~  c #2C0F96",
"^  c #01218C",
"/  c #01259B",
"(  c #1B219E",
")  c #16249C",
"_  c #1C2289",
"`  c #30318D",
"'  c #0218AB",
"]  c #2A1CA3",
"[  c #3819A8",
"{  c #361DB5",
"}  c #0126A7",
"|  c #012AB7",
" . c #0534B7",
".. c #193DBC",
"X. c #1630A7",
"o. c #2C31AF",
"O. c #491AB1",
"+. c #5518B6",
"@. c #5516B8",
"#. c #441BAF",
"$. c #6E0DB7",
"%. c #4D2CB9",
"&. c #6F39BB",
"*. c #603894",
"=. c #39458C",
"-. c #1840BE",
";. c #2946B6",
":. c #354AAF",
">. c #4E5493",
",. c #6B598A",
"<. c #67688C",
"1. c #797796",
"2. c #6A6A95",
"3. c #4B47B0",
"4. c #6F73B6",
"5. c #5F5C9E",
"6. c #002DCB",
"7. c #0129C6",
"8. c #0131CC",
"9. c #0436C8",
"0. c #0033D6",
"q. c #0034DA",
"w. c #063CDA",
"e. c #173AC5",
"r. c #322ECF",
"t. c #003BE2",
"y. c #0039E5",
"u. c #3C28E2",
"i. c #3A3BE2",
"p. c #3D3FFA",
"a. c #2F1DC1",
"s. c #4734CB",
"d. c #5732CD",
"f. c #5632D2",
"g. c #4A31CC",
"h. c #4C38E7",
"j. c #6732E7",
"k. c #6F33EF",
"l. c #7012C0",
"z. c #1D44C4",
"x. c #0944DC",
"c. c #1C4BDB",
"v. c #1C55DE",
"b. c #184DCC",
"n. c #2344C3",
"m. c #3756C7",
"M. c #3844DD",
"N. c #2555DA",
"B. c #2751CE",
"V. c #3567DA",
"C. c #2B64DC",
"Z. c #0347E7",
"A. c #0853E7",
"S. c #004DF2",
"D. c #0153F5",
"F. c #0A5AF3",
"G. c #0054F9",
"H. c #0759F4",
"J. c #1A5AE0",
"K. c #3A41E1",
"L. c #334FF0",
"P. c #1D63E7",
"I. c #1B73EC",
"U. c #0964F5",
"Y. c #166DF2",
"T. c #2566E8",
"R. c #257DEB",
"E. c #2C73ED",
"W. c #445DC5",
"Q. c #5154DB",
"!. c #5671CD",
"~. c #6977CC",
"^. c #4E51F1",
"/. c #7A46E6",
"(. c #536DED",
"). c #9200BA",
"_. c #B314B7",
"`. c #C80091",
"'. c #C7008C",
"]. c #E83ABB",
"[. c #9A7D91",
"{. c #8E758C",
"}. c #A168A0",
"|. c #D27B8A",
" X c #D159AE",
".X c #8F0ECF",
"XX c #A613D7",
"oX c #8124DC",
"OX c #9818E5",
"+X c #AE1CF0",
"@X c #972EF1",
"#X c #B529E9",
"$X c #C90CD0",
"%X c #C907E9",
"&X c #C90EF1",
"*X c #C514FD",
"=X c #D60CF4",
"-X c magenta",
";X c #D72DE3",
":X c #BD7DD4",
">X c #AF74CE",
",X c #844BE7",
"<X c #8B62D2",
"1X c #F271F3",
"2X c #7D85A5",
"3X c #2A84EA",
"4X c #318AE8",
"5X c #1F82EA",
"6X c #5281DF",
"7X c #748BD1",
"8X c #6682E3",
"9X c #8D8796",
"0X c #BA938C",
"qX c #8888A8",
"wX c #989BB7",
"eX c #9091B0",
"rX c #B397B2",
"tX c #B4A6B4",
"yX c #BCA19F",
"uX c #CFA68E",
"iX c #ECB48B",
"pX c #CEB1B3",
"aX c #E5B5B4",
"sX c #DD8E9C",
"dX c #BDC2BD",
"fX c #F5C695",
"gX c #EEC495",
"hX c #F7D6A8",
"jX c #EED0B0",
"kX c #CFC0B7",
"lX c #898DCB",
"zX c #8F99CE",
"xX c #9BA7D5",
"cX c #A9A8C8",
"vX c #B9B9D7",
"bX c #B1B1CF",
"nX c #ACB9E3",
"mX c #C3B5CE",
"MX c #DBA2D9",
"NX c #BEC4D2",
"BX c #BDC2E3",
"VX c #C9C8CB",
"CX c #C5C6D9",
"ZX c #D4CFD5",
"AX c #C8CBE4",
"SX c #D9DBE2",
"DX c #CBD5EB",
"FX c #DDE3E7",
"GX c #E2E3E2",
"HX c #E4E9E9",
"JX c #F2F6F2",
"KX c #F5F9F4",
"LX c #EDEEEC",
"PX c #E7DADC",
"IX c None",
/* pixels */
"IXIXIXIXIXIXIXIXIXIXIXIXIXIXIXIXIXIXIXIXIXIX-X-X-X*Xh.G.H.D.G.D.D.G.G.S.t.q.q.q.q.q.q.q.q.0.q.u.IXIXIXIXIXIXIXIXIXIXIXIXIXIXIXIX",
"IXIXIXIXIXIXIXIXIXIXIXIXIXIXIXIXIXIXIXIX*X*X+X*X*X@XL.H.F.U.F.F.S.S.S.Z.q.q.0.0.8.9.7.9.r.u.u.IXIXIXIXIXIXIXIXIXIXIXIXIXIXIXIXIX",
"IXIXIXIXIXIXIXIXIXIXIXIXIXIXIXIXIX=Xk.L.^.p.p.p.h.L.L.T.C.C.T.C.x.w.t.t.q.q.q.8.| / } { OXIXIXIXIXIXIXIXIXIXIXIXIXIXIXIXIXIXIXIX",
"IXIXIXIXIXIXIXIXIXIXIXIXIXIXIX*X*X@XL.U.G.U.U.U.G.H.T.V.V.V.V.N.x.0.q.0.6.9.8.| ] [ [ IXIXIXIXIXIXIXIXIXIXIXIXIXIXIXIXIXIXIXIXIX",
"IXIXIXIXIXIXIX%X@.l.%XIXIX=Xk.^.(.(.E.I.5XI.I.I.U.G.H.P.C.C.b.w.w.0.q.8.| / / ] .X%XIXIXIXIXIXIXIXIXIXIXIXIXIXIXIXIXIXIXIXIXIXIX",
"IXIXIXIXIXIX=X.X] ] OX*X*X@XL.Y.5X4X4X3X3X3X3XI.A.Z.x.x.b.B.w.0.6.6.8.| / R ] l.IXIXIXIXIXIXIXIXIXIXIXIXIXIXIXIXIXIXIXIXIXIXIXIX",
"IXIXIXIXIX=X$.] R } i.^.(.(.E.5X3X4X4X3XY.U.U.A. .} } } }  .9.8.| / } / ^ ] .XIXIXIXIXIXIXIXIXIXIXIXIXIXIXIXIXIXIXIXIXIXIXIXIXIX",
"IXIXIXIXIX.X] ^ }  .D.Y.R.4X4X4X4X3X3XP.x.Z.x.b.:.=.=.=.> )  .| } T T / ] $.IXIXIXIXIXIXIXIXIXIXIXIXIXIXIXIXIXIXIXIXIXIXIXIXIXIX",
"IXIXIXIX$.] ^ } 9.A.I.3X3X3X4X4X4XE.J.9. .} } o.9XH 0XH V , ` / ^ T ^ ] .XIXIXIXIXIXIXIXIXIXIXIXIXIXIXIXIXIXIXIXIXIXIXIXIXIXIXIX",
"IXIXIXIX[ ^ }  .A.Y.R.4X4X4X4X4XR.P.Z.e.` =.=.<.uXfXiXK V , ) / / R ] l.IXIXIXIXIXIXIXIXIXIXIXIXIXIXIXIXIXIXIXIXIXIXIXIXIXIXIXIX",
"IXIXIX%X[ / 9.A.I.3X3X4X4X4X4XR.Y.H.y.n.qX0X0X0XU U P M > `  .| / [ .XIXIXIXIXIXIXIXIXIXIXIXIXIXIXIXIXIXIXIXIXIXIXIXIXIXIXIXIXIX",
"IXIXIX+X{ -.S.F.3X3X3XR.R.R.R.I.F.S.y.m.eXuXyXuXY Y J B & } 6.8.} { OXIXIXIXIXIXIXIXIXIXIXIXIXIXIXIXIXIXIXIXIXIXIXIXIXIXIXIXIXIX",
"IXIXIX*Xh.S.S.U.R.3XY.F.H.U.F.H.G.G.D.F.V.V.Q.5.V J S B ` } 6.0.8.6.u.u.u.u.h.u.u.u.u.IXIXIXIXIXIXIXIXIXIXIXIXIXIXIXIXIXIXIXIXIX",
"IXIXIX*XL.G.G.H.I.I.F.G.G.H.T.T.F.G.F.F.G.S.y.e.,.B B , ` } 8.0.q.q.0.0.0.0.q.0.0.0.6.r.OXIXIXIXIXIXIXIXIXIXIXIXIXIXIXIXIXIXIXIX",
"IXIXIX*Xh.G.G.G.F.U.G.G.G.I.8X7XT.G.P.T.H.S.y.e.e.:.n.e.9.6.0.q.q.0.q.0.0.w.0.q.q.8.} } ] [ #.[ [ ] [ IXIXIXIXIXIXIXIXIXIXIXIXIX",
"IXIX%XOXL.G.G.G.G.G.G.G.G.I.7X8XT.Z.N.P.H.D.Z.t.y.t.w.w.w.t.t.q.q.w.w.c.w.w.9.6.8.| / % % T % T ] [ [ IXIXIXIXIXIXIXIXIXIXIXIXIX",
"IXIX$.o.Z.G.G.G.G.G.G.S.Z.w.N.c.Z.y.Z.x.H.G.S.S.D.A.v.J.S.S.S.Z.x.x.J.C.C.B.X.} } R $ # # # @ ~ .XIXIXIXIXIXIXIXIXIXIXIXIXIXIXIX",
"IXIX{  .Z.G.G.D.D.S.S.Z.y.w.c.N.K.c.t.y.S.G.G.G.H.P.6X6XT.F.D.S.q.x.;.m.C.;./ % T % # # * ! * IXIXIXIXIXIXIXIXIXIXIXIXIXIXIXIXIX",
"IXIXu.0.S.G.G.D.Z.q.Z.w.q.N.8XzXlX!.c.y.S.G.G.F.P.6XxXnX6Xv.Z.q.q.9. .X.X.^ $ # # # @ * .XIXIXIXIXIXIXIXIXIXIXIXIXIXIXIXIXIXIXIX",
"IXIXj.v.S.S.S.Z.q.0.6.x.N.(.nXSXCXzX!.c.S.S.S.F.P.6XnXxX6Xv.x.8.8.| / % % % # @ * ! ! IXIXIXIXIXIXIXIXIXIXIXIXIXIXIXIXIXIXIXIXIX",
"IXIX<X!.v.t.w.t.Z.8.| :.zXDXFXHXHXCXxX!.N.y.D.G.H.T.(.6XT.A.w.6.} R $ # # # @ * ).%XIXIXIXIXIXIXIXIXIXIXIXIXIXIXIXIXIXIXIXIXIXIX",
"IXIX:X2X:.| 8.8. .} % =.BXKXKXJXKXGXvX2XN.y.S.G.D.F.T.P.H.S.t.7.} % # @ @ # * $.IXIXIXIXIXIXIXIXIXIXIXIXIXIXIXIXIXIXIXIXIXIXIXIX",
"IXIX:XqX= =  . .& . . : NXKXJXJXJXGXmX7XN.y.S.G.G.G.H.F.G.S.t.7.R Q # @ @ * ).IXIXIXIXIXIXIXIXIXIXIXIXIXIXIXIXIXIXIXIXIXIXIXIXIX",
"IXIXrX2X2 = } } .     : dXKXJXJXJXGXmX~.N.y.S.G.G.G.G.G.G.S.Z.6.' Q Q $ * $.IXIXIXIXIXIXIXIXIXIXIXIXIXIXIXIXIXIXIXIXIXIXIXIXIXIX",
"IXIX:X9X2 . % % .     : dXKXKXJXJXGXvX7XB.y.Z.G.D.G.D.G.D.G.S.Z.7.7.7.a..XIXIXIXIXIXIXIXIXIXIXIXIXIXIXIXIXIXIXIXIXIXIXIXIXIXIXIX",
"IXIX:XqX2 . =.=..     : dXKXKXJXJXSXxX4.c.t.S.G.G.G.D.G.G.G.G.D.y.y.y.u.OXIXIXIXIXIXIXIXIXIXIXIXIXIXIXIXIXIXIXIXIXIXIXIXIXIXIXIX",
"-XIX:X2X2 2 wXwX:     : dXKXJXJXKXDX7XV.x.t.S.G.G.G.G.G.D.G.G.D.S.S.S.S.u.h.h.u.u.u.O.[ [ [ IXIXIXIXIXIXIXIXIXIXIXIXIXIXIXIXIXIX",
"$XXX}.<.: < dXkX< : : < VXKXKXLXFXNXzX!.m.m.m.N.Z.S.S.S.S.S.S.S.S.S.S.Z.Z.x.w.q.6.' ' R ] [ [ IXIXIXIXIXIXIXIXIXIXIXIXIXIXIXIXIX",
"! ! * > 2.9XH uXdXdXNXVXHXJXKXHXNXbXyXyXyX0XV 2.n.y.t.q.Z.t.w.t.y.y.y.x.v.C.C.b.W Q Q ~ XXIXIXIXIXIXIXIXIXIXIXIXIXIXIXIXIXIXIXIX",
"$ $ @ & 5.[.H K jXJXLXHXHXHXPXPXpXyXgXfXfXiXK V 5.e.w.q.7.7.7.7.6.0.q.0.z.B.;.;.` ` ~ *.IXIXIXIXIXIXIXIXIXIXIXIXIXIXIXIXIXIXIXIX",
" .R $ @ % > |.U fXjXZXDXAXZXjXgXgXiXjXhXhXfXgXL V 5.n.6.' R Q ' 7.q.q.7.' R R ` {.0X0XsXsXsXsXsXIXIXIXIXIXIXIXIXIXIXIXIXIXIXIXIX",
"u.u.[ * = - 0XfXfXgXVXZXCXVXiXfXgXgXhXjXhXhXgXI S C *.#.* * [ o.Q.V.V.W.` ~ ` ,.0XiXU U P iXU Y L D IXIXIXIXIXIXIXIXIXIXIXIXIXIX",
"+X&X%X_.N M iXhXhXjXjXjXjXjXhXhXhXhXhXhXfXfXfXP A g G c x m rXbXnXnXNXcX0X0X0X0XtXyXL J J L J L Y Y |.}.&.IXIXIXIXIXIXIXIXIXIXIX",
"-XIXIXIX XsXuXgXgXhXjXhXhXhXhXhXhXhXfXiXP P P J A h g j A F pXSXVXVXPXPXjXiXuXyXtXtX0XH M C C J Y U J C &.IXIXIXIXIXIXIXIXIXIXIX",
"IXIXIXIXIX].|.L L Y iXfXfXfXfXfXfXiXA A j j k k g g l S iXaXmXwX9XeXVXGXPXkX9X9XcXmXZXuXB 1 n C uXI J D IXIXIXIXIXIXIXIXIXIXIXIX",
"IXIXIXIXIXIXIXD D D K I U I P P P P j g h g g k g l m 0XVXSXmXwX1.eXVXHXHXVXqX9XcXAXSXVXV n B V K K D IXIXIXIXIXIXIXIXIXIXIXIXIX",
"IXIXIXIXIXIXIXIXIX].D J J S A j j g g g h g Z Z n n n B bXZXZXCXVXVXZXGXGXZXbXcXcXbXSXkXH M L K J D IXIXIXIXIXIXIXIXIXIXIXIXIXIX",
"IXIXIXIXIXIXIXIXIXIXIXD M G d d s s s h f l M B N 1 1 1.cXAXSXGXGXGXGXGXGXSXAXvXcXbXCXVXH M K K V }.IXIXIXIXIXIXIXIXIXIXIXIXIXIX",
"IXIXIXIXIXIXIXIXIXIXIXIXx 7 6 6 6 q q 8 n , , < < > , 1.cXAXSXGXGXGXGXGXGXSXZXvXbXcXCXtXV C H H ,.&.IXIXIXIXIXIXIXIXIXIXIXIXIXIX",
"IXIXIXIXIXIXIXIXIXIXIX`.e X X X X o O + > <.2.<.<.> > 1.cXmXSXGXSXSXPXSXSXAXBXbXwXwXvXcX<.1 n ,.=.g.+XIXIXIXIXIXIXIXIXIXIXIXIXIX",
"IXIXIXIXIXIXIXIXIXIXv w 4 X X 3 X O 1 1 > <.qXqX2.> <.1.eXbXCXAXCXAXAXCXAXBXbXwX1.qXbXcX>.* - - ` ( %.d.f.f.s.IXIXIXIXIXIXIXIXIX",
"IXIXIXIXIXIXIXIXIX'.w X X X 3 3 3 + , 2.<.1.qXeX1.2.>.5.2XwXzXxXxXxXxXxXBXmXcXeX,.5.eX4.>.& _ _ & _ X.X.X.X.s.IXIXIXIXIXIXIXIXIX",
"IXIXIXIXIXIXIXIXv w 4 X 3 X 3 3 3 i {.eXwXqX1.1.qX2XW.:.B.m.W.W.W.W.W.~.xXCXbXqX>.` ` >.` _ & _ _ & & % % ~ IXIXIXIXIXIXIXIXIXIX",
"IXIXIXIXIXIXIXIXw X X 3 3 3 X 4 e b [.cXwX2X<.5.2X7X:.-...e.-.-.e.e.e.m.7XxXlX4.` _ W _ & & & & & & ! ! * IXIXIXIXIXIXIXIXIXIXIX",
"IXIXIXIXIXIXIXe 4 X X 3 3 3 X e `.IXrXeX2X2.:.:.3.m.n.-.z.-.-.-.;.e.-.n.W.W.W.:.o.....) & @ # # # ! ).IXIXIXIXIXIXIXIXIXIXIXIXIX",
"IXIXIXIXIXIXIXX X 3 3 3 3 X X z IXIXIX>X5.=.;.b.e...s.f.d.d.d.d.f.d.d.g.r...-.-.z.;.n.o.Q & ! ! ! IXIXIXIXIXIXIXIXIXIXIXIXIXIXIX",
"IXIXIXIXIXIXr X X 3 3 X X X X r IXIXIX#X&.;.;.z.-.s.+X&X&X&X&X&X&X&X&XOXs.-.-.-...n.n...X.%..XIXIXIXIXIXIXr r r IXIXIXIXIXIXIXIX",
"IXIXIXIXIXIXr X X 3 4 5 3 X X r IXIXIX&Xf.......s.oXIXIXIXIXIXIXIXIXIX=Xj.d.d.%.e.n.e.n.n.f.+XIXIXIXIXIXt X X X o w IXIXIXIXIXIX",
"IXIXIXIXIXIXr X X 5 8 7 4 3 X r IXIXIX&Xd...X.%.XXIXIXIXIXIXIXIXIXIXIXIXIXIX&X+Xs.n.n.M.M.s.j./.>X:X:X}.y X X X X 4 w IXIXIXIXIX",
"IXIXIXIXIXIXIXX X 5 8 8 9 9 p b IXIXIX=Xd.X.( O.XXIXIXIXIXIXIXIXIXIXIXIXIXIXIXIXoXf.j.j.h.i.i.Q.7XzXcX[.i X 4 3 3 X X r IXIXIXIX",
"IXIXIXIXIXIXIXX X 5 8 0 s A sXsXIXIXIX%X+.X.( ] { .XIXIXIXIXIXIXIXIXIXIXIXIXIXIXIXIX=X+Xj.M.i.M.Q.~.lX[.i 3 3 3 X X X r IXIXIXIX",
"IXIXIXIXIXIXIXe 4 o 7 0 f A aXAX1XIXIX=X@.E ( ( ( @.IXIXIXIXIXIXIXIXIX%X%X%XIXIXIXIXIX=X@Xh.Q.h.i.Q.lX[.i X 3 X 3 X X e IXIXIXIX",
"IXIXIXIXIXIXIX`.e X X q s F aXPXPX1XIX=X@.( E E ) +.%X-XIXIXIXIXIXIX.XO.+.+.+.l.IXIXIXIXIX+Xj.i.i.Q.lX[.i 3 3 3 3 3 3 4 w IXIXIX",
"IXIXIXIXIXIXIXIXr X X 6 s A aXFXLXMX].$X&.:.] E ( O.XX&X%X%X%X%X%XXX#.) ( ) ) O.IXIXIXIXIXIXk.M.h.Q.lX[.i 3 3 3 3 X 3 X X IXIXIX",
"IXIXIXIXIXIXIXIXr X X 5 0 m pXHXHXMXF F sXlX3.W E ] O.+.@.@.@.@.+.O.] ( ( ) ) O.IXIXIXIXIXIXk.M.M.Q.zX[.p 3 3 X 3 3 3 X X r IXIX",
"IXIXIXIXIXIXIXIXIXw 4 3 5 c pXFXPXaXA A aXBX4.%.] ( ( ( ( ( ( ( ( ( ( ( ( ] { .XIXIXIXIXIXIXk.i.i.Q.lX[.i 3 3 3 3 X 3 X X z IXIX",
"IXIXIXIXIXIXIXIXIX`.e X X p rXDXSXaXA A aXFXCXlX:._ E E ( ( ] ( ( ( ( ( ) #.XXIXIXIXIXIXIXIXk.i.h.Q.lX[.i X 3 3 3 3 3 X X z IXIX",
"IXIXIXIXIXIXIXIXIXIXr o i C rXAXSXaXA A aXFXFXmX4.%.3.o.] ( ( ( ( ] O.+.+.IXIXIXIXIXIXIXIX+Xf.i.i.Q.4.B i X 3 3 X 3 3 3 X z IXIX",
"IXIXIXIXIXIXIXIXIXIXt y {.tXvXAXSXaXA A pXAXAXBXcXlXlX4.` ( ( ( ) [ XX%XIXIXIXIXIXIXIXIX@Xj.h.i.K.Q.N p 5 3 3 X 3 3 3 X X z IXIX",
"IXIXIXIXIXIXIXIXIXIXIXb rXBXAXAXDXMXA A |.tXBXBXBXbXcX~.&.+.@.@.+..XIXIXIXIXIXIXIXIXIX+Xh.i.M.Q.&.*.p 8 4 3 3 3 3 3 X X X r IXIX",
"IXIXIXIXIXIXIXIXIXIXIX].MXAXBXAXAXpXA g k D mXBXbXxX7X,X#X=X=X%XIXIXIXIXIXIXIXIXIX/.k.j.Q.M.M.d.b G a 9 4 X 3 3 3 3 X X X IXIXIX",
"IXIXIXIXIXIXIXIXIXIXIXIX XcXvXvXrX|.G g h A |.rX9X}.<X@X*X;XIXIXIXIXIXIXIXIX=X+X/.Q.M.Q.j.k.k.IXIXIXa 8 5 X X 3 3 X X 4 w IXIXIX",
"IXIXIXIXIXIXIXIXIXIXIXIXIXm tXcXN p a a h f m p i b $X*X@X,X,X,X,X,X,X,X,Xk.k.Q.h.M.M.h.+XIXIXIXIXIXa 0 5 X 3 3 3 X X w IXIXIXIX",
"IXIXIXIXIXIXIXIXIXIXIXIXIXx }.[.y 3 9 0 f f 0 5 o u IXIXIXIX,X,X,X,X,X,X,X,Xk.k.k.j.k.@XIXIXIXIXIXf 0 9 3 3 3 X X 4 w IXIXIXIXIX",
"IXIXIXIXIXIXIXIXIXIXIXIXIXIXb y o 3 3 7 0 0 7 3 X t IXIXIXIXIXIXIXIXIXIXIXIXIXIXIXIXIXIXIXIXIXx a a 7 3 3 3 3 X X w IXIXIXIXIXIX",
"IXIXIXIXIXIXIXIXIXIXIXIXIXIXIXw 3 X X 4 7 7 3 4 w IXIXIXIXIXIXIXIXIXIXIXIXIXIXIXIXIXIXIXIXd 0 7 8 8 4 X 3 3 X 4 w IXIXIXIXIXIXIX",
"IXIXIXIXIXIXIXIXIXIXIXIXIXIXIX`.w X X 3 5 X X w `.IXIXIXIXIXIXIXIXIXIXIXIXIXIXIXIXIXIXIXf 8 7 3 4 5 X X X X X w IXIXIXIXIXIXIXIX",
"IXIXIXIXIXIXIXIXIXIXIXIXIXIXIXIXv w 4 X X 3 w v IXIXIXIXIXIXIXIXIXIXIXIXIXIXIXIXIXIXIXd 0 7 3 X X X X 4 e r IXIXIXIXIXIXIXIXIXIX",
"IXIXIXIXIXIXIXIXIXIXIXIXIXIXIXIXIX`.w X X w `.IXIXIXIXIXIXIXIXIXIXIXIXIXIXIXIXx 9 q 6 6 5 3 X X X X X w IXIXIXIXIXIXIXIXIXIXIXIX",
"IXIXIXIXIXIXIXIXIXIXIXIXIXIXIXIXIXIXIXr r IXIXIXIXIXIXIXIXIXIXIXIXIXIXIXIXd 0 7 3 X X X 3 4 t z z r r IXIXIXIXIXIXIXIXIXIXIXIXIX",
"IXIXIXIXIXIXIXIXIXIXIXIXIXIXIXIXIXIXIXIXIXIXIXIXIXIXr r r r r t 9 6 6 6 6 6 5 3 3 X X X X e IXIXIXIXIXIXIXIXIXIXIXIXIXIXIXIXIXIX",
"IXIXIXIXIXIXIXIXIXIXIXIXIXIXIXIXIXIXIXIXIXIXIXIXt X X X X X X X X X X X X X X X 3 3 3 X X z IXIXIXIXIXIXIXIXIXIXIXIXIXIXIXIXIXIX"
};
