/* XPM */
static char *result[] = {
/* columns rows colors chars-per-pixel */
"64 70 256 2 ",
"   c #171914",
".  c #1C222F",
"X  c #2F3432",
"o  c #1B1D1E",
"O  c #7D0000",
"+  c #750000",
"@  c #040158",
"#  c #030365",
"$  c #001176",
"%  c #0C0C70",
"&  c #2B0D74",
"*  c #1D2966",
"=  c #56265B",
"-  c #3B424E",
";  c #444B4C",
":  c #52507A",
">  c #6D4D6D",
",  c #6D6E6F",
"<  c #59617B",
"1  c #810102",
"2  c #87060A",
"3  c #8C0118",
"4  c #941918",
"5  c #8B1012",
"6  c #930026",
"7  c #9C0737",
"8  c #982322",
"9  c #9A3439",
"0  c #AC2221",
"q  c #B02F2F",
"w  c #AA1D22",
"e  c #F12D1D",
"r  c #D82726",
"t  c #CE2D2E",
"y  c #EB2A26",
"u  c #F12C25",
"i  c #F02C28",
"p  c #FD2E24",
"a  c #F12839",
"s  c #EB3A34",
"d  c #D4231F",
"f  c #EC4937",
"g  c #A50049",
"h  c #AB0057",
"j  c #B5006B",
"k  c #BB0077",
"l  c #9C315E",
"z  c #F42258",
"x  c #F1254A",
"c  c #F51D73",
"v  c #F22952",
"b  c #AC524F",
"n  c #B96C53",
"m  c #885D69",
"M  c #AE736E",
"N  c #9E616C",
"B  c #E84B4B",
"V  c #CD5B7C",
"C  c #D06C7C",
"Z  c #DB6460",
"A  c #CB885D",
"S  c #DC8F5C",
"D  c #CF916E",
"F  c #E3A878",
"G  c #F1B47E",
"H  c #E1966F",
"J  c #040487",
"K  c #001E8D",
"L  c #001485",
"P  c #000694",
"I  c #041D93",
"U  c #1A1C9D",
"Y  c #151288",
"T  c #02218A",
"R  c #012293",
"E  c #05279B",
"W  c #1A219D",
"Q  c #14259B",
"!  c #17359B",
"~  c #2C348E",
"^  c #0219B2",
"/  c #281EA3",
"(  c #341DA8",
")  c #2807A5",
"_  c #0025A4",
"`  c #032BAA",
"'  c #1C24A3",
"]  c #012AB8",
"[  c #1A39B6",
"{  c #0B35B5",
"}  c #2121A0",
"|  c #2527AA",
" . c #2930B3",
".. c #33068D",
"X. c #66009E",
"o. c #4C17B3",
"O. c #5013B2",
"+. c #6C07AE",
"@. c #531D9D",
"#. c #1B42BF",
"$. c #1844B8",
"%. c #0A42B4",
"&. c #2C49B3",
"*. c #354C95",
"=. c #4B4E8F",
"-. c #6E6B8F",
";. c #4446A5",
":. c #5554B0",
">. c #5264B5",
",. c #7173AF",
"<. c #695990",
"1. c #002CC7",
"2. c #0031CB",
"3. c #0339C8",
"4. c #0033D5",
"5. c #0135D9",
"6. c #023ADB",
"7. c #093AD6",
"8. c #1333D3",
"9. c #273DC2",
"0. c #363EDC",
"q. c #3436C9",
"w. c #003BE4",
"e. c #3D3EE1",
"r. c #3131E6",
"t. c #121FC1",
"y. c #7A13C7",
"u. c #6B13C7",
"i. c #4D32D1",
"p. c #7228D9",
"a. c #761CEA",
"s. c #4A3DE2",
"d. c #5A37E4",
"f. c #5137F6",
"g. c #6D31EC",
"h. c #4A1ECE",
"j. c #1D40C2",
"k. c #0744D8",
"l. c #1346DB",
"z. c #1555DA",
"x. c #2040C0",
"c. c #2A41CD",
"v. c #3A42DC",
"b. c #2558D9",
"n. c #2D57CF",
"m. c #3669D9",
"M. c #2968DA",
"N. c #0045EB",
"B. c #014AED",
"V. c #0346E5",
"C. c #1459E9",
"Z. c #004CF3",
"A. c #0153F6",
"S. c #0054F9",
"D. c #095AF5",
"F. c #1157ED",
"G. c #3B41E1",
"H. c #2B54ED",
"J. c #0B61F4",
"K. c #176AEE",
"L. c #247AEB",
"P. c #2F70E6",
"I. c #4D50D3",
"U. c #5671D0",
"Y. c #686CD1",
"T. c #4C49E3",
"R. c #6D4FE7",
"E. c #6D6DE0",
"W. c #4E70E1",
"Q. c #A527B7",
"!. c #C40088",
"~. c #CC0197",
"^. c #D201A4",
"/. c #D700B0",
"(. c #ED21A6",
"). c #8C7A8F",
"_. c #A868A4",
"`. c #D56D89",
"'. c #D45A88",
"]. c #8811CC",
"[. c #980ED4",
"{. c #8D10CF",
"}. c #AA06D3",
"|. c #981CE3",
" X c #921BF2",
".X c #BB17F6",
"XX c #AD14E8",
"oX c #8F27EC",
"OX c #B42CEE",
"+X c #9F24DD",
"@X c #EB0AD0",
"#X c #EE2ACD",
"$X c #CA07E9",
"%X c #DA03EC",
"&X c #DB0AF6",
"*X c #CD11F7",
"=X c #E507F8",
"-X c #FE00FE",
";X c #F603FB",
":X c #E60AEE",
">X c #EF29F1",
",X c #CD17DF",
"<X c #BD70D6",
"1X c #8E50DC",
"2X c #C476D3",
"3X c #E74BE0",
"4X c #2B85E9",
"5X c #318AE8",
"6X c #7792D3",
"7X c #6088E0",
"8X c #7E8BBE",
"9X c #909198",
"0X c #B4958C",
"qX c #898BA5",
"wX c #9192B5",
"eX c #B5A8B5",
"rX c #AEA0A9",
"tX c #CE928D",
"yX c #EF9799",
"uX c #D3AB90",
"iX c #F4BC8A",
"pX c #E7B088",
"aX c #D192A9",
"sX c #D0B4B5",
"dX c #EB8FAB",
"fX c #F5C595",
"gX c #EFC396",
"hX c #D9C3B8",
"jX c #F7D6A8",
"kX c #EDD0B2",
"lX c #9796CA",
"zX c #A796C4",
"xX c #8DA2D4",
"cX c #A6A7C7",
"vX c #B9B9D5",
"bX c #AFB0D0",
"nX c #AFB5E2",
"mX c #8788E0",
"MX c #D5AED0",
"NX c #BEC4E3",
"BX c #B7C5DE",
"VX c #CAC9D8",
"CX c #D5D5D9",
"ZX c #CEC7CD",
"AX c #E5D4CB",
"SX c #EBE3DA",
"DX c #C7C9E3",
"FX c #D8D9E3",
"GX c #CDD5E3",
"HX c #DAE4E8",
"JX c #E5E6E4",
"KX c #EDF1EE",
"LX c #F4F8F3",
"PX c #E9EEF1",
"IX c #E7C0EC",
"UX c None",
/* pixels */
"UXUXUXUXUXUXUXUXUXUXUXUXUXUXUXUXUX-XoXD.S.S.S.S.S.S.J.m.W.m.m.m.m.k.5.5.5.5.5.w.2.` K K I ].UXUXUXUXUXUXUXUXUXUXUXUXUXUXUXUXUXUX",
"UXUXUXUX%X%XUXUXUXUXUXUXUXUXUX*X*X.XR.H.D.D.J.J.A.V.V.M.m.m.m.M.b.7.5.5.5.2.1.1.1.| ( ( o.}.UXUXUXUXUXUXUXUXUXUXUXUXUXUXUXUXUXUX",
"UXUXUXUX+.u.XXUXUXUXUXUXUX;X Xf.T.E.W.L.L.L.L.L.z.{ 3.F.K.m.m.z.7.7.5.5.4.] _ E ' u.}.$XXXUXUXUXUXUXUXUXUXUXUXUXUXUXUXUXUXUXUXUX",
"UXUXUX$Xo.U ].&XUXUXUX*X*X*Xg.K.K.4X5X5X4X4XL.P.n.*.! k.V.b.b.7.4.2.2.2.] _ K U O.XXUXUXUXUXUXUXUXUXUXUXUXUXUXUXUXUXUXUXUXUXUXUX",
"UXUXUX$XO.R / +.$X=X Xf.R.W.W.L.4X4X5X5X4XK.z.$.*.9X-.! ] k.w.7.1.] _ _ _ T U +.XXUXUXUXUXUXUXUXUXUXUXUXUXUXUXUXUXUXUXUXUXUXUXUX",
"UXUXUX$XO.K T U {..XR.J.4X4X4X4X5X4X4XL.J.V.3.| -.F 0X=.Q { 2.5.2._ R T I U o.XXUXUXUXUXUXUXUXUXUXUXUXUXUXUXUXUXUXUXUXUXUXUXUXUX",
"UXUXUX$XO.T T E r.f.H.4X4X4X5X4X5X5XP.z.k.` *.).uXpXF m : ! ] 2.2.E K T } y.XXUXUXUXUXUXUXUXUXUXUXUXUXUXUXUXUXUXUXUXUXUXUXUXUXUX",
"UXUXUX$XO.R R ` k.D.L.4X5X5X5X5X4X4Xz.3.{ ! , uXG iXF A m ~ _ 1.1._ K L / }.UXUXUXUXUXUXUXUXUXUXUXUXUXUXUXUXUXUXUXUXUXUXUXUXUXUX",
"UXUXUX$Xo.E { k.C.L.4X5X5X5X5X4XL.K.k.` *.).uXiXiXiXF A m * _ 2.2._ K L ) }.UXUXUXUXUXUXUXUXUXUXUXUXUXUXUXUXUXUXUXUXUXUXUXUXUXUX",
"UXUXUX$Xo.` k.D.L.4X4X4X4X4X4X4XK.A.3.` >.tXuXuXpXpXH A m ~ ^ 1.2.` K P ) [.=XUXUXUXUXUXUXUXUXUXUXUXUXUXUXUXUXUXUXUXUXUXUXUXUXUX",
"UXUXUX*Xi.k.A.D.L.4XL.K.J.K.J.J.D.S.V.7.n.>.6X>.).D S A m * _ 2.4.1.] ] t.h.a.p.a.UXUXUXUXUXUXUXUXUXUXUXUXUXUXUXUXUXUXUXUXUXUXUX",
"UXUXUX*Xf.S.S.J.K.4XJ.S.S.D.D.J.D.A.A.D.D.A.V.6.;.).M M m ~ _ 2.5.5.4.4.5.5.5.6.r. X=XUXUXUXUXUXUXUXUXUXUXUXUXUXUXUXUXUXUXUXUXUX",
"UXUXUX&Xf.S.S.S.J.K.D.S.S.D.P.7XP.J.D.K.F.S.w.5.8.;.:.=.&.[ ] 2.4.5.5.5.5.5.4.4.5.r.a.g.a.UXUXUXUXUXUXUXUXUXUXUXUXUXUXUXUXUXUXUX",
"UXUX;X.XT.S.S.S.S.A.S.S.S.D.7XxX7XF.C.M.H.S.Z.6.2.5.7.8.7.5.4.5.5.5.5.6.6.6.6.4.4.5.7.4.8.a.UXUXUXUXUXUXUXUXUXUXUXUXUXUXUXUXUXUX",
"UXUX}.h.r.S.S.S.S.S.S.S.Z.V.b.W.H.V.V.z.C.A.Z.Z.N.N.N.l.l.N.N.N.w.5.7.l.b.b.z.k.5.l.z.k.5.r. XUXUXUXUXUXUXUXUXUXUXUXUXUXUXUXUXUX",
"UXUXO.` k.S.S.S.S.S.S.Z.V.6.7.l.l.w.7.w.B.A.S.S.S.A.K.m.P.F.S.S.B.w.7.b.m.n.n.l.8.b.n.l.5.5.8.a.UXUXUXUXUXUXUXUXUXUXUXUXUXUXUXUX",
"UXUXh.] V.S.S.S.N.N.N.V.w.5.H.W.Y.U.n.6.w.S.S.S.A.C.7X6X6XP.F.F.N.5.3.#.$.$.$.{ ` [ #.3.5.7.4.r. XUXUXUXUXUXUXUXUXUXUXUXUXUXUXUX",
"UX*Xd.6.B.A.S.Z.V.5.4.5.6.l.7XnXbXlXU.l.N.S.S.S.F.M.7XBXBX7Xb.7.5.5.2.` T T R R R R E ] 4.4.4.4.8.a.UXUXUXUXUXUXUXUXUXUXUXUXUXUX",
"UX&X1Xm.C.N.N.N.w.4.2.{ m.6XnXFXFXVXxXU.b.Z.Z.Z.D.K.W.xX6XP.C.7.5.5.2._ T T R K R T R ` ] ] ] ] ] q.y.UXUXUXUXUXUXUXUXUXUXUXUXUX",
"UX>X<X6Xn.4.5.5.5.3._ %.lXGXLXPXLXPXVXlXU.l.w.S.S.S.K.m.L.J.Z.w.5.5.1._ I T K R K T K K R K R R I K U UXUXUXUXUXUXUXUXUXUXUXUXUX",
"UX>X<XqX*.T { 2.` T * * 9XKXLXLXLXKXCXcXY.7.w.S.S.S.D.C.F.D.Z.6.2.^ ^ L $ $ $ $ $ $ L $ % % $ $ $ # % +.UXUXUXUXUXUXUXUXUXUXUXUX",
"-X>X<XqX; * _ { * .   X 9XKXLXKXLXPXCXlXU.l.w.A.S.A.S.D.S.S.Z.w.1.^ J # # # # # # # # # # # # # # # % UXUXUXUXUXUXUXUXUXUXUXUXUX",
"-X>X<XqX; . T E * o   X 9XLXLXLXLXKXCXeXY.l.w.S.S.S.S.S.A.S.A.N.5.^ P I L # @ @ @ @ # ..X.+.+.X.X.X.+.UXUXUXUXUXUXUXUXUXUXUXUXUX",
"-X>X<XqX; . * T X o   X 9XKXLXKXKXKXVXcXU.7.w.S.S.S.S.A.S.S.S.A.Z.5.4.5.] J # # @ @ @ ].%XUXUX:XUXUXUXUXUXUXUXUXUXUXUXUXUXUXUXUX",
"-X>X2XqX; X : >.- o   X 9XKXLXLXLXPXBX6Xm.5.w.A.S.S.S.S.S.S.S.S.S.N.N.N.8.o.X.X.X.X.+.$XUXUXUXUXUXUXUXUXUXUXUXUXUXUXUXUXUXUXUXUX",
"-X>X<XqX; X 9XvX, o   X 9XKXLXKXLXKXnX7Xz.k.w.Z.S.S.S.S.S.S.S.S.S.Z.A.A.H. X%X%X:X:XUXUXUXUXUXUXUXUXUXUXUXUXUXUXUXUXUXUXUXUXUXUX",
"}.{.:.<.: , rXhX9X, , , eXKXLXLXJXGXcX8X,.>.>.>.n.N.Z.N.N.B.Z.Z.B.B.B.Z.r..XUXUXUXUXUXUXUXUXUXUXUXUXUXUXUXUXUXUXUXUXUXUXUXUXUXUX",
"& & & * -.9X0XuXgXCXCXCXJXLXLXKXGXbXeXuXuXuX0XM <.9.w.w.w.5.5.w.6.w.6.6.r..XUXUXUXUXUXUXUXUXUXUXUXUXUXUXUXUXUXUXUXUXUXUXUXUXUXUX",
"$ $ @ # =.-.M D jXSXKXHXHXHXSXAXhXeXuXgXjXfXG H M :.#.7.2.1.^ t.^ ] ^ ^ t.u.}.UXUXUXUXUXUX3X3XUXUXUXUXUXUXUXUXUXUXUXUXUXUXUXUXUX",
"1.^ $ @ # : M F gXgXZXGXGXGXZXgXgXpXjXjXjXjXfXF D M <.[ 1.P P P P P P P P ) O.XXUX3XyXyXyXyXyXyXyXtXC UXUXUXUXUXUXUXUXUXUXUXUXUX",
"d.h.O.X.& > 0XgXfXgXhXCXVXVXkXgXgXfXfXjXjXjXfXfXF M > [ ^ P Y ~ ;.;.;.;.;.=.@.Q.3XdXuXF G F F F F H D '.#XUXUXUXUXUXUXUXUXUXUXUX",
"$X*X$X}.l M uXjXjXjXjXkXkXkXkXjXjXjXjXjXjXfXfXgXD N > Y P P / wXvXvXvXbXeX0XtXyXyXsXrXtXA A A A A H pXH `.UXUXUXUXUXUXUXUXUXUXUX",
"-XUXUXUX(.`.uXgXgXgXfXjXjXjXjXjXjXjXjXjXfXgXpXD M > & J Y / ,.bXCXZXZXCXSXkXgXuXuXrXcXrXD n n b n A S S n c UXUXUXUXUXUXUXUXUXUX",
"UXUXUXUXUX#X`.D D D pXiXiXgXgXgXfXfXgXfXfXgXD N > & % J ~ wXbXbXwXqX9XZXJXSXhX9X9XwXvXZXhXM 9 0 0 t f f s (.UXUXUXUXUXUXUXUXUXUX",
"UXUXUXUXUXUX(.`.V V tXF F F F F F F F F F F M > & J J J ;.bXFXvXeXqX9XvXJXJXCXwX).lXvXGXCXC 8 4 w d e p i c UXUXUXUXUXUXUXUXUXUX",
"UXUXUXUXUXUXUXUX#X#X`.A A A A A A A S A M m > & % J J J  .zXFXFXVXvXZXCXJXJXCXVXcXcXbXCXCXM 9 0 r y u e i a z z UXUXUXUXUXUXUXUX",
"UXUXUXUXUXUXUXUXUXUX(.'.'.V V V V V M n m > = % Y % Y Y ;.lXGXFXJXJXJXFXFXHXCXGXNXbXcXBXZXC w d y i i i i i u e u UXUXUXUXUXUXUX",
"UXUXUXUXUXUXUXUXUXUXUXUXUX#X#X#X#X@XQ.)., > < : =.=.~ : -.cXDXJXJXSXJXJXSXJXCXCXvXbXcXvXMXC a y i i i i i u i e u a UXUXUXUXUXUX",
"UXUXUXUXUXUXUXUXUXUXUXUXUXUXUXUX;X&XQ.<.< <.< -.-.< < <.,.lXnXvXNXNXDXCXFXFXFXVXbXlXwXbXvX`.r d i i i i i i i i i u u z UXUXUXUX",
"UXUXUXUXUXUXUXUXUXUXUXUXUXUXUXUXUX<X_., < < -.qX9X-.=.:.I.E.E.E.E.E.mXnXCXGXVXvXeXqXqXcXbX-.= w i p p i i i i i i u i s v UXUXUX",
"UXUXUXUXUXUXUXUXUXUXUXUXUXUXUXUXUXzXqX-.-.-.qX8XqX<.:.I.0.e.0.e.s.0.T.mXnXnXlXlXlX-.<.wXwX=.% = g t t t i u i i i i i u u z UXUX",
"UXUXUXUXUXUXUXUXUXUXUXUXUXUXUXUX3XcXwXqXqXqX8XY.I.I.v.v.e.0.e.0.0.0.G.Y.E.E.E.E.I.I.:. .~ % @ @ = = = 9 y e e u u i i u u s z c ",
"UXUXUXUXUXUXUXUXUXUXUXUXUXUXUXUX3X<XlXcXwXlXY.I.e.G.s.d.d.d.d.d.d.d.d.d.d.s.G.G.G.e.0.U % % & & & & @.l v x v a i u i i i i i i ",
"UXUXUXUXUXUXUXUXUXUXUXUXUXUXUXUXUX3X<XzXlXE.I.0.e.G.g.OX.X.X.X.X.X.X.X.X Xd.v.v.e.0.0.q.( +.[.}.}.}.}.UXUXUXUXc a e i i i i i i ",
"UXUXUXUXUXUXUXUXUXUXUXUXUXUXUXUXUXUX3X_.Y.I.G.G.v.v.p.&XUXUXUXUXUXUXUXUX=XoXd.d.d.d.d.e.s. X&X=X%X;XUXUXUXUXUXUXz a i i i i i i ",
"UXUXUXUXUXUXUXUXUXUXUXUXUXUXUXUXUXUXoXY.I.v.G.G.v.c.p.&XUXUXUXUXUXUXUXUXUX*X.X.X.X.XOXg.T.g.oXoX X*XUXUXUXUXUXUXUXc x e i i i i ",
"UXUXUXUXUXUXUXUXUXUXUXUXUXUXUXUXUXUX|.q.j.v.G.T.v.q.p.&XUXUXUXUXUXUXUXUXUX;X=X&X=X=X%XoXs.s.d.T.s.oX&XUXUXUXUXUXUXUXx e u i i i ",
"UXUXUXUXUXUXUX!.UXUXUXUXUXUXUXUXUXUX|.9.j.0.c.9.i.|.*X;XUXUXUXUXUXUXUXUXUX}.y.y.y.].y.o. .a.XXg.G.d.oX*XUXUXUXUXUXUXx e e i i i ",
"UXUXUXUXUXUXh 6 ~.UXUXUXUXUXUXUXUXUX|.q.$.x.#.x.p.,X;X;XUXUXUXUXUXUXUXUX:X].( ( ( } / W ( [.&X|.d.T.T.oX=XUXUXUXUXUXUXa i i i i ",
"UXUXUXUXUXUXg 6 ~.UXUXUXUXUXUXUXUXUX|.9.$.#.#.#.i.p..X;XUXUXUXUXUXUXUXUXUXXX[.[.].o.W Q / O.].XXXXg.T.R.oX*XUXUXUXUXUXc x e i i ",
"UXUXUXUXUXUXg 6 ~.UXUXUXUXUXUXUXUXUX+Xi.x.x.x.x.x.x.p.$XUXUXUXUXUXUXUXUXUXUXUXUX%Xy.( } } W ( {.*XOXR.T.T.oX=XUXUXUXUXUXv i e i ",
"UXUXUXUXUX@Xg 6 ^.UXUXUXUX!.UXUXUXUXUX|.d. .x.x.j.$.q.p.XXUXUXUXUXUXUXUXUXUXUXUXUX$X].o.} W } O.].XXOX1XT.R.oXUXUXUXUXUXx e i i ",
"UXUXUXUXUX@Xg 6 !.UXUXUXk 6 !.UXUXUXUXUX|.q.j.9.j.x.j.c.p.$XUX;XUXUXUXUXUXUXUXUXUXUX&Xy./ Q } } ( {.=XOXR.T.T. XUXUXUXUXx u e i ",
"UXUXUXUXUX@Xh 3 g ~.UXUXj 2 !.UXUXUXUXUX|.9.j.&.x.x.$.j. .p.[.{.}.=XUXUXUXUXUXUXUXUX;X]./ W } Q / {.UXUXOX1XT.1X=XUXUXUXz e i i ",
"UXUXUXUXUX@Xh O O 6 UXUXk 3 k UXUXUXUXUXXXi.x.x.x.x.x.x. .( ( } O.$X-X-XUXUXUXUXUX-X%Xy./ Q } U / ].UXUXUXOXR.oX=XUXUXUXz e i i ",
"UXUXUXUXUXUXh O + 3 ^.UXk 3 7 !.UXUXUXUXUXoXi.x.$.j.x.x.#.[ ! ' ( y.[.[.[.[.[.[.[.[.{.O./ W } Q / ].UXUXUXUXUXUXUXUXUXUXUXc a i ",
"UXUXUXUXUXUXh O O 6 ~.@Xk 2 O 6 !.UXUXUXUXUX|.q.x.x. .#.x.[ [ ' | ( ( ( ( ( ( ( ( ( ( } } W } U ( [.UXUXUXUXUXUXUXUXUXUXUXUXz u ",
"UXUXUXUXUXUX^.h 6 2 h !.g O + 2 k UXUXUXUXUX&X|.i.x.j.#.x.#.$. .| W Q W W W Q W W U W U U U } o.].UXUXUXUXUXUXUXUXUXUXUXUXUXz u ",
"UXUXUXUXUXUXUX@Xh 2 2 3 2 O O 2 !.UXUXUXUXUXUX=X+Xi.#.#.x.x.$.#.[ | U W } } } } } } / / } } ( ].%XUXUXUXUXUXUXUXUXUXUXUXUXUXz e ",
"UXUXUXUXUXUXUXUXh O + O O O O 2 g !.^.~.UXUXUXUX&XoXp.p.p.oXp.c.$.[ ' ' ' U U U U U } ;.>.:.:.OXUXUXUXUXUXUXUXUXUXUXUXUXUXUXv e ",
"UXUXUXUXUXUXUXUXj 1 O 1 O O 1 1 2 6 3 6 k UXUXUXUX=X:X=X=X=XXXi.9.9. .| / / } } / U ( Y.cXcXwX,XUXUXUXUXUXUXUXUXUXUXUXUXUXUXz e ",
"UXUXUXUXUXUXUXUXUXh 3 O O 1 1 O O O O O g ~.^.^.^.^.@X-X-X-X=X|.p.p.p.y.u.;.:.>.Y.:.,.xXNXBXbX<X^.UXUXUXUXUXUXUXUXUXUXUXUX(.(.c ",
"UXUXUXUXUXUXUXUXUXUXh 2 O 1 1 O 1 O O 1 2 6 6 6 6 6 j @X-X-X-X;X&X&X:X:X*X_.wXvXvXvXbXnXNXDXbXN 7 !.UXUXUXUXUXUXUXUXUXUXUXc UXUX",
"UXUXUXUXUXUXUXUXUXUX~.h 3 O O 1 1 O 1 O O O O O O 1 6 ~.>X3X3X3X>X@X@X(.#X2XvXGXFXsXaXaXaXaXtXb 4 g ^.UXUXUXUXUXUXUXUXUXUXUXUXUX",
"UXUXUXUXUXUXUXUXUXUXUX/.j 1 O 1 1 O 1 1 1 O 1 1 O O 2 w '.MXIXIXdX'.x x v aXBXGXvX`.B B B B s q 4 4 7 UXUXUXUXUXUXUXUXUXUXUXUXUX",
"UXUXUXUXUXUXUXUXUXUXUXUX^.h 3 1 O O 1 O 1 O 1 2 5 2 5 4 b eXHXHXMXH B p f `.aXaXtXB i p u u y d 8 2 2 j UXUXUXUXUXUXUXUXUXUXUXUX",
"UXUXUXUXUXUXUXUXUXUXUXUXUX/.j 1 O O O 1 O 1 2 4 4 4 4 4 b eXGXHXJXAXyXB i x B B B a i u i i y d 8 5 1 j UXUXUXUXUXUXUXUXUXUXUXUX",
"UXUXUXUXUXUXUXUXUXUXUXUXUXUXUXh g g 6 1 O O 2 4 4 4 4 5 9 _.sXVXFXFXhXyXB s r r d r r r r r d 0 4 1 2 j UXUXUXUXUXUXUXUXUXUXUXUX",
"UXUXUXUXUXUXUXUXUXUXUXUXUXUXUXUX@X/.k 2 O O 1 2 2 2 2 1 4 9 N sXDXDXVXZXaXb 0 0 0 0 0 0 0 0 0 4 2 O 2 j UXUXUXUXUXUXUXUXUXUXUXUX",
"UXUXUXUXUXUXUXUXUXUXUXUXUXUXUXUXUX-X!.3 O 1 O O O O O O O 4 b zXDXVXDXFXZXn 4 4 4 8 8 8 8 8 4 5 1 O 2 k UXUXUXUXUXUXUXUXUXUXUXUX"
};
