/* XPM */
static char *result[] = {
/* columns rows colors chars-per-pixel */
"64 72 252 2 ",
"   c #1B1C18",
".  c #351816",
"X  c #2E190F",
"o  c #19221D",
"O  c #1D2121",
"+  c #17203F",
"@  c #362F34",
"#  c #141F3A",
"$  c #49120F",
"%  c #680705",
"&  c #7D0000",
"*  c #760408",
"=  c #6E0B1A",
"-  c #59123A",
";  c #6F1231",
":  c #732237",
">  c #00005B",
",  c #393B45",
"<  c #010667",
"1  c #070F76",
"2  c #301076",
"3  c #122377",
"4  c #312A7E",
"5  c #1E1947",
"6  c #55184E",
"7  c #6F2C50",
"8  c #5C2161",
"9  c #3C434D",
"0  c #4C514F",
"q  c #585378",
"w  c #71536C",
"e  c #756A73",
"r  c #5A627F",
"t  c #3F413E",
"y  c #810000",
"u  c #85000A",
"i  c #8A0C0A",
"p  c #8A1214",
"a  c #A31C19",
"s  c #AF231E",
"d  c #95002B",
"f  c #96002B",
"g  c #9A0034",
"h  c #9E003B",
"j  c #891921",
"k  c #8E262F",
"l  c #BB2624",
"z  c #A5322A",
"x  c #9B0D31",
"c  c #C62523",
"v  c #DC2925",
"b  c #C62539",
"n  c #E22A26",
"m  c #EC2B27",
"M  c #F42B25",
"N  c #F12C28",
"B  c #F92D23",
"V  c #E2382F",
"C  c #C0221F",
"Z  c #BB4739",
"A  c #E04B3A",
"S  c #A90D4F",
"D  c #B72D52",
"F  c #B32845",
"G  c #B4056D",
"H  c #8C1F4C",
"J  c #92464F",
"K  c #94566E",
"L  c #956567",
"P  c #AB756A",
"I  c #B0674D",
"U  c #C95778",
"Y  c #D07378",
"T  c #CB5D4F",
"R  c #C73A49",
"E  c #B68475",
"W  c #CD885C",
"Q  c #D2906A",
"!  c #EB9A71",
"~  c #E4A979",
"^  c #DCA578",
"/  c #001982",
"(  c #001D8C",
")  c #0B1794",
"_  c #3D0184",
"`  c #311892",
"'  c #032089",
"]  c #012397",
"[  c #16219C",
"{  c #1A239B",
"}  c #172182",
"|  c #312E92",
" . c #0317A8",
".. c #2A1DA4",
"X. c #3918AC",
"o. c #0024A2",
"O. c #0528A7",
"+. c #1925A5",
"@. c #012BB7",
"#. c #0236BA",
"$. c #1436B0",
"%. c #3A31AD",
"&. c #2B31B2",
"*. c #4B1597",
"=. c #461AB2",
"-. c #5518B8",
";. c #4416AA",
":. c #710FB6",
">. c #4C32AE",
",. c #562A9B",
"<. c #344B95",
"1. c #1B41BF",
"2. c #1743BE",
"3. c #2D47AF",
"4. c #50518F",
"5. c #6C5787",
"6. c #5D6384",
"7. c #6A6A89",
"8. c #696998",
"9. c #757193",
"0. c #6357AF",
"q. c #002ECA",
"w. c #032CC7",
"e. c #0131CB",
"r. c #0637C8",
"t. c #0033D6",
"y. c #0035DA",
"u. c #073BDA",
"i. c #1835C7",
"p. c #2B2ADD",
"a. c #352FCD",
"s. c #003BE3",
"d. c #0037E3",
"f. c #3832E8",
"g. c #7613C4",
"h. c #5531CE",
"j. c #4E31CC",
"k. c #6F1EEA",
"l. c #5E37E5",
"z. c #453EE7",
"x. c #6934E6",
"c. c #702FEE",
"v. c #742CD3",
"b. c #1D41C2",
"n. c #1945CA",
"m. c #0942DA",
"M. c #1B4BDA",
"N. c #1D56DD",
"B. c #0A47D1",
"V. c #3643DE",
"C. c #2355DB",
"Z. c #2951CD",
"A. c #3568D9",
"S. c #2B66D7",
"D. c #0349E7",
"F. c #0954E8",
"G. c #004DF3",
"H. c #0153F5",
"J. c #0A5AF3",
"K. c #0054F9",
"L. c #0759F3",
"P. c #1855E6",
"I. c #3B41E3",
"U. c #314FF1",
"Y. c #0965F4",
"T. c #1A6AEC",
"R. c #2466E8",
"E. c #257CEB",
"W. c #2B72EE",
"Q. c #186ADC",
"!. c #5256D0",
"~. c #5671CD",
"^. c #4F52EE",
"/. c #7251E4",
"(. c #6665D5",
"). c #9D0CA3",
"_. c #C90092",
"`. c #C70090",
"'. c #C7008E",
"]. c #DB2DBB",
"[. c #864F97",
"{. c #947B90",
"}. c #886FAB",
"|. c #9D66AD",
" X c #D4668D",
".X c #9D0ED6",
"XX c #8B11CF",
"oX c #AD13CE",
"OX c #9416E7",
"+X c #9819ED",
"@X c #AB19ED",
"#X c #9627F2",
"$X c #AE2CEF",
"%X c #9F26DC",
"&X c #C401D9",
"*X c #D007CE",
"=X c #E401C6",
"-X c #C807E7",
";X c #D606EB",
":X c #C60DF4",
">X c #D709F7",
",X c #C714FA",
"<X c #D816F3",
"1X c magenta",
"2X c #C82EEC",
"3X c #EA26F1",
"4X c #F92DE7",
"5X c #CF34D8",
"6X c #BB7CD3",
"7X c #B278CF",
"8X c #844CE7",
"9X c #9D6AD7",
"0X c #CC56DF",
"qX c #7D86A2",
"wX c #2A85EA",
"eX c #318AE8",
"rX c #1F83EA",
"tX c #5281DF",
"yX c #728CD0",
"uX c #6682E3",
"iX c #808498",
"pX c #9A869A",
"aX c #B49395",
"sX c #918FAA",
"dX c #AFA3B2",
"fX c #C79D8A",
"gX c #D3A689",
"hX c #ECB78B",
"jX c #F690A7",
"kX c #C4B6AE",
"lX c #EB829B",
"zX c #BDC2BD",
"xX c #F5C494",
"cX c #F1C494",
"vX c #F7D5A8",
"bX c #EED0B0",
"nX c #8E95CE",
"mX c #B08BCD",
"MX c #9FA5C1",
"NX c #9DB3DE",
"BX c #A2A6C6",
"VX c #B4B5CA",
"CX c #B09DE7",
"ZX c #BEC5CD",
"AX c #CDC9D2",
"SX c #CDD4EA",
"DX c #E4E7E8",
"FX c #F2F6F2",
"GX c #F5F9F4",
"HX c #EDEEEC",
"JX c #E3E0DF",
"KX c None",
/* pixels */
"KXKXKXKXKXKXKXKXKXKXKXKXKXKXKXKXKXKXKXKXKX1X1X>Xh.n.D.K.J.H.K.H.H.K.K.G.u.t.y.f.@X1XKXKXKXKXKXKXKXKXKXKXKXKXKXKXKXKXKXKXKXKXKXKX",
"KXKXKXKXKXKXKXKXKXKXKXKXKXKXKXKXKXKXKXKX,X,X,X+Xz.B.F.J.J.J.J.J.G.G.G.G.s.t.t.p..X-X-XKXKXKXKXKXKXKXKXKXKXKXKXKXKXKXKXKXKXKXKXKX",
"KXKXKXKXKXKXKXKXKXKXKXKXKXKXKXKXKX>Xc.U.U.^.f.U.P.F.S.R.W.S.A.C.m.s.u.y.y.y.t.i.&.;.X.g.;XKXKXKXKXKXKXKXKXKXKXKXKXKXKXKXKXKXKXKX",
"KXKXKXKXKXKXKXKXKXKXKXKXKXKXKX,X<X#XU.Y.Y.K.Y.K.D.m.R.A.A.A.S.C.m.y.y.t.q.q.q.@.] ' ' ..XX;XKXKXKXKXKXKXKXKXKXKXKXKXKXKXKXKXKXKX",
"KXKXKXKXg.g.;XKXKXKXKXKXKX,Xc.^.^.~.wXE.rXwXrXQ.2.#.F.T.S.A.M.u.y.y.y.q.@.o.o.] } 3 } } ` XX;XKXKXKXKXKXKXKXKXKXKXKXKXKXKXKXKXKX",
"KXKXKXKXX.{ XX;XKXKXKX,X,X$XU.Y.rXeXeXeXwXwXQ.Z.<.3.B.m.N.N.u.t.q.e.q.#.] ( ( ( 3 ` *.*.*.:.KXKXKXKXKXKXKXKXKXKXKXKXKXKXKXKXKXKX",
"KXKXKXoXX.( ..g.<X>Xc.U.^.^.W.rXwXeXeXwXT.F.#.<.{.9.<.@.r.m.u.e.@.] o.] ] ' } 3 3 *.oX-X*XKXKXKXKXKXKXKXKXKXKXKXKXKXKXKXKXKXKXKX",
"KXKXKX-XX.( ' ..+X#XU.rXwXeXeXeXeXwXE.Q.D.B.3.5.fX^ 6.{ @.e.y.w.o.( ' ) ..*.-.*.,.:.;XKXKXKXKXKXKXKXKXKXKXKXKXKXKXKXKXKXKXKXKXKX",
"KXKXKX-XX.' ' O.f.U.W.E.wXwXeXeXeXE.N.B.@.| {.fXhX^ E w | @.e.w.o.' ' ...X-X-X&XKXKXKXKXKXKXKXKXKXKXKXKXKXKXKXKXKXKXKXKXKXKXKXKX",
"KXKXKXoX;.] o.#.F.Y.wXeXeXeXeXeXwXQ.u.@.<.7.gXxXxX~ W L 4 ] e.w.o.' ( ;.-XKXKXKXKXKXKXKXKXKXKXKXKXKXKXKXKXKXKXKXKXKXKXKXKXKXKXKX",
"KXKXKX-XX.] r.F.E.wXwXwXeXwXeXwXY.F.#.| {.gXhXxX~ ~ W L 4 O.e.e. ./ / ;.-XKXKXKXKXKXKXKXKXKXKXKXKXKXKXKXKXKXKXKXKXKXKXKXKXKXKXKX",
"KXKXKX:X%.#.G.Y.wXwXwXE.E.E.E.T.Y.m.#.3.qXaXaXfX~ ~ W L | ] e.e. . . .X..X:X:XKXKXKXKXKXKXKXKXKXKXKXKXKXKXKXKXKXKXKXKXKXKXKXKXKX",
"KXKXKX,Xf.G.G.Y.wXwXT.J.Y.Y.J.K.K.G.D.F.A.A.A.0.E Q W L 4 O.r.t.q.w.w.w.p.j.f.k.>XKXKXKXKXKXKXKXKXKXKXKXKXKXKXKXKXKXKXKXKXKXKXKX",
"KXKXKX,X^.K.K.J.T.T.J.K.K.J.T.W.J.H.J.J.K.G.d.&.5.L L w { O.e.y.y.t.y.y.y.y.t.p.+X:X:XKXKXKXKXKXKXKXKXKXKXKXKXKXKXKXKXKXKXKXKXKX",
"KXKXKX,Xf.K.K.K.Y.Y.K.K.K.T.uXyXT.J.R.R.J.G.d.t.a.3.b.i.r.q.t.y.y.t.y.y.y.y.y.y.p.f.p.k.KXKXKXKXKXKXKXKXKXKXKXKXKXKXKXKXKXKXKXKX",
"KXKX;XOXU.K.K.K.K.K.K.K.K.W.yXuXR.H.N.C.J.G.D.y.D.s.m.m.u.d.d.d.y.y.m.m.u.u.u.u.m.m.y.p.+XKXKXKXKXKXKXKXKXKXKXKXKXKXKXKXKXKXKXKX",
"KXKX:.a.D.K.K.K.K.K.K.G.D.u.C.N.D.d.D.m.H.K.G.G.G.G.P.P.F.G.G.D.y.u.Z.S.S.N.m.u.C.N.u.u.p.k.>XKXKXKXKXKXKXKXKXKXKXKXKXKXKXKXKXKX",
"KXKXX.@.m.K.K.K.G.G.G.D.d.u.N.U.C.M.s.d.G.K.K.L.K.W.tXtXR.J.G.D.u.B.Z.S.Z.Z.i.r.Z.Z.u.y.y.p.+X>XKXKXKXKXKXKXKXKXKXKXKXKXKXKXKXKX",
"KX:Xp.t.G.K.K.H.D.y.s.d.d.P.uXnXnX(.M.d.G.K.K.J.T.~.NXNXtXR.D.y.y.e.$.O.$.] O.o.O.$.e.y.y.y.p.k.>XKXKXKXKXKXKXKXKXKXKXKXKXKXKXKX",
"KX,Xx.N.F.G.H.D.d.t.q.B.C.(.NXJXZXnX~.M.G.G.G.J.T.tXNXNXtXC.u.y.t.e.o.' ' ' ( ( ' ] @.e.e.e.e.a.OX;XKXKXKXKXKXKXKXKXKXKXKXKXKXKX",
"KX3X9X~.M.s.s.u.u.e.O.3.nXSXDXDXDXAXMX~.M.D.G.K.J.R.~.~.R.F.y.y.y.w.o.' ( ] ( ] ' ] ] O.o.o.o.O...g.;XKXKXKXKXKXKXKXKXKXKXKXKXKX",
"KX4X6XyX3.@.e.t.#.O.3 <.ZXGXGXFXGXJXZX(.C.d.G.K.K.J.T.R.J.G.d.t.w.@.( / / / / / / / / / / 1 / 1 1 ` OXKXKXKXKXKXKXKXKXKXKXKXKXKX",
"1X3X6XiX9 3 #.#.3 + + 0 ZXGXFXFXFXDXVXnXV.s.G.K.K.K.J.J.K.G.d.w. ./ 1 < < < < < < < < < > < < < < / =.XXKXKXKXKXKXKXKXKXKXKXKXKX",
"1X3X6XiX9 + ] o.+ o o 0 ZXGXFXFXFXJXVXyXC.d.G.K.G.K.K.K.K.G.D.q. .) / 1 < > < > < < 2 _ *._ _ *._ ` j.v.KXKXKXKXKXKXKXKXKXKXKXKX",
"KX3XmXiXt + 3 3 # o o 0 zXGXGXFXFXDXVXyXZ.d.G.H.K.K.K.K.K.K.G.D.q.w.w. .< > > > > 2 ).-X&X&X&XoX&X&XKXKXKXKXKXKXKXKXKXKXKXKXKXKX",
"KX3X6XiXt + <.<.+ o   0 zXGXFXFXFXJXBX~.M.d.G.K.K.H.K.H.K.K.K.G.d.d.D.d...*.*.2 2 :.-XKXKXKXKXKXKXKXKXKXKXKXKXKXKXKXKXKXKXKXKXKX",
"1X3X6XiXt 9 sXMX0     0 zXGXFXFXGXSXyXA.B.y.G.K.K.K.K.K.K.K.K.K.G.G.K.f..X&X&X&X-XKXKXKXKXKXKXKXKXKXKXKXKXKXKXKXKXKXKXKXKXKXKXKX",
"&XoX|.9.0 e kXkXe 0 0 e AXGXFXHXDXZXnX~.!.Z.Z.P.F.G.G.G.G.G.G.H.s.G.G.f.#XKXKXKXKXKXKXKXKXKXKXKXKXKXKXKXKXKXKXKXKXKXKXKXKXKXKXKX",
"_ _ 2 q 8.pXfXfXkXzXzXAXJXFXFXDXZXVXdXfXdXaXP 8.n.d.d.d.d.s.s.s.s.s.s.s.z.XXKXKXKXKXKXKXKXKXKXKXKXKXKXKXKXKXKXKXKXKXKXKXKXKXKXKX",
"1 1 > 1 4.{.P ! vXHXHXHXDXDXJXJXVXkXcXxXxX~ ! P 0.%.%.%.%.%.%.%.%.%.>.%.+.a.OX<X4X4X4X4X4X4XKXKXKXKXKXKXKXKXKXKXKXKXKXKXKXKXKXKX",
"@. .< < 3 4.P hXcXbXSXSXSXAXbXcXhXhXbXvXvXvX~ ! R D D D D D D D D D D H `  .a./. XjXjXjXjXjXjXlX XKXKXKXKXKXKXKXKXKXKXKXKXKXKXKX",
"f.a.;.2 2 0 fXxXxXcXAXAXAXAXcXhXhXcXvXvXvXvXxX! A n M M M M M B M M B b 6 2 ,.w Q ! ! ! ! ^ ~ ~ Q Y ].KXKXKXKXKXKXKXKXKXKXKXKXKX",
",X:X*XoXK P cXvXvXvXbXbXbXbXbXvXvXvXvXvXxXhXxXQ Z C n M M M M M N N B m b F D R A A A A R Z I ^ ^ ~ Y KXKXKXKXKXKXKXKXKXKXKXKXKX",
"1XKXKXKX].fXgXcXcXbXvXvXvXvXvXvXvXvXvXvXxXhXgXW z a c n m N N N N N N N N N B M N N B m l z T T Q W I U KXKXKXKXKXKXKXKXKXKXKXKX",
"KXKXKXKXKX]. X^ Q ^ hXcXvXcXcXcXxXxXhXxXxX~ P J j i a l n N N N N N N N N N M M N N N m n v V A Z z a S KXKXKXKXKXKXKXKXKXKXKXKX",
"KXKXKXKXKXKXKXU U Y ^ ~ ~ ~ ~ ~ ~ hX~ ~ ~ E w 6 - = p a c n N N N N N N N N N N m N N N N N N n s a i d _.KXKXKXKXKXKXKXKXKXKXKX",
"KXKXKXKXKXKXKXKXKX].Y W W W W W Y W W W L w 4 2 < 6 = u a c n B N N N N N N N N m N N m N N N m n c a j g h g KXKXKXKXKXKXKXKXKX",
"KXKXKXKXKXKXKXKXKXKXKXKXU  XU U I P P L J q 2 ) } 2 ; = p a c v v n m N N N N N N N N N N N N N M n l a i y * d KXKXKXKXKXKXKXKX",
"KXKXKXKXKXKXKXKXKXKXKXKXKXKXKX].[.e e w q q q q 4.q q 7 p i a s s l n M N N N N N N m N N N N N M m n c a p * y d G KXKXKXKXKXKX",
"KXKXKXKXKXKXKXKXKXKXKXKXKXKXKX3X[.7.6.6.6.6.6.7.r r r w 7 z J F k a c n v v v n N N N N N N m N N N N n c s i i & d _.KXKXKXKXKX",
"KXKXKXKXKXKXKXKXKXKXKXKXKXKXKX3X7XiX8.6.r 7.sX}.7.r r 7.{.{.dX{.k i a l s l s C n M N N N N N N N N N m n v a p y i d G KXKXKXKX",
"KXKXKXKXKXKXKXKXKXKXKXKXKXKXKX3XmXsX9.8.8.8.qXsX9.7.[.}.}.nXnXpX7 = ; : : H : H F b v v v n m N N N N N n c a p y & & d KXKXKXKX",
"KXKXKXKXKXKXKXKXKXKXKXKXKXKXKXKX6XMXsXsX(.0.8.9.sXmX5XoXh.>.3.>.*.2 4 4 4 2 4 ` *.8 k l l C n B N N N n c a p i & y & u d KXKXKX",
"KXKXKXKXKXKXKXKXKXKXKXKXKXKXKXKX0XmXnXnX(.~.6.9.|.0X2X.X;.{ { ..=.-.-.-.-.=...+.+.| 8 : : k c v v v v c a p y & y & y & & h KXKX",
"KXKXKXKXKXKXKXKXKXKXKXKXKXKXKXKXKX2X9X(.8.7.6.5.KXKXXX=...[ [ =..X-X-X;X-X.X=.$.$.&.| 2 ` 8 k l s s s a i & & y y y y & & h KXKX",
"KXKXKXKXKXKXKXKXKXKXKXKXKXKXKXKXKX<Xc.(.0.[.[.KXKXKX-.[ { ..=.XX>XKXKXKXKX>Xg.-.h.j.&.+.{ | 8 x F S D S S d u & & y y & & g _.=X",
"KXKXKXKXKXKXKXKXKXKXKXKXKXKXKXKXKX<X8X/.2XKXKXKXKXKX-.[ [ =..X;XKXKXKXKXKXKXKX;X-X.X=.{ ..{ ` ,.*X=XKXKXKX_.d & & y y y y u g h ",
"KXKXKXKXKXKXg g KXKXKXKXKXKXKXKXKX<X8X8XKXKXKXKXKXKX-.[ { -.;XKXKXKXKXKXKXKXKXKXKX;XXX=...{ { =.OXKXKXKXKXKXKXd u & & y y & & & ",
"KXKXKXKXKXKXg g KXKXKXKXKXKXKXKXKX<X8X8X<XKXKXKXKXKX-.+.[ -.;XKXKXKXKXKXKXKXKXKXKXKX>X.X=.{ { &.j.KXKXKXKXKXKXKXd & & y y y & & ",
"KXKXKXKXKXKXh g KXKXKXKXKXKXKXKXKX<X8X/.$XKXKXKXKXKXKX+.{ =..X>XKXKXKXKXKXKXKXKXKXKX1X-X-.+.+.+.$.KXKXKXKXKXKXKXKXd u y y y y y ",
"KXKXKXKXKXKXg g =XKXKXKXKXKXKXKXKXKX8X(./.$XKXKXKXKXKX[ { ..=.g.>XKXKXKXKXKXKXKXKXKXKX<Xh.&.&.2.2.KXKXKXKXKXKXKXKX_.d & y & y & ",
"KXKXKXKXKXKXh d '.KXKXKXg g KXKXKXKX$X/././.$XKXKXKXKX=...{ [ =..X;X;X-X-X-X-XKXKXKXKX:Xh.2.Z.1.1.h.KXKXKXKXKXKXKXKXh & & y y y ",
"KXKXKXKXKXKXh u d KXKXKXg g KXKXKXKXKX$Xx.!.x.+XKXKXKXKX=.[ [ ..=.-.-.-.-.-.-.g.KXKXKX:Xh.1.b.1.1.h.KXKXKXKXKXKXKXKXh & & y y y ",
"KXKXKXKXKXKXh & & S KXKXh h KXKXKXKXKX>Xx.V.V.l.@XKXKXKXKX-.-.=...[ [ [ [ [ [ -.-XKXKX<Xh.1.1.1.1.h.KXKXKXKXKXKXKXKXh & & y y & ",
"KXKXKXKXKXKXh & & h KXKXh h KXKXKXKXKX:Xx.I.V.z.l.#XKXKXKXKXKX.X;.[ [ [ { [ { -.-XKXKX:Xh.1.1.1.1.h.KXKXKXKXKXKXKXKXh & & y y y ",
"KXKXKXKXKXKXKX& & g _._.d d '.KXKXKXKXKX#Xl.z.V.I.l.@XKXKXKXKXKXKXKX-.-.-.>.>.>.5X<X-X@Xh.b.1.1.2.h.KXKXKXKXKXKXKXKXKXd u y & & ",
"KXKXKXKXKXKXKX& & u g d u u d KXKXKXKXKXKX@Xl.V.a.z.l.x.c.KXKXKXKXKXKXKXKX2X7XnX}.0.g.j.&.b.1.1.b.h.KXKXKXKXKXKXKXKXKXKXg & & & ",
"KXKXKXKXKXKXKXd u & & & & & & h KXKXKXKXKXKX#Xx.x.l.z.V.V.l.@XKXKXKXKXKXKX2XCXnX8.<.3.2.b.n.1.1.a.KXKXKXKXKXKXKXKXKXKXKXh u d h ",
"KXKXKXKXKXKXKX_.g & & & & & & h KXKXKXKXKXKXKXKX<X@Xl.V.V.^.l.k.c.c.c.c.c././.!.!.3.1.1.b.b.2.a.%XKXKXKXKXKXKXKXKXKXKXKXh d KXKX",
"KXKXKXKXKXKXKXKXh & & & & & & g _.KXKXKXKXKXKXKXKXKXOXx.x.l.^.V.V.V.V.!.f.V.f.f.b.b.1.1.| %.>.#XKXKXKXKXKXKXKXKXKXKXKXKXg h KXKX",
"KXKXKXKXKXKXKXKXg & & & y y & u d G KXKXKXKXKXKXKXKXKX>X>X$Xx.f.f.!.V.f.V.^.f.V.Z.i.n.&.6 7 oXKXKXKXKXKXKXKXKXKXKXKXKXKXg h KXKX",
"KXKXKXKXKXKXKXKXKXd u & & y y y & d _.=XKXKXKXKXKXKXKXKXKXKX#Xc.x.c.!.!.>.>.>.,.| | | 8 = d '.KXKXKXKXKXKXKXKXKXKXKXKXKXS KXKXKX",
"KXKXKXKXKXKXKXKXKXKXd & & y y & & u g h h KXKXKXKXKXKXKXKXKX>X>X>X$X9X}.7 ; ; ; ; ; ; = y * - ).KXKXKXKXKXKXKXKXKXKXKXS KXKXKXKX",
"KXKXKXKXKXKXKXKXKXKXKXd u & & y & & & & & d _.=XKXKXKXKX3X3X3X3X4X5XmX{.k & & & y y y y u % $ - ).KXKXKXKXKXKXKXKXKXKXKXKXKXKXKX",
"KXKXKXKXKXKXKXKXKXKXKX_.d & & & y y y & y u f h h S |.6X6X7X6X6X6X7XBX{.k y & y y y y y y & % = - KXKXKXKXKXKXKXKXKXKXKXKXKXKXKX",
"KXKXKXKXKXKXKXKXKXKXKXKXG d u & & & y y y y y & * k L sXMXBXMXMXMXBXMX{.J j u y y y & y y y y % X 6 KXKXKXKXKXKXKXKXKXKXKXKXKXKX",
"KXKXKXKXKXKXKXKXKXKXKXKXKX_.d & & & & y y y y y & y j J pXBXMXMXBXBXBXdXpXK k y y y y y y y & % X 6 KXKXKXKXKXKXKXKXKXKXKXKXKXKX",
"KXKXKXKXKXKXKXKXKXKXKXKXKXKXKXh h d u & % % & y & y & j K {.{.pXsXBXBXBXBX{.k y y y y y y y y % X 6 KXKXKXKXKXKXKXKXKXKXKXKXKXKX",
"KXKXKXKXKXKXKXKXKXKXKXKXKXKXKXKXKX_.g % X $ % y y y u u j k k J |.BXBXBXBX{.k y y y y y y y y % X 8 KXKXKXKXKXKXKXKXKXKXKXKXKXKX",
"KXKXKXKXKXKXKXKXKXKXKXKXKXKXKXKXKXKXG h 6 6 = % % % % % % % % : e {.iXiXiXe : % % % % = % % % = 6 KXKXKXKXKXKXKXKXKXKXKXKXKXKXKX",
"KXKXKXKXKXKXKXKXKXKXKXKXKXKXKXKXKXKXKXKX=X).6 . . . . . . . X . , , t , t , @ . . . . . . . . 6 ).KXKXKXKXKXKXKXKXKXKXKXKXKXKXKX",
"KXKXKXKXKXKXKXKXKXKXKXKXKXKXKXKXKXKXKXKXKX*X6 o O O O O O O O O     O O     O O O O O O O O o 6 *XKXKXKXKXKXKXKXKXKXKXKXKXKXKXKX"
};
