/* XPM */
static char *result[] = {
/* columns rows colors chars-per-pixel */
"64 72 252 2 ",
"   c #1B1C18",
".  c #351816",
"X  c #2E190F",
"o  c #19221D",
"O  c #1D2121",
"+  c #17203F",
"@  c #362F34",
"#  c #141F3A",
"$  c #49120F",
"%  c #680705",
"&  c #7D0000",
"*  c #760408",
"=  c #6E0B1A",
"-  c #59123A",
";  c #6F1231",
":  c #732237",
">  c #00005B",
",  c #393B45",
"<  c #010667",
"1  c #070F76",
"2  c #301076",
"3  c #122377",
"4  c #312A7E",
"5  c #1E1947",
"6  c #55184E",
"7  c #6F2C50",
"8  c #5C2161",
"9  c #3C434D",
"0  c #4C514F",
"q  c #585378",
"w  c #71536C",
"e  c #756A73",
"r  c #5A627F",
"t  c #3F413E",
"y  c #810000",
"u  c #85000A",
"i  c #8A0C0A",
"p  c #8A1214",
"a  c #A31C19",
"s  c #AF231E",
"d  c #95002B",
"f  c #96002B",
"g  c #9A0034",
"h  c #9E003B",
"j  c #891921",
"k  c #8E262F",
"l  c #BB2624",
"z  c #A5322A",
"x  c #9B0D31",
"c  c #C62523",
"v  c #DC2925",
"b  c #C62539",
"n  c #E22A26",
"m  c #EC2B27",
"M  c #F42B25",
"N  c #F12C28",
"B  c #F92D23",
"V  c #E2382F",
"C  c #C0221F",
"Z  c #BB4739",
"A  c #E04B3A",
"S  c #A90D4F",
"D  c #B72D52",
"F  c #B32845",
"G  c #B4056D",
"H  c #8C1F4C",
"J  c #92464F",
"K  c #94566E",
"L  c #956567",
"P  c #AB756A",
"I  c #B0674D",
"U  c #C95778",
"Y  c #D07378",
"T  c #CB5D4F",
"R  c #C73A49",
"E  c #B68475",
"W  c #CD885C",
"Q  c #D2906A",
"!  c #EB9A71",
"~  c #E4A979",
"^  c #DCA578",
"/  c #001982",
"(  c #001D8C",
")  c #0B1794",
"_  c #3D0184",
"`  c #311892",
"'  c #032089",
"]  c #012397",
"[  c #16219C",
"{  c #1A239B",
"}  c #172182",
"|  c #312E92",
" . c #0317A8",
".. c #2A1DA4",
"X. c #3918AC",
"o. c #0024A2",
"O. c #0528A7",
"+. c #1925A5",
"@. c #012BB7",
"#. c #0236BA",
"$. c #1436B0",
"%. c #3A31AD",
"&. c #2B31B2",
"*. c #4B1597",
"=. c #461AB2",
"-. c #5518B8",
";. c #4416AA",
":. c #710FB6",
">. c #4C32AE",
",. c #562A9B",
"<. c #344B95",
"1. c #1B41BF",
"2. c #1743BE",
"3. c #2D47AF",
"4. c #50518F",
"5. c #6C5787",
"6. c #5D6384",
"7. c #6A6A89",
"8. c #696998",
"9. c #757193",
"0. c #6357AF",
"q. c #002ECA",
"w. c #032CC7",
"e. c #0131CB",
"r. c #0637C8",
"t. c #0033D6",
"y. c #0035DA",
"u. c #073BDA",
"i. c #1835C7",
"p. c #2B2ADD",
"a. c #352FCD",
"s. c #003BE3",
"d. c #0037E3",
"f. c #3832E8",
"g. c #7613C4",
"h. c #5531CE",
"j. c #4E31CC",
"k. c #6F1EEA",
"l. c #5E37E5",
"z. c #453EE7",
"x. c #6934E6",
"c. c #702FEE",
"v. c #742CD3",
"b. c #1D41C2",
"n. c #1945CA",
"m. c #0942DA",
"M. c #1B4BDA",
"N. c #1D56DD",
"B. c #0A47D1",
"V. c #3643DE",
"C. c #2355DB",
"Z. c #2951CD",
"A. c #3568D9",
"S. c #2B66D7",
"D. c #0349E7",
"F. c #0954E8",
"G. c #004DF3",
"H. c #0153F5",
"J. c #0A5AF3",
"K. c #0054F9",
"L. c #0759F3",
"P. c #1855E6",
"I. c #3B41E3",
"U. c #314FF1",
"Y. c #0965F4",
"T. c #1A6AEC",
"R. c #2466E8",
"E. c #257CEB",
"W. c #2B72EE",
"Q. c #186ADC",
"!. c #5256D0",
"~. c #5671CD",
"^. c #4F52EE",
"/. c #7251E4",
"(. c #6665D5",
"). c #9D0CA3",
"_. c #C90092",
"`. c #C70090",
"'. c #C7008E",
"]. c #DB2DBB",
"[. c #864F97",
"{. c #947B90",
"}. c #886FAB",
"|. c #9D66AD",
" X c #D4668D",
".X c #9D0ED6",
"XX c #8B11CF",
"oX c #AD13CE",
"OX c #9416E7",
"+X c #9819ED",
"@X c #AB19ED",
"#X c #9627F2",
"$X c #AE2CEF",
"%X c #9F26DC",
"&X c #C401D9",
"*X c #D007CE",
"=X c #E401C6",
"-X c #C807E7",
";X c #D606EB",
":X c #C60DF4",
">X c #D709F7",
",X c #C714FA",
"<X c #D816F3",
"1X c magenta",
"2X c #C82EEC",
"3X c #EA26F1",
"4X c #F92DE7",
"5X c #CF34D8",
"6X c #BB7CD3",
"7X c #B278CF",
"8X c #844CE7",
"9X c #9D6AD7",
"0X c #CC56DF",
"qX c #7D86A2",
"wX c #2A85EA",
"eX c #318AE8",
"rX c #1F83EA",
"tX c #5281DF",
"yX c #728CD0",
"uX c #6682E3",
"iX c #808498",
"pX c #9A869A",
"aX c #B49395",
"sX c #918FAA",
"dX c #AFA3B2",
"fX c #C79D8A",
"gX c #D3A689",
"hX c #ECB78B",
"jX c #F690A7",
"kX c #C4B6AE",
"lX c #EB829B",
"zX c #BDC2BD",
"xX c #F5C494",
"cX c #F1C494",
"vX c #F7D5A8",
"bX c #EED0B0",
"nX c #8E95CE",
"mX c #B08BCD",
"MX c #9FA5C1",
"NX c #9DB3DE",
"BX c #A2A6C6",
"VX c #B4B5CA",
"CX c #B09DE7",
"ZX c #BEC5CD",
"AX c #CDC9D2",
"SX c #CDD4EA",
"DX c #E4E7E8",
"FX c #F2F6F2",
"GX c #F5F9F4",
"HX c #EDEEEC",
"JX c #E3E0DF",
"KX c None",
/* pixels */
"KXKXKXKXKXKXKXKXKXKXKXKXKXKXKXKXKXKXKXKXKXKX1X:Xf.t.t.d.G.K.K.H.K.K.K.K.K.G.n.h.>X1X1XKXKXKXKXKXKXKXKXKXKXKXKXKXKXKXKXKXKXKXKXKX",
"KXKXKXKXKXKXKXKXKXKXKXKXKXKXKXKXKXKXKXKXKX-X-XOXp.t.y.y.D.G.G.H.F.J.F.L.J.P.B.j.+X,X,X@XKXKXKXKXKXKXKXKXKXKXKXKXKXKXKXKXKXKXKXKX",
"KXKXKXKXKXKXKXKXKXKXKXKXKXKXKXKXKXKXKX>Xg.X.X.&.i.y.y.y.d.d.u.D.R.S.R.R.S.R.J.P.U.z.f.U.z.c.>XKXKXKXKXKXKXKXKXKXKXKXKXKXKXKXKXKX",
"KXKXKXKXKXKXKXKXKXKXKXKXKXKXKXKXKXKX;X)...3 / ] @.q.w.q.t.t.y.B.C.S.A.~.S.R.D.D.K.Y.Y.Y.Y.U.#X,X,XKXKXKXKXKXKXKXKXKXKXKXKXKXKXKX",
"KXKXKXKXKXKXKXKXKXKXKXKXKXKXKXKXKX;X:.| } 3 } ' o.o.O.@.q.y.y.y.u.N.A.A.T.m.#.#.Q.wXrXE.E.wX~.^.^.c.,XKXKXKXKXKXKX;X:.:.KXKXKXKX",
"KXKXKXKXKXKXKXKXKXKXKXKXKXKXKXKXKXKXXX*.,.*.` 3 ( ( ' ] @.w.w.q.t.m.C.C.D.B.3.<.Z.Q.wXwXwXeXeXrXY.U.$X2X,XKXKXKX;XXX{ X.KXKXKXKX",
"KXKXKXKXKXKXKXKXKXKXKXKXKXKXKXKXKXKXKX&X-XoX*.3 3 3 ' ' ] ] o.@.q.y.u.r.@.<.{.iX<.B.J.Y.wXeXeXwXrXwX^.^.^.c.<X>Xg...( X.@XKXKXKX",
"KXKXKXKXKXKXKXKXKXKXKXKXKXKXKXKXKXKXKXKXKX;XXX*.*.-.;...) ] ' o.e.y.e.#.{ q fX^ 7.| B.F.T.E.wXeXeXeXeXwXY.U.#X+X..( ( ;.-XKXKXKX",
"KXKXKXKXKXKXKXKXKXKXKXKXKXKXKXKXKXKXKXKXKXKXKXKX&X-X-X.X..' ( o.w.e.@.| w P ~ hXgX{.| #.B.N.E.eXeXeXeXwXwXW.U.p.O.( ( X.-XKXKXKX",
"KXKXKXKXKXKXKXKXKXKXKXKXKXKXKXKXKXKXKXKXKXKXKXKXKXKXKX-X;.( ( o.e.w.] 4 L W ~ hXhXgX8.| @.B.Q.E.wXeXeXeXeXwXY.L.#.] ] ;.-XKXKXKX",
"KXKXKXKXKXKXKXKXKXKXKXKXKXKXKXKXKXKXKXKXKXKXKXKXKXKXKX-XX./ / ] e.e.O.4 L W ~ hXhXhXfX{.| #.F.T.wXeXeXeXeXeXwXT.F.B.] X.-XKXKXKX",
"KXKXKXKXKXKXKXKXKXKXKXKXKXKXKXKXKXKXKXKXKXKXKXKXKX,X@XOXX.)  .@.e.r.O.4 L W ~ hXfXaXkXiX3.w.D.J.T.E.E.E.E.rXwXwXY.D.#.%.@XKXKXKX",
"KXKXKXKXKXKXKXKXKXKXKXKXKXKXKXKXKXKXKXKXKXKXKX>Xk.f.f.p.i.w.w.q.t.w.] | L W Q P 0.A.A.A.F.D.G.K.Y.K.J.Y.Y.T.E.rXJ.H.G.f.:XKXKXKX",
"KXKXKXKXKXKXKXKXKXKXKXKXKXKXKXKXKXKXKXKXKX:X:X+Xp.t.t.q.y.y.t.t.y.e.@.| w L L 5.&.y.G.K.J.J.K.J.T.W.J.K.K.J.W.T.J.K.K.^.,XKXKXKX",
"KXKXKXKXKXKXKXKXKXKXKXKXKXKXKXKXKXKXKXKXk.f.j.p.u.u.t.t.y.y.y.y.y.t.e.r.b.3.&.i.u.d.G.L.R.R.L.R.uXyXW.K.K.K.J.Y.K.K.K.f.,XKXKXKX",
"KXKXKXKXKXKXKXKXKXKXKXKXKXKXKXKXKXKXKX+Xp.y.u.u.y.u.u.u.m.m.y.y.u.u.s.u.u.D.D.d.u.D.G.J.C.N.G.R.yXuXR.G.K.K.K.K.K.K.K.U.OX;XKXKX",
"KXKXKXKXKXKXKXKXKXKXKXKXKXKXKXKXKX>Xk.p.y.B.N.C.u.u.C.S.S.C.u.y.D.G.G.F.C.P.G.G.D.G.K.H.P.m.d.s.P.C.s.D.G.K.K.K.H.K.K.D.&.g.KXKX",
"KXKXKXKXKXKXKXKXKXKXKXKXKXKXKXKX>X+Xp.t.y.u.Z.Z.B.r.Z.3.S.Z.B.u.D.G.K.R.tXtXR.K.K.K.K.G.d.d.M.C.C.C.u.y.D.H.G.G.K.K.K.m.@.X.KXKX",
"KXKXKXKXKXKXKXKXKXKXKXKXKXKXKX>Xk.p.t.t.y.r.O.O.] O.+.O.O.$.r.y.d.D.R.tXNXNXtXT.J.K.K.G.d.M.~.nXNXuXM.d.d.s.d.D.G.K.K.G.y.a.:XKX",
"KXKXKXKXKXKXKXKXKXKXKXKXKXKX>XOXp.w.e.e.e.#.] ' ] ' ' ( ' ] e.y.y.u.C.tXNXNX~.R.J.K.K.G.P.!.nXZXSXNX(.C.r.q.t.s.D.G.G.H.P.x.,XKX",
"KXKXKXKXKXKXKXKXKXKXKXKXKX;Xg...O.o.o.o.O.] ] ] ( ] ( ] (  .w.t.y.u.F.R.~.tXW.J.K.G.D.M.~.MXAXDXHXDXSXnXZ.O.r.u.u.s.u.N.~.9X3XKX",
"KXKXKXKXKXKXKXKXKXKXKXKXKXXX{ ' 1 / / 1 1 ' / / / ( / / /  . .w.t.y.G.J.R.P.K.K.K.G.d.C.yXVXJXFXFXGXGXZX4./ ] #.t.e.@.2.qXmX3XKX",
"KXKXKXKXKXKXKXKXKXKXKXKXOX&.1 < < < > < < < < < < < < < < < )  .q.d.G.K.J.J.H.K.H.G.d.C.yXzXDXFXFXFXGXZXq # # 3 #.@.3 9 iX6X3X1X",
"KXKXKXKXKXKXKXKXKXKXKXKXv.>._ *._ _ *.2 *.2 < < > > < < 1 / )  .q.D.G.K.K.K.K.H.K.G.d.C.yXVXDXFXFXFXGXzX0     + O.] 5 0 iX6X3X1X",
"KXKXKXKXKXKXKXKXKXKXKXKXKXKX&X&X&X&XoX-X&XXX2 > > > > <  .@.w.q.s.H.H.K.K.H.K.K.K.G.d.Z.yXVXDXFXFXFXGXzX0   o + ' 3 # t qXmX4XKX",
"KXKXKXKXKXKXKXKXKXKXKXKXKXKXKXKXKXKXKXKXKX;X:.2 2 *.*.` t.D.d.D.H.K.K.K.K.K.K.K.K.G.y.M.~.BXSXGXFXGXGXzX0     @ <.<.# t qXmX3XKX",
"KXKXKXKXKXKXKXKXKXKXKXKXKXKXKXKXKXKXKXKXKXKXKX-X&X&X&X.Xf.K.G.H.K.K.K.K.K.K.K.K.J.H.d.m.!.yXDXGXFXFXGXzX0     9 sXsX0 t qX6X3X1X",
"KXKXKXKXKXKXKXKXKXKXKXKXKXKXKXKXKXKXKXKXKXKXKXKXKXKXKX+Xf.G.H.H.G.G.G.G.G.G.G.G.C.Z.Z.!.~.yXZXHXHXFXFXAXe 0 0 e kXzXe 0 7.|.oX&X",
"KXKXKXKXKXKXKXKXKXKXKXKXKXKXKXKXKXKXKXKXKXKXKXKXKXKX#Xa.m.D.D.s.s.s.s.s.d.d.s.n.5.{.aXfXfXdXVXAXDXFXFXJXAXAXzXkXgXE pX9.<.2 2 *.",
"KXKXKXKXKXKXKXKXKXKXKXKXKXKXKXKXKXKX4X4X4X4X4X4X<XOX=.+.&.%.>.%.%.%.%.%.%.%.%.0.P ! ~ xXxXhXkXVXJXJXDXHXHXHXHXbX^ E {.4.3 > < < ",
"KXKXKXKXKXKXKXKXKXKXKXKXKXKXKX XlXjXjXjXjXjXjX X/.X. .` H D D D D D D D D D F R Q hXvXvXvXbXhXgXhXbXAXSXSXAXbXxXhXE q 3 < <  .@.",
"KXKXKXKXKXKXKXKXKXKXKXKXKX].Y Q ~ ~ ^ Q ! ! ! Q 5.,.2 8 b B B N M M M B M N m A ! xXvXvXvXvXxXcXcXcXAXAXAXAXcXxXxXaX8 2 2 ;.a.f.",
"KXKXKXKXKXKXKXKXKXKXKXKXKXY ^ ~ Q I T z A A A A R F F b n M M N M M M M M m c Z ! hXxXxXvXvXvXvXvXvXbXbXbXbXbXvXvXcXP K oX&X:X:X",
"KXKXKXKXKXKXKXKXKXKXKXKXU I W Q T T z C N M M N M M M M N N N N N N N N n c a z E ^ ~ xXvXvXvXvXvXvXvXvXvXvXvXcXbXgXlX XKXKXKX1X",
"KXKXKXKXKXKXKXKXKXKXKXKXS a z Z A V n v N N m N M M N N N N N N N N N n l a i j J E ^ cXxXxXxXxXcXxXxXxXhXhX^ Q Q  X].KXKXKXKXKX",
"KXKXKXKXKXKXKXKXKXKXKX'.d i a l m N N N N N N m N N N N N N N N N N n c a u = - 6 w E ^ ~ ~ ~ ~ ~ ~ ^ hX~ ^ Y U U KXKXKXKXKXKXKX",
"KXKXKXKXKXKXKXKXKXg h g j a c n N N N N N N N N N N N N N N N N B n c s i = 5 2 1 2 K I Y Q W W W W W W W Y ].KXKXKXKXKXKXKXKXKX",
"KXKXKXKXKXKXKXKXd & & i a l n B N N N N N N N N N N N N N N n v v c a j j - 2 ) ) 3 8 e L I P P U  X XU KXKXKXKXKXKXKXKXKXKXKXKX",
"KXKXKXKXKXKXG d y i p a c n N N N N N N N N N N N N N N N n l a s a i = 7 w q 4 4.q q w e e e [.].KXKXKXKXKXKXKXKXKXKXKXKXKXKXKX",
"KXKXKXKXKX`.d & y p a l V N N N m N N N N N M m n v v n n c a a z J k : w r r 7.7.7.7.r q r 8.[.<XKXKXKXKXKXKXKXKXKXKXKXKXKXKXKX",
"KXKXKXKXG d u & p a c n m N N N N N N N N N N n c s s s l a i z aXdXpX{.9.6.6.9.sX9.8.6.6.7.iX7X3XKXKXKXKXKXKXKXKXKXKXKXKXKXKXKX",
"KXKXKXKXd & & i p a v n m N N N N m n v v v b F k : 7 : : ; = 7 }.nXnX}.[.[.5.9.sXsX8.8.8.9.MX7X3XKXKXKXKXKXKXKXKXKXKXKXKXKXKXKX",
"KXKXKXd u & & & i p a l n B N N N V l l l z 8 *.*.4 2 | ` 4 2 | <.>.3.v.oX5X7XsX9.8.(.(.sXsXMXmXKXKXKXKXKXKXKXKXKXKXKXKXKXKXKXKX",
"KXKXh & & y & y & y i a c v v v v c k : : 8 | +.+...=.-.-.-.-.=...[ [ *..X2X7X|.9.6.8.~.nXnXmX0XKXKXKXKXKXKXKXKXKXKXKXKXKXKXKXKX",
"KXKXh & & y & y & & y i a s a s s x 8 4 ` ` &.$.+.=..X-X-X-X-X.X=.+.{ ..=.XXKXKX[.6.6.0.~.9X2XKXKXKXKXKXKXKXKXKXKXKXKXKXKXKXKXKX",
"=X_.g & y y y & & u g S S D S F H 7 ` +.{ ..j.h.=.XX>XKXKXKXKX>Xg.=...{ [ -.KXKXKX[.[.[.(.8X<XKXKXKXKXKXKXKXKXKXKXKXKXKXKXKXKXKX",
"S d u y y y y & & d _.KXKXKX=X*X,.` { +.[ =..X:X>XKXKXKXKXKXKXKX>X.X=.{ [ -.KXKXKXKXKX$X/.#X,XKXKXKXKXKXKXKXKXKXKXKXKXKXKXKXKXKX",
"& & & y y & & u d KXKXKXKXKXKX.X=.{ { ..=.XX;XKXKXKXKXKXKXKXKXKXKX;X-.{ [ -.KXKXKXKXKXKX8X8X<XKXKXKXKXKXKXKXKXKXg g KXKXKXKXKXKX",
"& & y y y & & d KXKXKXKXKXKXKXj.&.{ { =..X;XKXKXKXKXKXKXKXKXKXKXKX;X-.{ { -.KXKXKXKXKX3X8X8X<XKXKXKXKXKXKXKXKXKXg g KXKXKXKXKXKX",
"& & & y & u d KXKXKXKXKXKXKXKX$.&.+.+.-.;X1XKXKXKXKXKXKXKXKXKXKX>X.X=.[ [ KXKXKXKXKXKX$X/.8X<XKXKXKXKXKXKXKXKXKXg h KXKXKXKXKXKX",
"y y y & & g _.KXKXKXKXKXKXKXKX2.1.$.&.h.:XKXKXKXKXKXKXKXKXKXKX;XXX;...{ [ KXKXKXKXKX$X/.(./.KXKXKXKXKXKXKXKXKX=Xh h KXKXKXKXKXKX",
"y y y & & h KXKXKXKXKXKXKXKXh.b.1.b.b.h.:XKXKXKXKX-X-X-X-X;X-X.XX.[ [ ..=.KXKXKXKX$X/.^./.$XKXKXKXKXg g KXKXKX'.d g KXKXKXKXKXKX",
"& y y & & h KXKXKXKXKXKXKXKXh.1.b.b.1.h.<XKXKXKXXX-.-.-.-.-.-.=...[ [ =.KXKXKXKX#Xl.^.x.$XKXKXKXKXKXg g KXKXKXd u h KXKXKXKXKXKX",
"y y y & & h KXKXKXKXKXKXKXKXh.1.b.b.1.h.:XKXKX-X=.[ [ [ { [ [ ..=.-.-.KXKXKXKX@Xx.f.V.x.>XKXKXKXKXKXh h KXKXh & & h KXKXKXKXKXKX",
"y y y & & g KXKXKXKXKXKXKXKXh.b.b.b.1.h.:XKXKX;X-.[ [ [ [ [ [ =..XKXKXKXKXKX%Xl.z.V.V.x.>XKXKXKXKXKXh h KXKXS & & h KXKXKXKXKXKX",
"& & & u d KXKXKXKXKXKXKXKXKXj.1.$.1.1.j.%X<X;XoX0.>.-.-.-.-.KXKXKXKXKXKXKX@Xl.V.V.z.l.#XKXKXKXKXKX'.d d _._.d & & KXKXKXKXKXKXKX",
"& & & d KXKXKXKXKXKXKXKXKXKXj.1.1.1.1.a.j.h.0.|.mX9X2XKXKXKXKXKXKXKXKXx.x.x.z.V.V.l.@XKXKXKXKXKXKXd u u g g u & & KXKXKXKXKXKXKX",
"h d u h KXKXKXKXKXKXKXKXKXKXKXj.1.2.1.1.1.3.<.8.nXCX2XKXKXKXKXKXKX$Xl.V.V.z.l.x.x.#XKXKXKXKXKXKXh & & & & & & u d KXKXKXKXKXKXKX",
"KXKXd h KXKXKXKXKXKXKXKXKXKXKX%XV.2.i.n.1.1.3.!.!././.c.c.c.c.c.c.x.z.V.V.l.@X>XKXKXKXKXKXKXKXKXh & & y & & & g _.KXKXKXKXKXKXKX",
"KXKXh h KXKXKXKXKXKXKXKXKXKXKXKXOX>.>.| 3.1.1.b.V.I.I.I.f.!.V.V.V.z.l.x.x.#XKXKXKXKXKXKXKXKXKX_.d & y & y & & h KXKXKXKXKXKXKXKX",
"KXKXh g KXKXKXKXKXKXKXKXKXKXKXKXKXoXH 6 %.Z.i.n.V.f.V.V.f.V.V.V.V.l.@X>X>XKXKXKXKXKXKXKXKXKXG d u y y y & & & g KXKXKXKXKXKXKXKX",
"KXKXKXS KXKXKXKXKXKXKXKXKXKXKXKXKX_.d = 8 | | | %.>.>.>.!./.x.v.x.#XKXKXKXKXKXKXKXKXKXKX=X_.d & & y y & & u d KXKXKXKXKXKXKXKXKX",
"KXKXKXKXS KXKXKXKXKXKXKXKXKXKXKX,.; * * = - ; ; ; : ; H }.9X2X>X>X>XKXKXKXKXKXKXKXKXKXh h d u y & y y & & d KXKXKXKXKXKXKXKXKXKX",
"KXKXKXKXKXKXKXKXKXKXKXKXKXKXKX).- $ % y y & y y y & & k pXmX2X3X3X3X3X3XKXKXKXKX=X_.d & & & & y y & & u d KXKXKXKXKXKXKXKXKXKXKX",
"KXKXKXKXKXKXKXKXKXKXKXKXKXKXKX6 = % * & y y y y y y * k {.BX6X6X6X6X6X7X6X|.D h h d u & & y y y y & & d '.KXKXKXKXKXKXKXKXKXKXKX",
"KXKXKXKXKXKXKXKXKXKXKXKXKXKX6 X % & y & y y y y & i j J pXMXMXMXBXBXMXdXsXK j & * * y y y y & & & u d G KXKXKXKXKXKXKXKXKXKXKXKX",
"KXKXKXKXKXKXKXKXKXKXKXKXKXKX6 X % y y y y y y y & j K pXsXBXdXMXBXBXBXpXJ j * y & y y y & & & & & d _.KXKXKXKXKXKXKXKXKXKXKXKXKX",
"KXKXKXKXKXKXKXKXKXKXKXKXKXKX6 . % y y y y y y y y k pXMXBXBXBXsXpX{.{.L j y y y y & % % & u d h h KXKXKXKXKXKXKXKXKXKXKXKXKXKXKX",
"KXKXKXKXKXKXKXKXKXKXKXKXKXKX6 X % y y y y y y y y k {.BXBXBXBXpXJ k k = i u y u y * $ $ % f _.KXKXKXKXKXKXKXKXKXKXKXKXKXKXKXKXKX",
"KXKXKXKXKXKXKXKXKXKXKXKXKXKXKX6 = % % % % % % = % : 7.{.}.iXiXe : % % % % % % % % = 6 6 h G KXKXKXKXKXKXKXKXKXKXKXKXKXKXKXKXKXKX",
"KXKXKXKXKXKXKXKXKXKXKXKXKXKXKX).6 . . . . . . . . . @ 9 9 , 9 , . . . . . . . . X 6 ).*XKXKXKXKXKXKXKXKXKXKXKXKXKXKXKXKXKXKXKXKX",
"KXKXKXKXKXKXKXKXKXKXKXKXKXKXKX*X6 o o o O O O O O O O   .     O O O O O O O O O o 6 *XKXKXKXKXKXKXKXKXKXKXKXKXKXKXKXKXKXKXKXKXKX"
};
