/* XPM */
static char *result[] = {
/* columns rows colors chars-per-pixel */
"64 70 256 2 ",
"   c #171914",
".  c #1C222F",
"X  c #2F3432",
"o  c #1B1D1E",
"O  c #7D0000",
"+  c #750000",
"@  c #040158",
"#  c #030365",
"$  c #001176",
"%  c #0C0C70",
"&  c #2B0D74",
"*  c #1D2966",
"=  c #56265B",
"-  c #3B424E",
";  c #444B4C",
":  c #52507A",
">  c #6D4D6D",
",  c #6D6E6F",
"<  c #59617B",
"1  c #810102",
"2  c #87060A",
"3  c #8C0118",
"4  c #941918",
"5  c #8B1012",
"6  c #930026",
"7  c #9C0737",
"8  c #982322",
"9  c #9A3439",
"0  c #AC2221",
"q  c #B02F2F",
"w  c #AA1D22",
"e  c #F12D1D",
"r  c #D82726",
"t  c #CE2D2E",
"y  c #EB2A26",
"u  c #F12C25",
"i  c #F02C28",
"p  c #FD2E24",
"a  c #F12839",
"s  c #EB3A34",
"d  c #D4231F",
"f  c #EC4937",
"g  c #A50049",
"h  c #AB0057",
"j  c #B5006B",
"k  c #BB0077",
"l  c #9C315E",
"z  c #F42258",
"x  c #F1254A",
"c  c #F51D73",
"v  c #F22952",
"b  c #AC524F",
"n  c #B96C53",
"m  c #885D69",
"M  c #AE736E",
"N  c #9E616C",
"B  c #E84B4B",
"V  c #CD5B7C",
"C  c #D06C7C",
"Z  c #DB6460",
"A  c #CB885D",
"S  c #DC8F5C",
"D  c #CF916E",
"F  c #E3A878",
"G  c #F1B47E",
"H  c #E1966F",
"J  c #040487",
"K  c #001E8D",
"L  c #001485",
"P  c #000694",
"I  c #041D93",
"U  c #1A1C9D",
"Y  c #151288",
"T  c #02218A",
"R  c #012293",
"E  c #05279B",
"W  c #1A219D",
"Q  c #14259B",
"!  c #17359B",
"~  c #2C348E",
"^  c #0219B2",
"/  c #281EA3",
"(  c #341DA8",
")  c #2807A5",
"_  c #0025A4",
"`  c #032BAA",
"'  c #1C24A3",
"]  c #012AB8",
"[  c #1A39B6",
"{  c #0B35B5",
"}  c #2121A0",
"|  c #2527AA",
" . c #2930B3",
".. c #33068D",
"X. c #66009E",
"o. c #4C17B3",
"O. c #5013B2",
"+. c #6C07AE",
"@. c #531D9D",
"#. c #1B42BF",
"$. c #1844B8",
"%. c #0A42B4",
"&. c #2C49B3",
"*. c #354C95",
"=. c #4B4E8F",
"-. c #6E6B8F",
";. c #4446A5",
":. c #5554B0",
">. c #5264B5",
",. c #7173AF",
"<. c #695990",
"1. c #002CC7",
"2. c #0031CB",
"3. c #0339C8",
"4. c #0033D5",
"5. c #0135D9",
"6. c #023ADB",
"7. c #093AD6",
"8. c #1333D3",
"9. c #273DC2",
"0. c #363EDC",
"q. c #3436C9",
"w. c #003BE4",
"e. c #3D3EE1",
"r. c #3131E6",
"t. c #121FC1",
"y. c #7A13C7",
"u. c #6B13C7",
"i. c #4D32D1",
"p. c #7228D9",
"a. c #761CEA",
"s. c #4A3DE2",
"d. c #5A37E4",
"f. c #5137F6",
"g. c #6D31EC",
"h. c #4A1ECE",
"j. c #1D40C2",
"k. c #0744D8",
"l. c #1346DB",
"z. c #1555DA",
"x. c #2040C0",
"c. c #2A41CD",
"v. c #3A42DC",
"b. c #2558D9",
"n. c #2D57CF",
"m. c #3669D9",
"M. c #2968DA",
"N. c #0045EB",
"B. c #014AED",
"V. c #0346E5",
"C. c #1459E9",
"Z. c #004CF3",
"A. c #0153F6",
"S. c #0054F9",
"D. c #095AF5",
"F. c #1157ED",
"G. c #3B41E1",
"H. c #2B54ED",
"J. c #0B61F4",
"K. c #176AEE",
"L. c #247AEB",
"P. c #2F70E6",
"I. c #4D50D3",
"U. c #5671D0",
"Y. c #686CD1",
"T. c #4C49E3",
"R. c #6D4FE7",
"E. c #6D6DE0",
"W. c #4E70E1",
"Q. c #A527B7",
"!. c #C40088",
"~. c #CC0197",
"^. c #D201A4",
"/. c #D700B0",
"(. c #ED21A6",
"). c #8C7A8F",
"_. c #A868A4",
"`. c #D56D89",
"'. c #D45A88",
"]. c #8811CC",
"[. c #980ED4",
"{. c #8D10CF",
"}. c #AA06D3",
"|. c #981CE3",
" X c #921BF2",
".X c #BB17F6",
"XX c #AD14E8",
"oX c #8F27EC",
"OX c #B42CEE",
"+X c #9F24DD",
"@X c #EB0AD0",
"#X c #EE2ACD",
"$X c #CA07E9",
"%X c #DA03EC",
"&X c #DB0AF6",
"*X c #CD11F7",
"=X c #E507F8",
"-X c #FE00FE",
";X c #F603FB",
":X c #E60AEE",
">X c #EF29F1",
",X c #CD17DF",
"<X c #BD70D6",
"1X c #8E50DC",
"2X c #C476D3",
"3X c #E74BE0",
"4X c #2B85E9",
"5X c #318AE8",
"6X c #7792D3",
"7X c #6088E0",
"8X c #7E8BBE",
"9X c #909198",
"0X c #B4958C",
"qX c #898BA5",
"wX c #9192B5",
"eX c #B5A8B5",
"rX c #AEA0A9",
"tX c #CE928D",
"yX c #EF9799",
"uX c #D3AB90",
"iX c #F4BC8A",
"pX c #E7B088",
"aX c #D192A9",
"sX c #D0B4B5",
"dX c #EB8FAB",
"fX c #F5C595",
"gX c #EFC396",
"hX c #D9C3B8",
"jX c #F7D6A8",
"kX c #EDD0B2",
"lX c #9796CA",
"zX c #A796C4",
"xX c #8DA2D4",
"cX c #A6A7C7",
"vX c #B9B9D5",
"bX c #AFB0D0",
"nX c #AFB5E2",
"mX c #8788E0",
"MX c #D5AED0",
"NX c #BEC4E3",
"BX c #B7C5DE",
"VX c #CAC9D8",
"CX c #D5D5D9",
"ZX c #CEC7CD",
"AX c #E5D4CB",
"SX c #EBE3DA",
"DX c #C7C9E3",
"FX c #D8D9E3",
"GX c #CDD5E3",
"HX c #DAE4E8",
"JX c #E5E6E4",
"KX c #EDF1EE",
"LX c #F4F8F3",
"PX c #E9EEF1",
"IX c #E7C0EC",
"UX c None",
/* pixels */
"UXUXUXUXUXUXUXUXUXUXUXUXUXUXUXUXUXUX{.Q T T ` 4.5.5.5.5.5.5.l.b.m.m.m.m.m.K.S.S.A.S.S.A.F. X-XUXUXUXUXUXUXUXUXUXUXUXUXUXUXUXUXUX",
"UXUXUXUXUXUXUXUXUXUXUXUXUXUXUXUXUXUX}.o.( ( | 1.2.2.2.4.5.5.7.b.m.m.m.M.M.V.V.A.D.J.D.J.K.g.OX*X*XUXUXUXUXUXUXUXUXUX%X&XUXUXUXUX",
"UXUXUXUXUXUXUXUXUXUXUXUXUXUXUXUXUXUXUXXX}.}.y.' _ _ ] 4.5.5.6.7.z.m.m.K.z.k.{ z.4X4XL.L.L.W.R.T.R. X-XUXUXUXUXUXUX$X+.y.UXUXUXUX",
"UXUXUXUXUXUXUXUXUXUXUXUXUXUXUXUXUXUXUXUXUXUXXXO.U I I 1.2.2.2.4.7.b.b.F.k.! *.n.M.L.4X4X5X5X4XK.J.R.*X*X*XUXUXUX%Xy.' ( $XUXUXUX",
"UXUXUXUXUXUXUXUXUXUXUXUXUXUXUXUXUXUXUXUXUXUXUX$X+.Q R E _ _ ` 2.6.k.k.{ %.-.).=.%.z.J.4X5X5X4X4XL.W.E.R.f. X;X$X+./ R o.$XUXUXUX",
"UXUXUXUXUXUXUXUXUXUXUXUXUXUXUXUXUXUXUXUXUXUXUXUXXXo.U I T I _ 1.5.2.] Q : 0XuX-.~ k.B.K.4X4X4X5X4X4X4XK.J.T..X{.' T T O.$XUXUXUX",
"UXUXUXUXUXUXUXUXUXUXUXUXUXUXUXUXUXUXUXUXUXUXUXUXUXXX+./ T K _ 2.4.] ! : m F G tX).*.] 3.z.K.4X5X5X4X4X4XL.H.T.r.E K R O.%XUXUXUX",
"UXUXUXUXUXUXUXUXUXUXUXUXUXUXUXUXUXUXUXUXUXUXUXUXUXUX}.( K K _ 2.1._ ~ m A F G iXuX-.~ { 3.z.4X4X5X5X5X5X4XL.J.V.` R R o.$XUXUXUX",
"UXUXUXUXUXUXUXUXUXUXUXUXUXUXUXUXUXUXUXUXUXUXUXUXUXUX}.) L K _ 2.1._ ~ m A F iXfXG tX9X=.` k.K.L.5X5X5X5X5X4XK.J.k.{ I o.$XUXUXUX",
"UXUXUXUXUXUXUXUXUXUXUXUXUXUXUXUXUXUXUXUXUXUXUXUXUX=X[.) P I ` 2.1._ * m A H pXpXuXuX0X=.` 3.A.K.L.4X4X4X4X4X5XL.D.k.] o.$XUXUXUX",
"UXUXUXUXUXUXUXUXUXUXUXUXUXUXUXUXUXUXUXUXUXUXUXa.a.g.h.t.] ] 1.4.1._ ~ m A S D ).,.Y.U.n.k.V.S.D.J.K.K.J.K.L.4XL.J.B.k.d.*XUXUXUX",
"UXUXUXUXUXUXUXUXUXUXUXUXUXUXUXUXUXUXUXUXUX=X X8.5.5.4.4.4.4.4.5.2.` ~ > M M N ;.k.V.D.D.D.A.S.J.J.D.D.S.S.J.L.L.S.S.A.T.*XUXUXUX",
"UXUXUXUXUXUXUXUXUXUXUXUXUXUXUXUXUXUXUXa.a.a.h.4.4.5.4.5.5.5.5.5.2.1.{ &.=.:.;.8.w.w.A.F.K.F.A.P.7XP.D.S.S.J.K.J.S.S.S.f.&XUXUXUX",
"UXUXUXUXUXUXUXUXUXUXUXUXUXUXUXUXUXUX X8.6.7.w.4.5.5.5.6.7.4.5.6.6.4.6.7.7.8.7.5.w.Z.D.C.M.C.D.7XxX7XD.S.S.S.S.S.S.S.S.G..X;XUXUX",
"UXUXUXUXUXUXUXUXUXUXUXUXUXUXUXUXUXa.r.4.k.z.l.7.7.l.b.b.l.7.5.N.N.N.V.l.l.V.N.N.N.Z.A.C.l.l.N.H.W.M.V.B.S.S.S.S.S.S.S.r.h.}.UXUX",
"UXUXUXUXUXUXUXUXUXUXUXUXUXUXUXUX X8.4.4.z.b.z.7.l.n.m.m.b.7.w.N.A.A.F.P.m.K.A.A.S.S.A.N.w.w.l.l.l.7.5.N.A.S.S.S.S.S.A.k.{ O.UXUX",
"UXUXUXUXUXUXUXUXUXUXUXUXUXUXUX Xr.5.5.5.3.$.{ { { $.$.&.$.4.5.N.B.C.P.6X6XW.C.D.S.S.A.N.6.n.U.U.W.b.6.w.N.N.N.B.A.S.S.V.3.h.UXUX",
"UXUXUXUXUXUXUXUXUXUXUXUXUXUXa.8.4.4.4.4.{ E R I R R T R ` 2.5.5.k.H.7XnXBX6XM.F.S.S.Z.N.l.U.lXbXnXE.l.6.5.5.4.w.Z.S.A.B.k.d.*XUX",
"UXUXUXUXUXUXUXUXUXUXUXUXUXy.( ] ] ] ] ] _ I T K R K K K _ 2.5.4.k.C.P.6XxX5XK.D.A.Z.B.b.U.xXVXHXFXnX6XW.{ 1.5.w.N.N.N.C.m.1X*XUX",
"UXUXUXUXUXUXUXUXUXUXUXUXUXU E I I I R R R K R K K K K I E 1.5.5.6.B.D.P.W.K.A.S.Z.N.l.U.lXVXJXKXLXKXFX6X! _ 2.k.5.4.4.n.6X<X>XUX",
"UXUXUXUXUXUXUXUXUXUXUXUX+.$ $ % $ $ $ % $ $ $ $ $ $ $ $ $ ^ ^ 4.w.B.D.F.C.D.S.S.A.w.l.U.cXCXKXLXLXLXKX9X* * T { 3.] ! *.qX<X>XUX",
"UXUXUXUXUXUXUXUXUXUXUXUXUX% @ % # # % # # # # # # # # # # J ^ 1.w.Z.S.A.A.A.S.S.Z.N.l.U.cXCXKXKXLXLXKX9X- o . * ] R * ; ).<X>X-X",
"UXUXUXUXUXUXUXUXUXUXUXUXUX+.X.X.X.X.X.X...# @ @ @ @ # L P ^ ^ 6.N.A.S.S.S.S.S.S.A.w.7.Y.cXVXKXKXLXLXPX9XX   o . _ T . ; qX<X>X-X",
"UXUXUXUXUXUXUXUXUXUXUXUXUXUXUXUX;XUXUX@X].% # # # # J ] 2.4.5.N.A.S.S.S.S.S.S.S.Z.6.l.U.cXCXKXLXLXLXPX9XX   o * T * . ; qX<X>X-X",
"UXUXUXUXUXUXUXUXUXUXUXUXUXUXUXUXUXUXUXUX,X+.X.X.X.X.o.8.N.N.N.A.S.S.S.S.S.S.S.S.S.w.6.n.xXBXKXLXKXLXSX9XX   o - >.: X ; 9X<X>X;X",
"UXUXUXUXUXUXUXUXUXUXUXUXUXUXUXUXUXUXUXUXUXUX%X:X:X%X XH.A.A.A.S.S.S.S.S.S.S.S.S.A.k.7.b.U.nXPXLXKXLXKX9XX   . , BX9X- ; qX<X>X;X",
"UXUXUXUXUXUXUXUXUXUXUXUXUXUXUXUXUXUXUXUXUXUXUXUXUXUX.Xr.B.B.B.B.B.Z.B.B.B.Z.B.n.m.>.>.,.8XbXGXJXKXLXKXeX, , , 0XhX0X, < < Q.].}.",
"UXUXUXUXUXUXUXUXUXUXUXUXUXUXUXUXUXUXUXUXUXUXUXUXUXUX.Xr.6.6.w.w.6.6.6.6.w.w.j.<.M tXuXuXuXeXbXGXKXLXKXHXCXCXZXsXD 0X9X-.* % % & ",
"UXUXUXUXUXUXUXUXUXUXUXUXUXUXUXUXUX#X3XUXUXUXUXUXUX}.u.^ ^ ^ ^ ^ ^ 1.1.1.7.[ :.M H G fXfXfXsXeXZXAXSXHXPXPXJXSXkXD M -.=.% # $ L ",
"UXUXUXUXUXUXUXUXUXUXUXUXUXV tXyXyXyXyXyXyXyX3XUXXXO.) P P P P P P P P 1.9.<.M D pXfXjXjXjXgXpXiXfXhXDXDXGXZXgXfXpXM : % @ $ ` 3.",
"UXUXUXUXUXUXUXUXUXUXUX#X`.D D F iXF F F pXpXdX3XQ.@.=.=.;.;.;.;.( Y P ^ ! > M F iXfXjXjXjXjXfXfXgXkXZXVXCXhXfXfXgX0X= & ..O.h.f.",
"UXUXUXUXUXUXUXUXUXUXUXC H pXH A A A A A tXrXsXdXyXtX0XbXvXbXvXvXlX~ P P Y > N D iXfXfXjXjXjXjXjXjXkXkXkXkXjXjXjXjXuXb _./.$X$X*X",
"UXUXUXUXUXUXUXUXUXUX'.Z S H Z b b n M D rXeXeX0XuXgXkXSXCXZXZXGXcX>.~ Y J & > M D pXgXfXjXjXjXjXjXjXjXjXjXjXgXgXgXuX`.(.UXUXUX>X",
"UXUXUXUXUXUXUXUXUXUX(.s f f t q 8 q M hXVXvXrX).9XhXSXSXZXqXqXrXbXvXlX~ J J & > M D gXfXfXgXfXfXfXiXiXfXiXF D A D `.#XUXUXUXUXUX",
"UXUXUXUXUXUXUXUXUXUXc i e y d w 4 8 C CXGXBXlXqXrXCXJXHXvX9XqXwXZXFXbX;.J J % & > N F F F F F F F F F F F tX'.'.'.(.UXUXUXUXUXUX",
"UXUXUXUXUXUXUXUXz z a i u u y d 0 q M ZXCXbXcXcXvXGXJXHXCXZXZXVXVXCXzX .J J J J & > m n A A A A A A A A A '.#X#XUXUXUXUXUXUXUXUX",
"UXUXUXUXUXUXUXu u u u u i i i i d q A ZXVXcXcXvXGXFXSXJXJXSXJXSXJXGXlX*.Y % Y Y $ : > m M Z V '.C V V V V (.UXUXUXUXUXUXUXUXUXUX",
"UXUXUXUXUXUXa u u u u u i i i i e r C vXBXcXbXNXGXCXFXJXFXJXJXJXFXDXbX-.: ~ : =.: < > , m Q.#X#X#X#X#XUXUXUXUXUXUXUXUXUXUXUXUXUX",
"UXUXUXUXz u u i i i i i y i p i r t `.vXvXwXcXbXVXCXCXJXGXVXNXNXNXnXlX,.=.<.<.< -.-.< < <.Q.:X-XUXUXUXUXUXUXUXUXUXUXUXUXUXUXUXUX",
"UXUXUXz a y u i i i i i p u p i 7 = -.vXcX-.qXcXvXVXGXCXnXmXE.E.E.R.Y.I.>.<.< qXqX-.< =.-._.2XUXUXUXUXUXUXUXUXUXUXUXUXUXUXUXUXUX",
"UXUXz y i i i i i i i y t t w w = @ =.wXwX<.,.mXlXnXnXnXmXI.e.e.T.e.e.e.I.;.<.qXwX,.-.-.-.qXcXUXUXUXUXUXUXUXUXUXUXUXUXUXUXUXUXUX",
"c z a u e i i i e e e y 9 = = = & @ % ~ ;.;.:.I.Y.E.R.W.I.T.0.G.0.0.e.G.v.I.I.I.Y.,.qXqXwXwXwX<XUXUXUXUXUXUXUXUXUXUXUXUXUXUXUXUX",
"i i i i i i i i x x x v l @...& & % % Y U 0.T.e.e.e.T.d.d.d.d.d.d.d.d.d.d.s.v.e.T.Y.lXcXlXzX<X3XUXUXUXUXUXUXUXUXUXUXUXUXUXUXUXUX",
"u u i i i i e a c UXUXUXUXXX}.[.}.~.+.( 9.0.G.e.0.0.g. X.X.X*X.X.X.X.X.X Xg.s.0.s.I.Y.lXzX<X3XUXUXUXUXUXUXUXUXUXUXUXUXUXUXUXUXUX",
"i u i i u i s z UXUXUXUXUXUX;X;X=X&X|.s.s.d.d.d.d.d.oX&XUXUXUXUXUXUXUXUX&Xg.v.v.0.e.I.Y.lX3XUXUXUXUXUXUXUXUXUXUXUXUXUXUXUXUXUXUX",
"i i i i u a (.UXUXUXUXUXUXUX*X XoXoXd.T.g.XX.X.X.X.X*XUXUXUXUXUXUXUXUXUX=Xp.c.v.G.s.T.n.I.+XUXUXUXUXUXUXUXUXUXUXUXUXUXUXUXUXUXUX",
"i i i u e x UXUXUXUXUXUXUX&XoXs.s.d.T.s.a.%X=X=X=X:X;XUXUXUXUXUXUXUXUXUX&Xp.q.v.v.G.v.c. .+XUXUXUXUXUXUXUXUXUXUXUXUXUXUXUXUXUXUX",
"i i u p e x UXUXUXUXUXUX*XoXd.T.g. X].q.h.y.].y.y.y.}.UXUXUXUXUXUXUXUXUX;X*X+Xi.q.c.c.j.c.+XUXUXUXUXUXUXUXUXUXUX!.UXUXUXUXUXUXUX",
"i i i i s UXUXUXUXUXUX&XoXs.s.d.|.&X{.( } / | ( ( o.y.%XUXUXUXUXUXUXUXUX-X;X.Xp.j.j.9.j.q.|.UXUXUXUXUXUXUXUXUX~.6 h UXUXUXUXUXUX",
"i u i a c UXUXUXUXUX*XoXR.T.g.XXXX].O.| Q W o.].{.{.XXUXUXUXUXUXUXUXUXUX;XXXp.i.[ j.$.$.c.|.UXUXUXUXUXUXUXUXUX~.6 g UXUXUXUXUXUX",
"i u u v UXUXUXUXUX=XoXT.I.R.OX*X[.( W } U ( y.%XUXUXUXUXUXUXUXUXUXUXUXUX$Xp.x.x.j.j.&.9.i.+XUXUXUXUXUXUXUXUXUX~.6 g UXUXUXUXUXUX",
"u u e z UXUXUXUXUXoXR.T.1XOXXX{.O.W W } o.].$XUXUXUXUXUXUXUXUXUXUXUXUXXXp.c.#.#.j.j.q.i.|.UXUXUXUXUX~.UXUXUXUX^.6 g @XUXUXUXUXUX",
"i u u x UXUXUXUXoXT.T.R.OX=X|.( W } W / y.%XUXUXUXUXUXUXUXUXUXUX-XUX*Xp.x.x.x.x.#.j.q.|.UXUXUXUXUX!.6 j UXUXUX!.6 h @XUXUXUXUXUX",
"y u e x UXUXUX=XoXT.1XOXUXUX{.} W ' W / ].;XUXUXUXUXUXUXUXUX:XXX[.[.y. .#.#.x.x.#.$.q.+XUXUXUXUXUXk 3 j UXUX~.g 3 h @XUXUXUXUXUX",
"i i i z UXUXUX=X1XR.OXUXUXUX]./ W W W / y.%X-XUXUXUXUXUX-X-X$XO.( |  . .x.x.x.j.[ &.q.XXUXUXUXUXUXk 6 j UXUX6 1 + h @XUXUXUXUXUX",
"y a c UXUXUXUXUXUXUXUXUXUXUX]./ W } } | O.{.[.[.[.[.[.[.[.[.y.( Q ' [ #.x.x.j.j.9.i.oXUXUXUXUXUX!.7 3 k UX^.3 + + h UXUXUXUXUXUX",
"u z UXUXUXUXUXUXUXUXUXUXUXUX[.( W } } } / ( ( ( ( ( ( ( ( ( ( } | [ [ c.#.x.x.#.q.|.UXUXUXUXUX!.6 O 2 k @X~.6 O 1 h UXUXUXUXUXUX",
"e z UXUXUXUXUXUXUXUXUXUXUXUXUX].o.} U U U Q W U W W W W W Q ' | [ [ #.#.#.$.9.i.|.&XUXUXUXUXUXk 1 + 1 g !.h 3 3 h ^.UXUXUXUXUXUX",
"u z UXUXUXUXUXUXUXUXUXUXUXUXUX&X].( W / } } ' } W / } ' U ' | [ [ &.#.9.x.x.i.+X=XUXUXUXUXUXUXk 2 + 1 2 3 2 1 h @XUXUXUXUXUXUXUX",
"e x UXUXUXUXUXUXUXUXUXUXUXUXUXUXXX:.>.>.;.} U U U U W W ' ' { [ c.p.p.p.p.p.|.&XUXUXUXUX^.~.~.g 2 1 1 O + + O h UXUXUXUXUXUXUXUX",
"u x UXUXUXUXUXUXUXUXUXUXUXUXUXUXOXwXeXbX,. ./ | ' } } } | [ [ 9.i.XX=X=X=X:X=XUXUXUXUX!.6 3 6 2 1 O 1 O O O 1 j UXUXUXUXUXUXUXUX",
"c (.(.UXUXUXUXUXUXUXUXUXUXUXUX^.3XzXBXNXlXY.:.>.:.:.:.u.y.p.p.p.|.=X-X-X-X@X^.^.^.^.~.7 1 + O O 1 1 1 O O 6 h UXUXUXUXUXUXUXUXUX",
"UXUXc UXUXUXUXUXUXUXUXUXUXUX!.7 N bXDXNXvXnXvXvXbXwX<X$X;X=X=X=X=X;X-X-X@Xj 6 6 6 6 6 2 1 O O 1 1 1 1 O 1 h UXUXUXUXUXUXUXUXUXUX",
"UXUXUXUXUXUXUXUXUXUXUXUXUX^.g 4 b tXaXaXaXaXhXCXGXvX2X(.(.@X#X>X3X3X>X#X~.7 O + O O + O 1 1 1 O 1 O O 3 g ^.UXUXUXUXUXUXUXUXUXUX",
"UXUXUXUXUXUXUXUXUXUXUXUXUX7 5 4 t B B f x B C MXDXNXaXv z x Z dXIXIXMXV 7 2 O O O O O 1 1 1 1 1 1 O 1 h @XUXUXUXUXUXUXUXUXUXUXUX",
"UXUXUXUXUXUXUXUXUXUXUXUXj 1 2 8 t e y y e u Z tXaXaXC s s B `.AXHXHXsXb 4 5 5 2 2 1 1 O O 1 O + 1 3 g ^.UXUXUXUXUXUXUXUXUXUXUXUX",
"UXUXUXUXUXUXUXUXUXUXUXUXj 1 5 8 d y u u y i s B B B s s B yXAXSXFXFXsXb 4 4 4 4 4 5 1 O 1 1 O + 1 h @XUXUXUXUXUXUXUXUXUXUXUXUXUX",
"UXUXUXUXUXUXUXUXUXUXUXUXk 2 1 4 w r r d r r d r r r s B yXMXFXJXZXeX_.9 4 5 4 4 5 2 1 O 1 6 g g h UXUXUXUXUXUXUXUXUXUXUXUXUXUXUX",
"UXUXUXUXUXUXUXUXUXUXUXUXj 2 1 2 4 w 0 0 0 0 0 0 w w b yXAXVXDXDXcXM 9 4 2 2 2 2 2 1 1 O 2 j /.@XUXUXUXUXUXUXUXUXUXUXUXUXUXUXUXUX",
"UXUXUXUXUXUXUXUXUXUXUXUXk 2 1 1 5 4 8 8 4 8 8 8 4 8 n ZXFXDXnXDXrXb 3 2 O O O 1 1 O O O 3 ~.-XUXUXUXUXUXUXUXUXUXUXUXUXUXUXUXUXUX"
};
