/* XPM */
static char *result[] = {
/* columns rows colors chars-per-pixel */
"64 64 256 2 ",
"   c black",
".  c #010101",
"X  c #020202",
"o  c gray1",
"O  c #040404",
"+  c gray2",
"@  c #060606",
"#  c #070707",
"$  c gray3",
"%  c #090909",
"&  c gray4",
"*  c #0B0B0B",
"=  c #0C0C0C",
"-  c gray5",
";  c #0E0E0E",
":  c gray6",
">  c #101010",
",  c #111111",
"<  c gray7",
"1  c #131313",
"2  c gray8",
"3  c #151515",
"4  c #161616",
"5  c gray9",
"6  c #181818",
"7  c #191919",
"8  c gray10",
"9  c #1B1B1B",
"0  c gray11",
"q  c #1D1D1D",
"w  c #1E1E1E",
"e  c gray12",
"r  c #202020",
"t  c gray13",
"y  c #222222",
"u  c #232323",
"i  c gray14",
"p  c #252525",
"a  c gray15",
"s  c #272727",
"d  c #282828",
"f  c gray16",
"g  c #2A2A2A",
"h  c gray17",
"j  c #2C2C2C",
"k  c #2D2D2D",
"l  c gray18",
"z  c #2F2F2F",
"x  c gray19",
"c  c #313131",
"v  c #323232",
"b  c gray20",
"n  c #343434",
"m  c #353535",
"M  c gray21",
"N  c #373737",
"B  c gray22",
"V  c #393939",
"C  c #3A3A3A",
"Z  c gray23",
"A  c #3C3C3C",
"S  c gray24",
"D  c #3E3E3E",
"F  c #3F3F3F",
"G  c gray25",
"H  c #414141",
"J  c gray26",
"K  c #434343",
"L  c #444444",
"P  c gray27",
"I  c #464646",
"U  c gray28",
"Y  c #484848",
"T  c #494949",
"R  c gray29",
"E  c #4B4B4B",
"W  c #4C4C4C",
"Q  c gray30",
"!  c #4E4E4E",
"~  c gray31",
"^  c #505050",
"/  c #515151",
"(  c gray32",
")  c #535353",
"_  c gray33",
"`  c #555555",
"'  c #565656",
"]  c gray34",
"[  c #585858",
"{  c gray35",
"}  c #5A5A5A",
"|  c #5B5B5B",
" . c gray36",
".. c #5D5D5D",
"X. c gray37",
"o. c #5F5F5F",
"O. c #606060",
"+. c gray38",
"@. c #626262",
"#. c gray39",
"$. c #646464",
"%. c #656565",
"&. c gray40",
"*. c #676767",
"=. c #686868",
"-. c DimGray",
";. c #6A6A6A",
":. c gray42",
">. c #6C6C6C",
",. c #6D6D6D",
"<. c gray43",
"1. c #6F6F6F",
"2. c gray44",
"3. c #717171",
"4. c #727272",
"5. c gray45",
"6. c #747474",
"7. c gray46",
"8. c #767676",
"9. c #777777",
"0. c gray47",
"q. c #797979",
"w. c gray48",
"e. c #7B7B7B",
"r. c #7C7C7C",
"t. c gray49",
"y. c #7E7E7E",
"u. c gray50",
"i. c #808080",
"p. c #818181",
"a. c gray51",
"s. c #838383",
"d. c #848484",
"f. c gray52",
"g. c #868686",
"h. c gray53",
"j. c #888888",
"k. c #898989",
"l. c gray54",
"z. c #8B8B8B",
"x. c gray55",
"c. c #8D8D8D",
"v. c #8E8E8E",
"b. c gray56",
"n. c #909090",
"m. c gray57",
"M. c #929292",
"N. c #939393",
"B. c gray58",
"V. c #959595",
"C. c gray59",
"Z. c #979797",
"A. c #989898",
"S. c gray60",
"D. c #9A9A9A",
"F. c #9B9B9B",
"G. c gray61",
"H. c #9D9D9D",
"J. c gray62",
"K. c #9F9F9F",
"L. c #A0A0A0",
"P. c gray63",
"I. c #A2A2A2",
"U. c gray64",
"Y. c #A4A4A4",
"T. c #A5A5A5",
"R. c gray65",
"E. c #A7A7A7",
"W. c gray66",
"Q. c #A9A9A9",
"!. c #AAAAAA",
"~. c gray67",
"^. c #ACACAC",
"/. c gray68",
"(. c #AEAEAE",
"). c #AFAFAF",
"_. c gray69",
"`. c #B1B1B1",
"'. c #B2B2B2",
"]. c gray70",
"[. c #B4B4B4",
"{. c gray71",
"}. c #B6B6B6",
"|. c #B7B7B7",
" X c gray72",
".X c #B9B9B9",
"XX c gray73",
"oX c #BBBBBB",
"OX c #BCBCBC",
"+X c gray74",
"@X c gray",
"#X c gray75",
"$X c #C0C0C0",
"%X c #C1C1C1",
"&X c gray76",
"*X c #C3C3C3",
"=X c gray77",
"-X c #C5C5C5",
";X c #C6C6C6",
":X c gray78",
">X c #C8C8C8",
",X c gray79",
"<X c #CACACA",
"1X c #CBCBCB",
"2X c gray80",
"3X c #CDCDCD",
"4X c #CECECE",
"5X c gray81",
"6X c #D0D0D0",
"7X c gray82",
"8X c #D2D2D2",
"9X c LightGray",
"0X c gray83",
"qX c #D5D5D5",
"wX c gray84",
"eX c #D7D7D7",
"rX c #D8D8D8",
"tX c gray85",
"yX c #DADADA",
"uX c gray86",
"iX c gainsboro",
"pX c #DDDDDD",
"aX c gray87",
"sX c #DFDFDF",
"dX c gray88",
"fX c #E1E1E1",
"gX c #E2E2E2",
"hX c gray89",
"jX c #E4E4E4",
"kX c gray90",
"lX c #E6E6E6",
"zX c #E7E7E7",
"xX c gray91",
"cX c #E9E9E9",
"vX c #EAEAEA",
"bX c gray92",
"nX c #ECECEC",
"mX c gray93",
"MX c #EEEEEE",
"NX c #EFEFEF",
"BX c gray94",
"VX c #F1F1F1",
"CX c gray95",
"ZX c #F3F3F3",
"AX c #F4F4F4",
"SX c gray96",
"DX c #F6F6F6",
"FX c gray97",
"GX c #F8F8F8",
"HX c #F9F9F9",
"JX c gray98",
"KX c #FBFBFB",
"LX c gray99",
"PX c #FDFDFD",
"IX c #FEFEFE",
"UX c white",
/* pixels */
"$XOX'.L.c.y.i.V.(.XXQ.w.G 1 # 9 D @.y.A.^.'.I.9.K 8 , i P $.5.0.9.7.6.6.6.6.7.w.r.q.-.E f , > a I $.5.8.6.7.u.M.E.{.{.Y.v.e.2.>.",
"$XOX'.P.c.y.u.n.R._.P.8.K 9 , u K $.y.Z.~.'.I.9.K 8 , i P $.5.0.9.7.6.6.6.6.6.9.0.5.#.I a > > a I $.5.8.7.7.y.n.Y.'.`.U.b.y.7.2.",
"$XOX'.I.v.u.r.g.B.F.b.1.R k a n Q *.y.C.~.'.I.9.J 8 > u P $.6.0.9.7.6.7.7.6.5.3.,.%.' Z e - > s U $.6.9.7.7.t.c.H.!.~.L.M.f.y.e.",
"&X+X[.T.M.p.0.8.9.8.2.#.` E R / ..>.t.V.!.].U.8.G 4 - y P %.8.w.0.7.7.8.9.8.3.=. .! S s < @ = a Y &.8.w.q.0.t.h.N.H.K.G.C.m.v.x.",
"&X@X{.E.V.p.3.+.) E E ` #.1.7.6.4.5.t.N.Q.].U.8.F 3 = t P &.9.e.q.7.7.9.q.9.,. .U b y , O   * a Y *.9.r.w.q.e.i.g.x.M.Z.F.J.L.P.",
"$XoX'.Y.M.t.*.Q n s l R 1.b.D.B.g.e.u.M.E.`.I.9.K 9 , i P #.5.0.9.6.6.8.9.5.&.^ m w : O   o > g T $.5.9.8.6.7.8.0.t.f.M.L.~.'.{.",
"|.'.Q.S.f.1.{ F d 0 s R 8.F.Q.U.N.g.g.N.U.!.H.w.^ z i z L { &.,.3.4.5.3.,.%.[ L l 9 < : , 6 i m T } #.&.%.$.&.=.>.5.u.m.Y.].OX$X",
"!.Y.S.f.<.' L m h f M _ 0.C.Y.U.F.N.M.Z.H.J.V.p.-.) U H H P W [ &.2.2.*.{ E H N z g h c C J U Y U U I P L P E _ O.<.u.B.Q..X*X>X",
"A.M.d.,./ V l l m H ~ @.9.k.V.G.K.L.K.G.Z.m.x.j.d.r.<.] G x x J } >.>.| L x f j M J ! ..:.5.<...I v a r r i z G ` :.p.Z.~.XX=X,X",
"s.r.<._ N e 9 g H [ &.1.7.r.g.B.I.~.~.L.m.f.d.c.S.G.v.>.K p e v ~ %.%./ n e 0 g H { >.p.N.S.v.1.U i , % % > w b W &.t.M.Y.'.oX#X",
"-.#.' D y ; > s U $.5.8.7.7.y.n.Y.'.'.U.v.u.y.x.J.W.G.w.^ z p v Y { } R n p a N ~ *.r.m.I.W.F.0.W a < = > 6 i n U | >.y.v.D.P.T.",
"I J N i : X % p T -.q.w.8.6.t.n.R.{.{.T.b.t.w.f.C.L.D.d.=.~ K G L Y Y I L L R ` #.3.u.v.F.L.V.0.' B h h b S J L I T ~ { $.,.4.6.",
"i y 9 : X   $ a R -.q.w.8.6.t.m.R.{.{.R.n.t.9.r.g.v.b.z.s.0.;.' J m m L { >.8.q.0.9.e.a.l.c.g.7.+./ Q ] $.,.;.} I m l z m Z D F ",
", > ; $ o o > g T $.5.8.6.7.y.n.Y.'.'.Y.n.y.7.6.9.t.d.n.F.H.v.;.H i i H ;.c.F.C.k.e.8.9.e.t.e.6.>.=.,.y.n.S.v.<.U i < : 1 6 8 9 ",
"8 8 8 6 5 8 i n Y } %.:.<.5.t.v.K.!.!.J.c.t.7.2.2.7.u.N.W.`.P.7.G 8 7 A <.A.W.P.b.t.8.8.q.r.r.q.7.7.y.M.W.`.I.q.I 8 + O = 4 8 0 ",
"J K K L P I I P L P E ' #.2.t.z.Z.K.J.C.k.t.8.3.1.4.y.C.).oX!.w.F 2 > v $.b.L.F.z.r.0.e.a.j.k.s.t.e.d.D.`.OX~.r.K 2 X = t m G L ",
"8.9.9.w.e.q.<.[ G x x F ' >.e.f.x.b.b.l.s.r.9.5.3.5.u.Z._.oX!.w.G 2 - f ` t.v.x.a.q.w.d.n.S.D.n.d.t.s.S._.oX!.w.H 2 % e K #.6.r.",
"I.I.I.R.E.P.v.;.J p e z E %.6.e.r.r.r.w.9.7.5.3.3.6.y.N.W.`.I.8.K 9 1 d W ,.r.t.q.8.t.x.H.Q.Q.G.l.t.u.m.E.`.P.8.H 9 6 B $.z.L.!.",
"`.`.'.{.}._.H.0.~ z p x P } $.*.&.%.$.$.#.$.&.-.,.4.e.l.Z.G.n.2.R k s M ^ =.6.8.6.7.y.n.Y.'.'.U.b.u.r.g.B.F.b.<.U k z ~ 0.G._.XX",
"R.R.E.!.~.E.D.a.&.~ J G L Y T Y I P L K J P E ] %.2.9.w.w.9.2.$.] Q Q ` O.:.3.4.4.6.u.M.E.}.}.W.B.p.9.6.6.4.>.O.) Q _ :.f.F.W.(.",
"m.m.m.M.N.N.b.l.a.0.;.[ P n g a p p i y t i z L | >.2.*.[ W W ] %.4.0.q.8.5.4.3.2.6.u.M.E.}.|.!.Z.a.2.o.~ I I / +.4.t.g.x.n.N.V.",
"u.u.u.y.t.u.d.b.D.H.v.<.I i > * = : > ; - , w N ( &.&.( B s j R 1.b.F.C.j.e.6.2.2.6.y.n.Y.'.'.R.N.t.*.Q n s k R 1.b.H.S.b.d.u.t.",
"u.y.r.q.8.8.u.N.E._.P.q.I 8 O   + - , 1 2 7 p B W { ` S r : 7 F 2.S.Q.P.b.t.6.2.2.6.t.c.K.!.W.D.f.1.} K l p x / w.G.W.K.v.t.7.3.",
"c.x.j.i.q.8.t.N.~.|.E.r.P 5 o O , r g v V F K I U L V y *   ; M =.M.U.J.c.r.6.3.3.6.e.j.C.J.A.f.,.' Y G S J ! *.d.D.L.Z.h.q.4.<.",
"I.K.S.v.p.q.y.N.!.{.R.w.L 6 $ > p A Q ..;.2.:.| P z q *     * z  .p.M.n.f.q.6.4.4.6.q.a.z.v.d.:.~ V m H ' ;.q.s.z.b.b.j.u.9.4.2.",
"{.'.Q.D.k.t.u.m.E.'.I.9.K 8 ; 0 B ' >.a.N.S.v.1.Y i : X   X , l ^ ,.r.u.e.8.6.5.5.6.8.w.y.e.<./ b e i J ;.c.G.D.n.d.t.q.9.7.6.5.",
"$XoX'.P.c.u.u.m.E.'.I.9.K 8 > y J #.r.M.U.Q.H.r.) z 9 1 1 7 i n Y } &.,.2.5.7.8.8.7.5.3.<.&.' C w ; 7 F 2.S.Q.I.n.t.7.4.5.6.6.6.",
"-X$X}.T.m.a.a.V.~.}.R.w.L 9 , i P *.y.m.H.I.D.f.-./ L H K I I L J K T ` $.2.9.w.w.9.3.&.{ R V t * X > B -.M.U.G.z.w.4.2.4.5.6.6.",
"=X$X}.T.m.s.s.C.^.|.E.e.P 9 , i P &.w.g.c.n.b.l.a.e.0.q.e.q.,.] F l l D ' >.0.t.t.0.,.| P x w =     = c ..p.M.b.d.0.5.4.4.6.6.6.",
"$XoX'.L.c.y.y.n.T._.P.8.J 8 , i P $.7.e.t.y.s.x.V.H.I.E.W.I.v.;.J p w z E %.5.q.w.5.&.~ m q ; o   o < l ^ ,.r.u.e.8.6.5.6.6.6.6.",
"|.'.W.V.i.1.,.r.b.A.z.%.B 4 > i P $.6.9.7.7.t.z.F.Q.'.|. X`.H.0.~ z p x P } $.-.-.$.[ P l 0 < : , 6 i m Y } &.,.2.5.6.7.7.7.7.7.",
"!.Y.A.a.-._ Q ' $.:.+.P u = = i U &.7.0.7.5.q.f.B.P.W././.W.D.a.&.~ J G L Y T T Y P G B x h h c C J I P K K T ` $.2.9.q.0.9.9.9.",
"A.M.d.>.~ m g k m C n y : o * p Y *.8.q.8.6.9.y.h.b.N.V.V.N.b.l.a.0.;.[ P n g p u p d z B J ! ..:.4.,.{ G l l D ' >.0.e.w.0.0.0.",
"s.r.<.' C e < , 3 6 4 ; # + , g T $.5.9.8.6.7.0.e.t.y.y.y.u.d.b.D.H.v.<.I i > % % > 0 k K { >.p.N.S.v.>.L p w z E %.5.9.8.6.5.5.",
"-.$.{ I x 0 < , 3 7 8 7 6 8 i n Y } %.>.2.5.6.7.7.7.7.5.4.7.u.N.W._.P.q.I 8 + . % 4 a C / =.r.m.I.W.G.w.^ z p x P { #.&.&.%.$.$.",
"I L G V c h g z M S H K P I I P L P E ] %.2.8.0.9.7.6.3.2.4.t.B.^.|.E.e.L 5 @ - y V T ] %.3.y.v.D.L.S.s.=.^ K G H L P U Y T R R ",
"u p f z B J Q [ %.1.8.w.r.q.<.[ G x x G ] >.9.w.q.9.7.5.3.5.y.B.~.{.R.q.J 6 ; u P %.8.w.q.0.e.p.j.c.c.l.d.w.>.] H z p i a f g h ",
"* > 9 j J { >.t.c.D.I.W.Q.I.v.;.J p e x E %.5.9.8.6.5.3.3.6.y.N.Q.'.I.8.H 8 5 m #.z.F.Z.k.e.8.8.q.y.d.n.D.G.v.<.U i , * = : > > ",
"* , q v E &.e.c.H.Q.`.|. X`.H.0.~ z p x P { #.&.%.%.&.=.>.5.u.V.Q.'.I.8.H 9 7 A <.A.W.P.b.t.8.6.9.t.g.V.Y.Q.H.r._ z 6 * @ o .   ",
"y s c J ] ,.y.x.A.P.E.~.^.W.F.s.=.^ K G H L P P I T ~ [ $.3.a.S.(.}.R.0.K 9 6 B *.n.L.D.z.r.0.e.a.l.m.D.I.U.S.f.;.^ V i < +     ",
"L U Q ] $.2.w.a.k.v.m.N.B.N.n.z.d.w.>.] H z p t u g m P { <.s.F._. XE.w.L 9 3 x { y.v.x.a.q.w.d.m.G.L.J.S.N.v.l.d.q.&.U s -     ",
"#.$.&.-.<.4.8.q.r.y.u.y.y.u.d.b.D.G.v.<.U i , % % > q v W &.t.C.!.`.P.8.J 8 < d W ,.r.y.q.8.t.x.H.Q.!.L.M.g.f.v.S.G.z.%.C 4     ",
"6.6.6.6.6.6.7.0.e.t.t.q.8.8.t.v.L.W.H.t._ l 5 % X O ; y S ] >.a.B.S.z.&.B 4 > p I $.6.9.7.7.t.x.H.Q.!.L.m.g.g.B.Y.!.S.2.G 6 .   ",
"r.e.w.0.8.7.0.y.f.l.k.a.q.6.0.g.C.L.D.g.:.~ B y > + @ 2 d A Q ..;.<.#.I i = = u P $.6.9.8.7.e.g.N.J.P.G.V.b.m.F.T.R.N.:.S 5 .   ",
"r.e.w.9.7.7.e.g.N.G.F.n.a.9.7.r.g.v.b.x.f.0.$.I a - o # 1 r g b Z S M i > O * p U %.7.q.9.7.0.y.f.c.M.Z.F.J.K.P.L.A.a...m 2 .   ",
"6.6.6.4.4.6.t.x.H.Q.Q.H.x.t.8.7.0.t.d.n.F.H.x.*.Z 4 o   + - < 3 6 7 4 ; @ + > g T $.5.9.8.6.7.8.q.t.f.N.P.~.~.Y.Z.d.,.W h , .   ",
"#.$.&.=.>.4.t.c.J.Q.~.P.N.f.t.9.6.8.u.N.W.`.I.q.I 7 X   + - > , , , < < 2 7 u m Y } %.>.2.5.6.5.4.7.y.m.T.'.`.P.l.2.] Z t =     ",
"J P E ` @.2.t.l.C.J.P.K.D.N.x.a.q.8.y.V.(.oX~.u.U 5 X O , r a a p p f c C J I I P P E ] %.2.8.7.4.5.t.N.!. X'.D.9.` Z i < O     ",
"e i z H ] ,.e.s.k.c.N.D.K.P.H.n.a.q.u.V.(.oX~.t.L 4 + ; p Z I U P P W } -.4.,.} J x x G ] >.8.9.6.6.y.B.^..X).v.#.C e ; +       ",
"* , w b Q &.6.q.e.t.f.N.P.~.Q.F.k.t.u.m.R.`.I.9.L 9 : e Z ' #.&.$.$.,.y.n.S.v.,.L p e x E %.5.7.6.6.y.M.E.`.Y.u./ s : O X X .   ",
"4 9 i n U { %.:.<.5.t.v.K.!.!.H.z.t.r.h.V.F.b.1.R k a M ~ *.5.7.5.6.r.v.L.W.G.w./ z p z L { %.:.1.5.e.l.Z.F.v.<.I i < : 1 6 8 8 ",
"K K K J J P E ` +.<.e.l.A.L.L.Z.l.y.9.7.8.6.<.@.' Q ! ] %.3.9.0.8.9.t.z.S.P.D.f.-./ K D F L E ] %.2.8.q.0.5.=.` H c h x V J U T ",
"e.8.:.] H x z D ` :.w.f.x.m.m.c.f.r.3.+.( Y T _ #.4.q.e.w.0.9.7.6.7.q.i.k.b.n.x.f.w.:.` D z x H { >.2.&.` I F D G P ! } =.5.q.t.",
"!.P.v.>.P p e z E %.6.e.t.r.r.r.w.6.*.~ M s k R 2.b.F.C.k.e.7.5.5.7.8.0.w.t.d.n.D.G.v.:.K p e v ~ %.*._ Z s i x L } >.y.v.D.I.R.",
"XX`.H.e.( x a x P } $.*.*.%.%.*.*.$.[ J g q d E 9.F.Q.P.b.y.8.8.w.t.t.w.9.9.y.b.P.Q.H.e./ x a v Y { } R m a s N ~ =.r.b.J.!.`.{.",
"`.~.J.h.>._ U L I T T T Y U Y T R T L V z j V [ r.S.U.G.c.u.e.i.k.b.b.j.u.q.t.l.D.U.H.j.>._ U L I T Y I L L E ' %.6.a.b.G.T.~.(.",
"S.Z.B.b.j.y.2. .U m h s s d f d f g l n Z P ) *.r.c.N.c.d.t.u.l.A.P.P.Z.k.t.e.p.z.N.B.n.k.y.2.} L M m L } <.q.r.e.e.u.g.c.B.Z.S.",
"r.y.s.v.S.F.c.,.I u > & = : : - - > 9 k K [ &.2.9.e.r.q.8.7.r.z.H.Q.Q.G.z.r.7.6.9.r.s.b.D.G.c.-.H i i H -.x.D.V.j.e.8.8.q.r.y.y.",
"+.%.,.y.b.A.z.=.S 4 .             . ; p F ' #.*.*.%.$.#.@.$.,.r.c.S.S.c.r.,.$.O.O.$.,.u.n.A.l.$.N 5 5 N $.l.A.n.y.,.$.@.#.$.$.$.",
"J P Q | ;.4.-.! j -                 # 7 z H R W R I P P P Y ! } *.2.2.*.} ! U L K I Q  .:.5.-.E s ; ; s E -.5.>.X.~ Y P P P P P ",
"p s j n D J S k 7 #                 o ; 9 a h j g d s s s f k n Z H H Z n k f s a s j m D K S h 4 $ $ 4 h S K F M k f s s s s s ",
": : , 2 5 7 5 , & o                 X @ & ; > , > > : : : > , 2 4 6 6 4 2 , > : : : , 2 5 7 5 > % o o % > 5 7 5 2 , > : : : : : ",
". . . . . . . .                           . . . . . . . . . . . . . . . . . . . . . . . . . . .         . . . . . . . . . . . . ",
"                                                                                                                                "
};
